<svg width="50" height="50" viewBox="0 0 50 50" fill="none" xmlns="http://www.w3.org/2000/svg">
<path fill-rule="evenodd" clip-rule="evenodd" d="M14.5072 26.0192C14.5485 26.871 15.3993 26.4771 15.785 26.211C16.1511 25.9584 16.2583 26.1688 16.2903 25.6696C16.3235 25.3425 16.3369 25.0136 16.3305 24.6848C15.7623 24.6278 15.1924 24.7739 14.7217 25.0973C14.4877 25.2675 14.0504 25.8089 14.5072 26.0254" fill="#CCCCCC"/>
<path d="M14.9497 26.6194C14.8656 26.621 14.7823 26.603 14.7064 26.5669C14.6196 26.5167 14.5479 26.444 14.4989 26.3565C14.4499 26.2691 14.4254 26.17 14.4279 26.0698C14.3717 26.0426 14.3232 26.0015 14.2871 25.9505C14.2511 25.8994 14.2285 25.8401 14.2217 25.7779C14.2371 25.6281 14.2849 25.4835 14.3618 25.354C14.4388 25.2245 14.543 25.1134 14.6672 25.0282C15.1531 24.6923 15.7431 24.5412 16.3306 24.6023L16.4007 24.6085V24.6786C16.4098 24.9357 16.4018 25.193 16.377 25.449C16.371 25.5239 16.3655 25.5988 16.3605 25.6738C16.3378 26.0275 16.2718 26.0811 16.0893 26.144C15.9934 26.1747 15.9027 26.2195 15.8201 26.2771C15.5642 26.4641 15.2645 26.582 14.9497 26.6194V26.6194ZM16.0944 24.7549C15.6208 24.7486 15.157 24.8907 14.7682 25.1613C14.6012 25.2829 14.3691 25.5676 14.3887 25.7635C14.3946 25.805 14.4119 25.8441 14.4386 25.8763C14.4654 25.9085 14.5006 25.9327 14.5403 25.946L14.5847 25.9667V26.0151C14.595 26.2276 14.6589 26.3637 14.7755 26.4214C15.0003 26.5328 15.419 26.3616 15.7356 26.144C15.8305 26.0781 15.9348 26.0266 16.0449 25.9914C16.1646 25.9502 16.1893 25.9409 16.2068 25.6635C16.2068 25.5882 16.2171 25.5129 16.2233 25.4366C16.2444 25.2111 16.2533 24.9845 16.2501 24.758C16.1972 24.756 16.1456 24.7549 16.0955 24.7549H16.0944Z" fill="black"/>
<path fill-rule="evenodd" clip-rule="evenodd" d="M14.5073 26.0193C14.6368 25.9906 14.7549 25.9242 14.8466 25.8285Z" fill="#AFAFAF"/>
<path d="M14.5073 26.1007C14.4887 26.1 14.4709 26.0929 14.4569 26.0807C14.4429 26.0685 14.4335 26.0519 14.4302 26.0335C14.427 26.0152 14.4301 25.9964 14.439 25.9801C14.448 25.9638 14.4622 25.951 14.4794 25.944L14.5341 25.9244C14.6294 25.9026 14.716 25.8526 14.7826 25.781C14.7885 25.7713 14.7963 25.7628 14.8056 25.7563C14.815 25.7497 14.8255 25.7452 14.8367 25.743C14.8479 25.7408 14.8594 25.741 14.8705 25.7435C14.8816 25.746 14.8921 25.7508 14.9012 25.7576C14.9103 25.7644 14.9179 25.7731 14.9235 25.783C14.9291 25.7929 14.9325 25.8039 14.9336 25.8153C14.9347 25.8266 14.9333 25.838 14.9297 25.8488C14.9261 25.8596 14.9202 25.8696 14.9126 25.878C14.8275 25.9758 14.7145 26.0453 14.5887 26.077L14.5361 26.0956C14.5269 26.099 14.5171 26.1008 14.5073 26.1007V26.1007Z" fill="black"/>
<path fill-rule="evenodd" clip-rule="evenodd" d="M16.4739 15.8707C13.2121 14.9539 15.6376 10.8083 18.2559 12.5119L16.4739 15.8707Z" fill="#A8A8A8"/>
<path d="M16.5153 15.9645L16.4524 15.947C16.0598 15.8803 15.6964 15.6971 15.4091 15.4213C15.1219 15.1454 14.9242 14.7897 14.8416 14.4001C14.8029 13.9999 14.8766 13.5968 15.0547 13.2362C15.2327 12.8756 15.5078 12.5719 15.8491 12.3593C16.2191 12.1257 16.6508 12.0088 17.0881 12.0237C17.5254 12.0386 17.9482 12.1846 18.3014 12.4428L18.3633 12.483L16.5153 15.9645ZM16.9783 12.184C16.6085 12.1841 16.2467 12.2916 15.9368 12.4934C15.6214 12.6887 15.3667 12.9681 15.2015 13.3002C15.0363 13.6323 14.967 14.004 15.0014 14.3733C15.0755 14.7219 15.2509 15.0408 15.5055 15.2902C15.7602 15.5395 16.0827 15.7081 16.4328 15.7748L18.1498 12.5398C17.7998 12.3153 17.3941 12.1928 16.9783 12.186V12.184Z" fill="black"/>
<path fill-rule="evenodd" clip-rule="evenodd" d="M30.9629 12.2005C33.541 10.3875 35.8768 14.4785 32.8769 15.5077L30.9629 12.2005Z" fill="#A8A8A8"/>
<path d="M32.8409 15.6057L30.8557 12.1768L30.9166 12.1345C31.2467 11.8701 31.6481 11.7101 32.0696 11.6746C32.4911 11.6392 32.9136 11.73 33.2833 11.9355C33.6327 12.1405 33.9184 12.4385 34.1085 12.7962C34.2986 13.154 34.3856 13.5576 34.3599 13.9619C34.3076 14.3472 34.1407 14.7078 33.8808 14.9971C33.621 15.2863 33.2802 15.4908 32.9027 15.584L32.8409 15.6057ZM31.0712 12.2242L32.9141 15.4077C33.248 15.3167 33.5479 15.1296 33.7763 14.8696C34.0048 14.6096 34.1518 14.2882 34.199 13.9454C34.2222 13.5718 34.1412 13.1992 33.9652 12.8689C33.7891 12.5386 33.5249 12.2637 33.2018 12.0747C32.872 11.8852 32.4932 11.7982 32.1137 11.8249C31.7343 11.8515 31.3714 11.9905 31.0712 12.2242V12.2242Z" fill="black"/>
<path fill-rule="evenodd" clip-rule="evenodd" d="M31.5189 36.504C32.1748 36.9092 33.3751 38.1364 32.3893 38.7315C31.4446 39.5967 30.9156 37.7817 30.0854 37.5301C30.2449 37.273 30.4537 37.05 30.6997 36.8739C30.9457 36.6978 31.2241 36.5721 31.5189 36.504V36.504Z" fill="#CCCCCC"/>
<path d="M31.8911 39.045H31.852C31.4797 39.0223 31.1703 38.6593 30.8712 38.3076C30.666 38.0091 30.3871 37.7687 30.0617 37.6095L29.9524 37.5765L30.0205 37.4837C30.3569 36.9488 30.891 36.5685 31.5065 36.4256H31.5364L31.5622 36.4411C31.9819 36.7009 32.8481 37.4599 32.844 38.1468C32.8419 38.2825 32.8031 38.4151 32.7317 38.5305C32.6604 38.646 32.5591 38.74 32.4387 38.8026C32.2935 38.9499 32.0978 39.0365 31.8911 39.045V39.045ZM30.2154 37.4981C30.5211 37.6782 30.7865 37.9194 30.995 38.2066C31.2848 38.5469 31.5591 38.8686 31.8623 38.8872C31.9508 38.887 32.0383 38.8685 32.1193 38.833C32.2004 38.7976 32.2733 38.7458 32.3335 38.6809L32.3459 38.6717C32.4441 38.6237 32.5272 38.5496 32.5861 38.4576C32.645 38.3656 32.6775 38.2591 32.68 38.1499C32.68 37.6012 31.987 36.9124 31.5003 36.603C30.9742 36.7251 30.5146 37.0434 30.2154 37.4929V37.4981Z" fill="black"/>
<path d="M32.3891 38.8129C32.3742 38.8129 32.3595 38.8087 32.3468 38.8009C32.3341 38.793 32.3237 38.7819 32.3169 38.7686C32.269 38.6679 32.2266 38.5646 32.1901 38.4592C32.1338 38.261 32.033 38.0782 31.8952 37.925C31.8824 37.9096 31.8758 37.89 31.8765 37.87C31.8773 37.85 31.8854 37.8309 31.8993 37.8165C31.9132 37.8021 31.9319 37.7933 31.9519 37.7919C31.9719 37.7904 31.9917 37.7963 32.0076 37.8085C32.1638 37.9783 32.2785 38.1819 32.3427 38.4035C32.3774 38.5018 32.4173 38.5982 32.4623 38.6923C32.472 38.7115 32.4737 38.7339 32.4669 38.7544C32.4601 38.7749 32.4455 38.7919 32.4263 38.8016C32.415 38.8083 32.4022 38.8122 32.3891 38.8129V38.8129Z" fill="black"/>
<path fill-rule="evenodd" clip-rule="evenodd" d="M19.805 37.891C19.0356 38.0096 18.6025 38.7047 17.9611 39.0574C17.3568 39.4183 17.1247 38.9419 17.0711 38.8449C16.9762 38.8016 16.9845 38.8851 16.8381 38.7418C16.274 37.8529 17.4207 37.2083 18.0168 36.767C18.8469 36.5989 19.3677 37.3187 19.805 37.891Z" fill="#CCCCCC"/>
<path d="M17.5515 39.2708C17.5025 39.2711 17.4536 39.2649 17.4061 39.2523C17.3214 39.2246 17.2431 39.1802 17.1758 39.1218C17.1084 39.0633 17.0535 38.992 17.0143 38.912H16.9957C16.9276 38.912 16.8771 38.8975 16.776 38.7954L16.7647 38.782C16.2254 37.9302 17.1432 37.2836 17.7516 36.8556C17.8279 36.802 17.9001 36.7525 17.9651 36.703L17.9795 36.6927H17.997C18.852 36.5195 19.3923 37.2269 19.8255 37.7951L19.9482 37.955L19.8131 37.9756C19.3785 38.0799 18.9829 38.3068 18.6735 38.6294C18.4654 38.8197 18.2384 38.9884 17.996 39.1326C17.8628 39.2175 17.7094 39.2652 17.5515 39.2708V39.2708ZM17.0081 38.749C17.0409 38.749 17.0733 38.7564 17.103 38.7707L17.1267 38.782L17.1473 38.8181C17.1763 38.8822 17.218 38.9397 17.2697 38.9874C17.3214 39.035 17.3822 39.0718 17.4484 39.0955C17.5297 39.1106 17.6132 39.1093 17.694 39.0916C17.7748 39.0738 17.8512 39.0401 17.9187 38.9924C18.1521 38.8529 18.3708 38.6902 18.5715 38.5067C18.8765 38.2018 19.2498 37.9742 19.6605 37.8425C19.248 37.3001 18.7715 36.7144 18.0496 36.8495C17.9819 36.8987 17.9132 36.9465 17.8434 36.9928C17.2246 37.43 16.4491 37.9745 16.8957 38.6923C16.9596 38.7562 16.9751 38.7552 16.9885 38.7552L17.0081 38.749Z" fill="black"/>
<path d="M17.07 38.9254H17.0628C17.0413 38.9235 17.0215 38.9133 17.0076 38.8969C16.9937 38.8804 16.9868 38.8592 16.9885 38.8377C17.0218 38.6215 17.1119 38.4179 17.2494 38.2478C17.3143 38.1581 17.3712 38.0628 17.4196 37.9632C17.4293 37.9451 17.4455 37.9313 17.465 37.9246C17.4845 37.9179 17.5057 37.9188 17.5245 37.9272C17.5433 37.9355 17.5583 37.9507 17.5664 37.9696C17.5745 37.9886 17.5751 38.0099 17.5681 38.0292C17.5161 38.1375 17.4547 38.241 17.3845 38.3386C17.2632 38.4872 17.1828 38.6649 17.1515 38.8542C17.149 38.874 17.1393 38.8922 17.1243 38.9053C17.1092 38.9184 17.0899 38.9255 17.07 38.9254V38.9254Z" fill="black"/>
<path fill-rule="evenodd" clip-rule="evenodd" d="M16.6101 14.727C16.1801 14.4991 15.8645 14.1908 16.1275 13.6958C16.3709 13.2348 16.8236 13.2833 17.2536 13.5122L16.6101 14.727Z" fill="black"/>
<path fill-rule="evenodd" clip-rule="evenodd" d="M32.1975 14.2919C32.6275 14.064 32.943 13.7556 32.6801 13.2606C32.4367 12.7996 31.984 12.8481 31.554 13.077L32.1975 14.2919Z" fill="black"/>
<path fill-rule="evenodd" clip-rule="evenodd" d="M35.1593 25.912C35.118 26.7638 34.2672 26.3699 33.8816 26.1038C33.5155 25.8511 33.4082 26.0615 33.3762 25.5624C33.3431 25.2352 33.3296 24.9063 33.336 24.5776C33.9042 24.5206 34.4741 24.6667 34.9448 24.9901C35.1789 25.1602 35.6161 25.7016 35.1593 25.9182" fill="#CCCCCC"/>
<path d="M34.7168 26.5112C34.3986 26.4758 34.0951 26.3581 33.8362 26.1698C33.7536 26.1123 33.6629 26.0674 33.567 26.0368C33.3845 25.9729 33.3185 25.9192 33.2958 25.5666C33.2958 25.4913 33.2855 25.417 33.2793 25.3417C33.2545 25.0858 33.2465 24.8284 33.2556 24.5714V24.5013L33.3257 24.4951C33.9132 24.434 34.5032 24.5851 34.9891 24.921C35.1133 25.0061 35.2175 25.1173 35.2945 25.2468C35.3714 25.3762 35.4192 25.5209 35.4346 25.6707C35.4277 25.7328 35.4052 25.7922 35.3691 25.8432C35.3331 25.8943 35.2846 25.9353 35.2283 25.9626C35.2309 26.0628 35.2064 26.1618 35.1574 26.2493C35.1084 26.3368 35.0367 26.4094 34.9499 26.4596C34.877 26.4939 34.7974 26.5115 34.7168 26.5112V26.5112ZM33.4144 24.6549C33.4112 24.8814 33.4201 25.1079 33.4412 25.3335L33.4577 25.5604C33.4752 25.8378 33.5 25.846 33.6196 25.8883C33.7297 25.9235 33.834 25.9749 33.929 26.0409C34.2445 26.2596 34.6643 26.4297 34.8891 26.3183C35.0056 26.2606 35.0695 26.1245 35.0798 25.912V25.8636L35.1242 25.8429C35.1639 25.8296 35.1991 25.8054 35.2259 25.7732C35.2527 25.7409 35.2699 25.7019 35.2758 25.6604C35.2943 25.4645 35.0633 25.1798 34.8963 25.0581C34.4634 24.757 33.9403 24.6135 33.4144 24.6518V24.6549Z" fill="black"/>
<path fill-rule="evenodd" clip-rule="evenodd" d="M35.1591 25.912C35.0296 25.8833 34.9116 25.8169 34.8198 25.7212Z" fill="#AFAFAF"/>
<path d="M35.159 25.9925C35.1498 25.9941 35.1404 25.9941 35.1312 25.9925L35.0786 25.9739C34.9528 25.9423 34.8398 25.8728 34.7548 25.7749C34.7471 25.7665 34.7413 25.7565 34.7376 25.7458C34.734 25.735 34.7327 25.7235 34.7338 25.7122C34.7348 25.7008 34.7383 25.6899 34.7438 25.6799C34.7494 25.67 34.757 25.6613 34.7662 25.6545C34.7753 25.6477 34.7857 25.6429 34.7968 25.6404C34.808 25.6379 34.8195 25.6377 34.8306 25.6399C34.8418 25.6421 34.8524 25.6466 34.8617 25.6532C34.871 25.6597 34.8789 25.6682 34.8847 25.6779C34.9513 25.7495 35.0379 25.7995 35.1333 25.8213L35.1879 25.8409C35.2051 25.8479 35.2194 25.8607 35.2283 25.877C35.2373 25.8933 35.2404 25.9121 35.2371 25.9305C35.2339 25.9488 35.2245 25.9654 35.2105 25.9776C35.1964 25.9898 35.1787 25.9969 35.1601 25.9976L35.159 25.9925Z" fill="black"/>
<path fill-rule="evenodd" clip-rule="evenodd" d="M24.5062 10.4773C27.7712 10.4773 30.8319 10.9445 32.4273 14.0815C33.8597 17.597 33.3502 21.389 33.5689 25.1045C33.7565 28.2952 34.1721 31.9809 32.6923 34.9385C31.1351 38.0488 27.2442 38.8315 24.038 38.7171C21.5197 38.6273 18.4786 37.8054 17.0575 35.5047C15.39 32.8059 16.1799 28.7923 16.3006 25.7893C16.4439 22.2325 15.3374 18.6634 16.5068 15.1829C17.7196 11.5735 20.9886 10.7557 24.5073 10.4773" fill="#A8A8A8"/>
<path d="M24.5962 38.8067C24.3899 38.8067 24.2043 38.8068 24.0362 38.7964C22.4893 38.7408 18.6985 38.3128 16.9897 35.5459C15.6418 33.3638 15.8821 30.3474 16.0935 27.6858C16.1471 27.0165 16.1966 26.3833 16.2214 25.7852C16.2455 24.5228 16.1914 23.2602 16.0595 22.0046C15.7087 19.7206 15.8352 17.3887 16.4307 15.1561C16.6775 14.3604 17.0874 13.6249 17.6342 12.9965C18.1811 12.3682 18.853 11.8607 19.607 11.5065C21.1532 10.8304 22.8136 10.4535 24.5003 10.3958H24.5065C27.6941 10.3958 30.8693 10.8382 32.4997 14.0444V14.0506C33.3692 16.6249 33.7347 19.3426 33.5763 22.0551C33.5815 23.0544 33.5876 24.0887 33.6464 25.0994C33.664 25.4087 33.6846 25.7181 33.7052 26.0275C33.895 28.9573 34.1095 32.2789 32.7616 34.9715C31.0817 38.3344 26.8412 38.8067 24.5962 38.8067V38.8067ZM24.5096 10.5577C21.1126 10.8269 17.8064 11.5766 16.5823 15.2076C15.9947 17.4196 15.8708 19.7291 16.2183 21.9912C16.3497 23.2538 16.4028 24.5232 16.3771 25.7924C16.3524 26.3946 16.3029 27.0299 16.2492 27.7002C16.043 30.3371 15.8017 33.3257 17.1217 35.4624C18.7902 38.1632 22.5131 38.5819 24.0362 38.6356C26.0183 38.7067 30.8208 38.484 32.6141 34.9014C33.9424 32.248 33.7289 28.9501 33.5423 26.0409L33.4835 25.1128C33.4237 24.098 33.4185 23.0616 33.4134 22.0603C33.5707 19.3697 33.2097 16.674 32.3501 14.1197C30.7631 10.9898 27.6435 10.5588 24.5096 10.5577V10.5577Z" fill="black"/>
<path fill-rule="evenodd" clip-rule="evenodd" d="M25.0829 14.8601C25.6686 18.2632 31.2395 17.3671 30.4392 13.932C29.7173 10.8506 24.888 11.7035 25.0829 14.8601Z" fill="white"/>
<path d="M27.7291 17.0835C27.3825 17.0847 27.0382 17.0283 26.7102 16.9164C26.2637 16.7687 25.8673 16.499 25.5661 16.1378C25.2648 15.7766 25.0707 15.3383 25.0056 14.8725V14.8642C24.9645 14.1521 25.2012 13.4518 25.6658 12.9106C26.1305 12.3694 26.7869 12.0294 27.4971 11.9623C28.1555 11.8256 28.8412 11.9536 29.4061 12.3185C29.9709 12.6834 30.3694 13.256 30.5155 13.9124C30.6364 14.3398 30.6355 14.7925 30.5128 15.2194C30.3902 15.6463 30.1508 16.0305 29.8215 16.3286C29.2382 16.8248 28.4949 17.093 27.7291 17.0835V17.0835ZM25.1613 14.8508C25.2232 15.2878 25.4058 15.6988 25.6885 16.0377C25.9713 16.3765 26.343 16.6298 26.7618 16.7689C27.2608 16.9363 27.7944 16.9729 28.3116 16.8754C28.8288 16.7779 29.3124 16.5496 29.7163 16.2121C30.0252 15.932 30.2494 15.571 30.3637 15.17C30.478 14.7691 30.4777 14.3441 30.3629 13.9433C30.2235 13.3257 29.8464 12.7878 29.3133 12.4462C28.7802 12.1046 28.134 11.9867 27.5146 12.118C26.8453 12.1814 26.2266 12.5014 25.7879 13.0108C25.3493 13.5202 25.1247 14.1795 25.1613 14.8508V14.8508Z" fill="black"/>
<path fill-rule="evenodd" clip-rule="evenodd" d="M18.4272 15.4108C19.1862 18.3777 23.9362 17.6146 23.7567 14.6425C23.5422 11.0785 17.7002 11.7664 18.4262 15.4108" fill="white"/>
<path d="M20.9608 17.3681C20.4778 17.3727 20.0011 17.2572 19.5738 17.0319C19.2687 16.8663 19.0022 16.6379 18.7918 16.3619C18.5813 16.0858 18.4317 15.7684 18.3528 15.4303C18.2356 14.9685 18.2535 14.4827 18.4045 14.0307C18.5555 13.5787 18.8333 13.1797 19.2046 12.8811C19.6526 12.5394 20.1829 12.322 20.7418 12.2506C21.3007 12.1793 21.8686 12.2566 22.3881 12.4748C22.8109 12.6595 23.1718 12.9618 23.4277 13.3457C23.6837 13.7297 23.824 14.179 23.8318 14.6404C23.8558 15.3055 23.6246 15.9547 23.1856 16.4549C22.7465 16.9551 22.1329 17.2685 21.4703 17.3309C21.3017 17.3565 21.1313 17.3689 20.9608 17.3681V17.3681ZM18.5013 15.3943C18.6647 16.0161 19.0638 16.5498 19.6139 16.8826C20.1639 17.2154 20.822 17.3211 21.4486 17.1773C22.0733 17.1198 22.6524 16.8257 23.0674 16.3553C23.4825 15.8848 23.702 15.2736 23.6813 14.6466C23.6747 14.2127 23.5434 13.7899 23.3032 13.4286C23.0629 13.0673 22.7237 12.7827 22.3262 12.6088C21.8323 12.4012 21.2925 12.3276 20.761 12.3953C20.2296 12.463 19.7255 12.6697 19.2995 12.9945C18.9505 13.276 18.6898 13.6518 18.5483 14.0773C18.4067 14.5027 18.3904 14.9598 18.5013 15.3943V15.3943Z" fill="black"/>
<path fill-rule="evenodd" clip-rule="evenodd" d="M25.7551 18.949C25.8039 19.4181 25.8094 19.8907 25.7716 20.3608C25.6582 20.5742 25.4364 20.5969 25.2456 20.6835C25.1156 20.6631 24.9929 20.6099 24.8892 20.5289C24.7854 20.4479 24.704 20.3417 24.6527 20.2205C24.6242 19.6878 24.6384 19.1536 24.695 18.6231L25.7551 18.949Z" fill="white"/>
<path d="M25.2571 20.7671H25.2334C25.0893 20.7442 24.9534 20.6849 24.8388 20.5946C24.7242 20.5043 24.6346 20.3862 24.5786 20.2515V20.2298C24.5442 19.865 24.5473 19.4977 24.5879 19.1336C24.6013 18.9655 24.6147 18.7922 24.6198 18.618V18.5148L25.8377 18.8881V18.948C25.8377 19.0944 25.8501 19.246 25.8625 19.4058C25.9003 19.7277 25.8976 20.053 25.8542 20.3742V20.3865L25.848 20.3979C25.8011 20.4753 25.7392 20.5426 25.6658 20.5957C25.5925 20.6489 25.5093 20.6868 25.4211 20.7073C25.3726 20.7248 25.3273 20.7403 25.2829 20.7609L25.2571 20.7671ZM24.7322 20.1989C24.7775 20.3013 24.8469 20.3912 24.9346 20.4609C25.0222 20.5306 25.1255 20.578 25.2355 20.599C25.2778 20.5815 25.3211 20.566 25.3623 20.5505C25.4966 20.5227 25.6152 20.4449 25.6944 20.3329C25.7312 20.0291 25.7312 19.722 25.6944 19.4182C25.6841 19.2769 25.6738 19.1418 25.6707 19.0057L24.7683 18.7293C24.7611 18.8696 24.7508 19.0088 24.7405 19.1418C24.7012 19.4929 24.6977 19.8471 24.7302 20.1989H24.7322Z" fill="black"/>
<path d="M19.7369 15.7955C20.18 15.7955 20.5392 15.4067 20.5392 14.9272C20.5392 14.4476 20.18 14.0588 19.7369 14.0588C19.2938 14.0588 18.9346 14.4476 18.9346 14.9272C18.9346 15.4067 19.2938 15.7955 19.7369 15.7955Z" fill="black"/>
<path d="M20.1018 15.3437C20.206 15.3437 20.2905 15.2449 20.2905 15.123C20.2905 15.0011 20.206 14.9023 20.1018 14.9023C19.9976 14.9023 19.9131 15.0011 19.9131 15.123C19.9131 15.2449 19.9976 15.3437 20.1018 15.3437Z" fill="white"/>
<path d="M26.4564 15.5788C26.8921 15.5788 27.2453 15.1901 27.2453 14.7105C27.2453 14.231 26.8921 13.8422 26.4564 13.8422C26.0207 13.8422 25.6675 14.231 25.6675 14.7105C25.6675 15.1901 26.0207 15.5788 26.4564 15.5788Z" fill="black"/>
<path d="M26.8153 15.1272C26.9178 15.1272 27.0009 15.0284 27.0009 14.9065C27.0009 14.7846 26.9178 14.6858 26.8153 14.6858C26.7127 14.6858 26.6296 14.7846 26.6296 14.9065C26.6296 15.0284 26.7127 15.1272 26.8153 15.1272Z" fill="white"/>
<path fill-rule="evenodd" clip-rule="evenodd" d="M23.4627 18.9005C23.1131 19.7482 23.6576 21.4446 24.6074 20.1937C24.579 19.661 24.5931 19.1268 24.6497 18.5963L23.4627 18.9005Z" fill="white"/>
<path d="M23.9733 20.7217C23.8913 20.7213 23.8109 20.6993 23.7402 20.6578C23.5127 20.4273 23.358 20.1349 23.2954 19.8171C23.2329 19.4993 23.2653 19.1702 23.3886 18.8706L23.404 18.8335L24.7302 18.4911V18.5943C24.7251 18.7696 24.7106 18.9449 24.6972 19.1099C24.6572 19.463 24.6537 19.8193 24.6869 20.1731V20.2061L24.6673 20.2329C24.394 20.6052 24.1579 20.7217 23.9733 20.7217ZM23.5237 18.9686C23.4253 19.2287 23.401 19.511 23.4534 19.7841C23.5058 20.0571 23.633 20.3103 23.8207 20.5155C24.0661 20.6557 24.3363 20.4124 24.5229 20.17C24.4932 19.816 24.4977 19.46 24.5363 19.1068C24.5467 18.9738 24.557 18.8376 24.5642 18.7026L23.5237 18.9686Z" fill="black"/>
<path fill-rule="evenodd" clip-rule="evenodd" d="M23.5824 17.2671C23.4197 17.2824 23.2629 17.3361 23.125 17.4239C22.9871 17.5118 22.8721 17.6311 22.7894 17.7721C22.7067 17.9131 22.6587 18.0718 22.6494 18.235C22.6401 18.3982 22.6697 18.5613 22.7358 18.7108C23.1844 19.5234 24.1868 18.6386 24.8117 18.7222C25.5336 18.7366 26.1193 19.4822 26.6958 18.8572C27.3372 18.1622 26.4194 17.4847 25.7017 17.1825L23.5824 17.2671Z" fill="#CCCCCC"/>
<path d="M26.1821 19.1882C25.9518 19.1702 25.7273 19.1075 25.521 19.0037C25.2988 18.8932 25.0578 18.8253 24.8105 18.8036H24.8012C24.5482 18.8038 24.298 18.8572 24.067 18.9603C23.5606 19.1357 22.9862 19.3337 22.6645 18.7541C22.5865 18.6082 22.5469 18.4448 22.5494 18.2794C22.552 18.114 22.5965 17.9519 22.6789 17.8084C22.7657 17.6394 22.893 17.4945 23.0493 17.3866C23.2057 17.2786 23.3863 17.211 23.5751 17.1897L25.717 17.0989L25.7335 17.1062C26.2666 17.331 26.874 17.7424 26.9782 18.223C26.9922 18.339 26.9824 18.4567 26.9495 18.5689C26.9166 18.681 26.8612 18.7853 26.7868 18.8754C26.7123 18.9655 26.6203 19.0395 26.5163 19.0929C26.4124 19.1463 26.2987 19.1781 26.1821 19.1862V19.1882ZM24.8177 18.6458C25.0842 18.6677 25.3442 18.7398 25.5839 18.8583C25.9892 19.0284 26.3058 19.1625 26.6368 18.8067C26.7107 18.7386 26.7662 18.6531 26.7983 18.5579C26.8304 18.4628 26.838 18.3611 26.8204 18.2622C26.7307 17.8497 26.1583 17.4692 25.686 17.2681L23.5864 17.3516C23.4252 17.3719 23.2714 17.431 23.1381 17.5239C23.0048 17.6167 22.8961 17.7406 22.8212 17.8848C22.7518 18.0045 22.714 18.1399 22.7113 18.2782C22.7086 18.4166 22.7411 18.5534 22.8058 18.6757C23.0615 19.1387 23.5276 18.9789 24.0123 18.8098C24.2657 18.6974 24.5405 18.6415 24.8177 18.6458V18.6458Z" fill="#212121"/>
<path fill-rule="evenodd" clip-rule="evenodd" d="M23.5008 17.233C23.4523 16.1038 25.6066 15.9646 25.8644 16.9082C26.1222 17.8518 23.6101 18.0714 23.5039 17.2341L23.5008 17.233Z" fill="black"/>
<circle cx="25" cy="25" r="24.5" stroke="black"/>
</svg>
