<svg width="50" height="50" viewBox="0 0 50 50" fill="none" xmlns="http://www.w3.org/2000/svg">
<g clip-path="url(#clip0_126_2418)">
<path d="M11.6001 11.2H38.774V38.3739H11.6001V11.2Z" fill="#F7DF1E"/>
<path d="M18.7452 33.9084L20.8247 32.6499C21.2259 33.3612 21.5908 33.9631 22.4662 33.9631C23.3053 33.9631 23.8345 33.6349 23.8345 32.3581V23.6754H26.3881V32.3942C26.3881 35.0391 24.8377 36.243 22.5757 36.243C20.5329 36.243 19.3471 35.1851 18.7451 33.9082" fill="black"/>
<path d="M27.775 33.6348L29.8542 32.431C30.4016 33.3249 31.113 33.9815 32.3715 33.9815C33.4297 33.9815 34.1044 33.4525 34.1044 32.7228C34.1044 31.8473 33.4113 31.5371 32.2438 31.0266L31.6056 30.7527C29.7632 29.9686 28.5411 28.9835 28.5411 26.9041C28.5411 24.9887 30.0003 23.5294 32.2805 23.5294C33.9039 23.5294 35.0713 24.095 35.9103 25.5725L33.9219 26.8494C33.4841 26.0651 33.01 25.755 32.2804 25.755C31.5324 25.755 31.0582 26.2293 31.0582 26.8494C31.0582 27.6155 31.5324 27.9258 32.6268 28.4L33.2652 28.6736C35.4359 29.604 36.658 30.5524 36.658 32.6864C36.658 34.9849 34.8522 36.2434 32.4262 36.2434C30.055 36.2434 28.5227 35.1125 27.7749 33.6349" fill="black"/>
</g>
<circle cx="25" cy="25" r="24.5" stroke="white"/>
<defs>
<clipPath id="clip0_126_2418">
<rect width="27.1739" height="27.1739" fill="white" transform="translate(11.6001 11.2)"/>
</clipPath>
</defs>
</svg>
