<svg width="50" height="50" viewBox="0 0 50 50" fill="none" xmlns="http://www.w3.org/2000/svg">
<circle cx="25" cy="25" r="24.5" stroke="white"/>
<g clip-path="url(#clip0_126_2427)">
<path fill-rule="evenodd" clip-rule="evenodd" d="M42.4431 24.3474C42.4072 24.3546 42.3711 24.4343 42.3711 24.4777C42.3639 24.7676 42.3567 25.5357 42.3567 26.0573C42.3567 26.0719 42.3783 26.1008 42.3999 26.1008C42.5081 26.1081 42.7676 26.1153 42.9911 26.1153C43.3011 26.1153 43.4813 26.0719 43.5823 26.0284C43.8418 25.8979 43.9644 25.6154 43.9644 25.3037C43.9644 24.601 43.4741 24.3329 42.7459 24.3329C42.6955 24.3257 42.5514 24.3257 42.4431 24.3474V24.3474ZM44.3033 27.5862C44.3033 26.8689 43.777 26.4703 42.8253 26.4703C42.782 26.4703 42.4792 26.4631 42.4071 26.4776C42.3855 26.4849 42.3567 26.4994 42.3567 26.5211C42.3567 27.0355 42.3495 27.8543 42.3711 28.1731C42.3855 28.3108 42.4865 28.5064 42.6091 28.5644C42.7388 28.6368 43.0344 28.6513 43.2363 28.6513C43.8058 28.6513 44.3033 28.3325 44.3033 27.5862V27.5862ZM40.9725 23.9489C41.0445 23.9489 41.2608 23.9706 41.8159 23.9706C42.3423 23.9706 42.7604 23.9562 43.2723 23.9562C43.8995 23.9562 44.7646 24.1807 44.7646 25.1227C44.7646 25.5864 44.4402 25.956 44.0148 26.1371C43.9933 26.1443 43.9933 26.1588 44.0148 26.166C44.6204 26.3182 45.154 26.695 45.154 27.405C45.154 28.1007 44.7214 28.5426 44.0941 28.818C43.712 28.9846 43.2363 29.0425 42.7532 29.0425C42.3855 29.0425 41.3978 28.9991 40.8499 29.0136C40.7923 28.9918 40.9004 28.731 40.9508 28.6876C41.0806 28.6803 41.1815 28.673 41.3185 28.6295C41.5132 28.5789 41.5348 28.5209 41.5636 28.2238C41.5781 27.9702 41.5781 27.0717 41.5781 26.4341C41.5781 25.5574 41.5853 24.9633 41.5781 24.6735C41.5709 24.4489 41.4916 24.3764 41.333 24.3329C41.2103 24.3112 41.0085 24.2822 40.8427 24.2605C40.8066 24.2242 40.9291 23.9778 40.9725 23.9489ZM36.8125 28.4557C36.9856 28.5933 37.3245 28.6512 37.6273 28.6512C38.0166 28.6512 38.4059 28.5789 38.7808 28.2382C39.1629 27.8905 39.4296 27.3544 39.4296 26.4994C39.4296 25.6805 39.1196 25.0139 38.4852 24.6228C38.1247 24.398 37.6633 24.304 37.1298 24.304C36.9712 24.304 36.8198 24.3112 36.7261 24.3546C36.7044 24.3692 36.654 24.4343 36.654 24.4705C36.6395 24.6155 36.6395 25.7313 36.6395 26.3834C36.6395 27.0572 36.6395 27.9992 36.654 28.1079C36.654 28.2166 36.7044 28.3832 36.8126 28.4557H36.8125ZM35.176 23.9489C35.313 23.9489 35.8392 23.9706 36.0916 23.9706C36.5459 23.9706 36.8702 23.9489 37.7281 23.9489C38.4491 23.9489 39.0547 24.1445 39.4873 24.514C40.0135 24.9705 40.2876 25.6009 40.2876 26.3689C40.2876 27.463 39.7901 28.0934 39.2926 28.4557C38.7952 28.8252 38.1463 29.0425 37.2235 29.0425C36.7333 29.0425 35.8898 29.0281 35.1904 29.0208H35.1832C35.1472 28.9556 35.2409 28.702 35.2985 28.6948C35.486 28.673 35.5365 28.6657 35.6302 28.6296C35.7816 28.5716 35.8105 28.4919 35.8321 28.2238C35.8537 27.7239 35.8465 27.1225 35.8465 26.4414C35.8465 25.956 35.8537 25.0067 35.8392 24.7024C35.8177 24.4488 35.7095 24.3836 35.4932 24.3401C35.3851 24.3184 35.2409 24.2894 35.0391 24.2677C35.0102 24.2169 35.1399 23.9924 35.176 23.9489V23.9489Z" fill="#8E714E"/>
<path fill-rule="evenodd" clip-rule="evenodd" d="M26.4526 28.7382C26.2724 28.7164 26.1426 28.6876 25.984 28.6151C25.9624 28.6006 25.9263 28.5282 25.9263 28.4991C25.9119 28.2455 25.9119 27.521 25.9119 27.0356C25.9119 26.6442 25.8471 26.3037 25.6812 26.0646C25.4865 25.7892 25.2055 25.6299 24.8449 25.6299C24.5277 25.6299 24.1023 25.8472 23.749 26.1515C23.7419 26.1588 23.6842 26.2096 23.6914 26.1298C23.6914 26.0501 23.7058 25.8907 23.713 25.782C23.7203 25.6805 23.6626 25.6299 23.6626 25.6299C23.4319 25.7458 22.783 25.8979 22.5451 25.9196C22.3721 25.956 22.3288 26.1226 22.5091 26.1805H22.5163C22.7108 26.2385 22.8407 26.3037 22.9415 26.369C23.0137 26.4269 23.0065 26.5066 23.0065 26.5718C23.0137 27.1152 23.0137 27.9485 22.9921 28.405C22.9849 28.5861 22.9344 28.6513 22.8046 28.6803L22.819 28.673C22.7181 28.6948 22.6388 28.7164 22.5162 28.731C22.473 28.7745 22.473 29.0063 22.5162 29.0571C22.5955 29.0571 23.0137 29.0353 23.3598 29.0353C23.8356 29.0353 24.0808 29.0571 24.2033 29.0571C24.2537 28.9991 24.2682 28.7817 24.2394 28.731C24.1023 28.7238 24.0014 28.7093 23.9077 28.6803C23.778 28.6512 23.7419 28.5861 23.7346 28.4339C23.7203 28.0498 23.7203 27.2384 23.7203 26.6877C23.7203 26.5356 23.7635 26.4631 23.8067 26.4196C23.9726 26.2747 24.2394 26.1733 24.4773 26.1733C24.708 26.1733 24.8593 26.2458 24.9747 26.34C25.1333 26.4703 25.1837 26.6588 25.2054 26.7964C25.2414 27.108 25.227 27.7238 25.227 28.26C25.227 28.5498 25.2054 28.6223 25.0973 28.6585C25.0468 28.6803 24.917 28.7093 24.7656 28.7237C24.7151 28.7745 24.7296 28.9991 24.7656 29.0498C24.9747 29.0498 25.2198 29.0281 25.5803 29.0281C26.0273 29.0281 26.3157 29.0498 26.4311 29.0498C26.467 29.0063 26.4815 28.7962 26.4526 28.7382V28.7382ZM28.4497 25.9705C28.0676 25.9705 27.8297 26.2675 27.8297 26.7312C27.8297 27.2022 28.0387 27.7456 28.6299 27.7456C28.7308 27.7456 28.9183 27.7021 29.0048 27.6006C29.1418 27.4703 29.2355 27.2094 29.2355 26.934C29.2355 26.3327 28.9399 25.9704 28.4497 25.9704V25.9705ZM28.3992 29.1729C28.2551 29.1729 28.154 29.2164 28.0892 29.2527C27.7864 29.4482 27.6494 29.6367 27.6494 29.8614C27.6494 30.0714 27.7287 30.238 27.9018 30.383C28.1108 30.5641 28.3992 30.6511 28.7669 30.6511C29.5023 30.6511 29.8267 30.2525 29.8267 29.8614C29.8267 29.5859 29.6897 29.4048 29.4086 29.3034C29.2067 29.2164 28.839 29.1729 28.3992 29.1729V29.1729ZM28.4497 31.0569C28.0099 31.0569 27.6926 30.9627 27.4187 30.7525C27.1519 30.5497 27.0366 30.2453 27.0366 30.0352C27.0366 29.9773 27.0511 29.8178 27.1808 29.6729C27.2601 29.5859 27.4332 29.4193 27.8441 29.1367C27.8585 29.1295 27.8657 29.1223 27.8657 29.1077C27.8657 29.0932 27.8512 29.0787 27.8369 29.0716C27.498 28.9412 27.3971 28.731 27.3682 28.6151V28.6006C27.3611 28.5571 27.3466 28.5136 27.4115 28.4701C27.462 28.4339 27.5341 28.3904 27.6133 28.3398C27.7359 28.2673 27.8657 28.1876 27.945 28.1223C27.9594 28.1079 27.9594 28.0934 27.9594 28.0789C27.9594 28.0644 27.945 28.0498 27.9305 28.0427C27.426 27.876 27.1737 27.4992 27.1737 26.934C27.1737 26.5645 27.3394 26.2312 27.635 26.0211C27.8369 25.8617 28.3415 25.6661 28.6732 25.6661H28.6948C29.0337 25.6733 29.2211 25.7458 29.4878 25.84C29.632 25.8907 29.769 25.9124 29.9565 25.9124C30.2376 25.9124 30.3602 25.8255 30.4611 25.7241C30.4683 25.7386 30.4828 25.7748 30.49 25.869C30.4972 25.9632 30.4683 26.1008 30.3962 26.2023C30.3386 26.282 30.2088 26.34 30.079 26.34H30.043C29.9132 26.3255 29.8555 26.3109 29.8555 26.3109L29.8267 26.3255C29.8195 26.34 29.8267 26.3544 29.8339 26.3762L29.8412 26.3907C29.8555 26.4559 29.8844 26.6515 29.8844 26.7023C29.8844 27.2964 29.6465 27.5572 29.3941 27.7528C29.149 27.934 28.8679 28.0498 28.5506 28.0789C28.5434 28.0789 28.5147 28.0789 28.4497 28.0861C28.4137 28.0861 28.3632 28.0934 28.3559 28.0934H28.3487C28.2911 28.1079 28.1469 28.1803 28.1469 28.3035C28.1469 28.4121 28.2118 28.5426 28.5218 28.5644C28.5866 28.5716 28.6515 28.5716 28.7237 28.5789C29.1346 28.6078 29.6465 28.6441 29.8844 28.7238C30.216 28.8469 30.4251 29.144 30.4251 29.499C30.4251 30.0353 30.043 30.5352 29.4086 30.8467C29.0986 30.9844 28.7885 31.0569 28.4497 31.0569V31.0569ZM32.559 26.0067C32.4077 26.0067 32.2707 26.0428 32.1698 26.1153C31.8887 26.2892 31.7444 26.637 31.7444 27.1442C31.7444 28.0934 32.2202 28.76 32.898 28.76C33.0998 28.76 33.2584 28.702 33.3954 28.5861C33.6044 28.4121 33.7126 28.0644 33.7126 27.5789C33.7126 26.637 33.244 26.0066 32.5591 26.0066L32.559 26.0067ZM32.6889 29.1078C31.4633 29.1078 31.0235 28.2021 31.0235 27.3543C31.0235 26.7602 31.2614 26.3037 31.7372 25.9776C32.0761 25.7675 32.4798 25.6516 32.8403 25.6516C33.7775 25.6516 34.4336 26.3255 34.4336 27.2964C34.4336 27.9557 34.174 28.4774 33.6765 28.7962C33.4387 28.9556 33.0277 29.1078 32.6888 29.1078H32.6889V29.1078ZM19.8415 26.0066C19.6901 26.0066 19.5532 26.0428 19.4522 26.1153C19.1711 26.2892 19.0269 26.637 19.0269 27.1442C19.0269 28.0934 19.5026 28.76 20.1804 28.76C20.3823 28.76 20.5408 28.702 20.6779 28.5861C20.8869 28.4121 20.9951 28.0644 20.9951 27.5789C20.9951 26.637 20.5337 26.0066 19.8415 26.0066ZM19.9713 29.1078C18.7457 29.1078 18.3059 28.2021 18.3059 27.3543C18.3059 26.7602 18.5438 26.3037 19.0196 25.9776C19.3585 25.7675 19.7623 25.6516 20.1227 25.6516C21.06 25.6516 21.716 26.3255 21.716 27.2964C21.716 27.9557 21.4565 28.4774 20.959 28.7962C20.7283 28.9556 20.3173 29.1078 19.9713 29.1078ZM11.7308 29.0353C11.7164 29.0136 11.7019 28.9484 11.7092 28.8687C11.7092 28.8107 11.7237 28.7745 11.7308 28.76C11.8823 28.7382 11.9616 28.7164 12.048 28.6948C12.1923 28.6585 12.2499 28.5789 12.2571 28.3977C12.2788 27.963 12.2788 27.1369 12.2716 26.5645V26.55C12.2716 26.4848 12.2716 26.4051 12.1923 26.3471C12.0769 26.2747 11.9399 26.2096 11.7597 26.1587C11.6948 26.1371 11.6515 26.1008 11.6587 26.0574C11.6587 26.0139 11.702 25.9632 11.7958 25.9487C12.0337 25.9269 12.6536 25.7748 12.8987 25.6661C12.9132 25.6805 12.9348 25.7241 12.9348 25.782L12.9276 25.8617C12.9204 25.9414 12.9132 26.0357 12.9132 26.1298C12.9132 26.1588 12.9421 26.1805 12.9708 26.1805C12.9853 26.1805 12.9998 26.1733 13.0141 26.166C13.4755 25.8037 13.8937 25.6733 14.1099 25.6733C14.4633 25.6733 14.7373 25.84 14.9463 26.1877C14.9607 26.2096 14.9751 26.2168 14.9968 26.2168C15.0112 26.2168 15.0327 26.2096 15.04 26.195C15.4654 25.869 15.8908 25.6733 16.1719 25.6733C16.8423 25.6733 17.2389 26.1733 17.2389 27.021C17.2389 27.2601 17.2389 27.5717 17.2317 27.8543C17.2317 28.1079 17.2245 28.3397 17.2245 28.5064C17.2245 28.5425 17.2749 28.6585 17.3542 28.6803C17.4551 28.731 17.5922 28.7527 17.7724 28.7817H17.7796C17.794 28.8324 17.7652 29.0208 17.7364 29.0571C17.6931 29.0571 17.6282 29.0571 17.5562 29.0498C17.3737 29.0403 17.1909 29.0354 17.0082 29.0353C16.5612 29.0353 16.3305 29.0425 16.1069 29.0571C16.0926 28.9991 16.0854 28.8252 16.1069 28.7817C16.2368 28.76 16.3016 28.7382 16.381 28.7165C16.5252 28.673 16.5612 28.6078 16.5685 28.4194C16.5685 28.2818 16.5973 27.108 16.554 26.8254C16.5108 26.5356 16.2944 26.195 15.8186 26.195C15.6383 26.195 15.3573 26.2675 15.0833 26.4775C15.0689 26.4921 15.0544 26.5283 15.0544 26.55V26.5573C15.0833 26.7094 15.0833 26.8834 15.0833 27.1515V27.6224C15.0833 27.9485 15.076 28.2528 15.0833 28.4846C15.0833 28.6441 15.177 28.6803 15.2563 28.7093C15.2996 28.7164 15.3283 28.7238 15.3644 28.731C15.4293 28.7455 15.4942 28.76 15.5951 28.7817C15.6096 28.8107 15.6096 28.9049 15.588 28.9846C15.5807 29.0281 15.5662 29.0498 15.559 29.0571C15.314 29.0498 15.0616 29.0425 14.694 29.0425C14.5858 29.0425 14.3983 29.0498 14.2398 29.0498C14.1099 29.0498 13.9874 29.0571 13.9154 29.0571C13.9081 29.0425 13.8937 28.9919 13.8937 28.9121C13.8937 28.8469 13.9081 28.7962 13.9226 28.7817C13.9586 28.7745 13.9874 28.7672 14.0235 28.7672C14.1099 28.7527 14.1821 28.7382 14.2541 28.7238C14.3768 28.6876 14.42 28.6223 14.4272 28.4629C14.4488 28.1006 14.4705 27.0645 14.42 26.8036C14.3335 26.3834 14.0956 26.1733 13.7134 26.1733C13.49 26.1733 13.2087 26.282 12.9781 26.456C12.942 26.4849 12.9132 26.5572 12.9132 26.6225V27.05C12.9132 27.5717 12.9132 28.2238 12.9204 28.5064C12.9276 28.5933 12.9564 28.6948 13.1223 28.731C13.1583 28.7382 13.216 28.7527 13.2881 28.76L13.4178 28.7817C13.4323 28.8252 13.4251 28.9991 13.3962 29.0571C13.3241 29.0571 13.2376 29.0498 13.1366 29.0498C12.9853 29.0425 12.7906 29.0353 12.5744 29.0353C12.322 29.0353 12.1418 29.0425 11.9976 29.0498C11.8966 29.0353 11.8173 29.0353 11.7308 29.0353V29.0353Z" fill="#442D22"/>
<path fill-rule="evenodd" clip-rule="evenodd" d="M7.93853 30.7742L7.64298 30.6727C7.64298 30.6727 7.67907 29.1584 7.13829 29.0498C6.7779 28.6295 7.19611 11.2255 8.49376 28.9917C8.49376 28.9917 8.04673 29.2163 7.96743 29.6004C7.88087 29.9772 7.93853 30.7742 7.93853 30.7742V30.7742Z" fill="white"/>
<path fill-rule="evenodd" clip-rule="evenodd" d="M7.93853 30.7742L7.64298 30.6727C7.64298 30.6727 7.67907 29.1584 7.13829 29.0498C6.7779 28.6295 7.19611 11.2255 8.49376 28.9917C8.49376 28.9917 8.04673 29.2163 7.96743 29.6004C7.88087 29.9772 7.93853 30.7742 7.93853 30.7742V30.7742Z" fill="#A6A385"/>
<path fill-rule="evenodd" clip-rule="evenodd" d="M8.09704 29.3106C8.09704 29.3106 10.6853 27.6006 10.0796 24.043C9.49571 21.4564 8.11868 20.6087 7.96728 20.2826C7.80149 20.0507 7.64282 19.645 7.64282 19.645L7.75103 26.8398C7.75103 26.8471 7.52751 29.0425 8.09712 29.3107" fill="white"/>
<path fill-rule="evenodd" clip-rule="evenodd" d="M8.09704 29.3106C8.09704 29.3106 10.6853 27.6006 10.0796 24.043C9.49571 21.4564 8.11868 20.6087 7.96728 20.2826C7.80149 20.0507 7.64282 19.645 7.64282 19.645L7.75103 26.8398C7.75103 26.8471 7.52751 29.0425 8.09712 29.3107" fill="#499D4A"/>
<path fill-rule="evenodd" clip-rule="evenodd" d="M7.4916 29.4048C7.4916 29.4048 5.06191 27.7383 5.20613 24.8039C5.34308 21.8694 7.05894 20.4275 7.39058 20.1667C7.60691 19.9348 7.6141 19.8478 7.62855 19.616C7.77995 19.942 7.75113 24.4923 7.77269 25.0284C7.83753 27.0934 7.65738 29.0136 7.4916 29.4048Z" fill="white"/>
<path fill-rule="evenodd" clip-rule="evenodd" d="M7.4916 29.4048C7.4916 29.4048 5.06191 27.7383 5.20613 24.8039C5.34308 21.8694 7.05894 20.4275 7.39058 20.1667C7.60691 19.9348 7.6141 19.8478 7.62855 19.616C7.77995 19.942 7.75113 24.4923 7.77269 25.0284C7.83753 27.0934 7.65738 29.0136 7.4916 29.4048Z" fill="#58AA50"/>
</g>
<defs>
<clipPath id="clip0_126_2427">
<rect width="40" height="11.4634" fill="white" transform="translate(5.19995 19.6)"/>
</clipPath>
</defs>
</svg>
