<svg width="50" height="50" viewBox="0 0 50 50" fill="none" xmlns="http://www.w3.org/2000/svg">
<circle cx="25" cy="25" r="24.5" stroke="black"/>
<g clip-path="url(#clip0_124_2289)">
<path fill-rule="evenodd" clip-rule="evenodd" d="M42.4431 24.3473C42.4072 24.3546 42.3711 24.4343 42.3711 24.4777C42.3639 24.7676 42.3567 25.5356 42.3567 26.0573C42.3567 26.0718 42.3783 26.1008 42.3999 26.1008C42.5081 26.108 42.7676 26.1152 42.9911 26.1152C43.3011 26.1152 43.4813 26.0718 43.5823 26.0284C43.8418 25.8979 43.9644 25.6153 43.9644 25.3037C43.9644 24.601 43.4741 24.3328 42.7459 24.3328C42.6955 24.3256 42.5514 24.3256 42.4431 24.3473V24.3473ZM44.3033 27.5862C44.3033 26.8688 43.777 26.4703 42.8253 26.4703C42.782 26.4703 42.4792 26.463 42.4071 26.4775C42.3855 26.4848 42.3567 26.4993 42.3567 26.5211C42.3567 27.0354 42.3495 27.8543 42.3711 28.1731C42.3855 28.3107 42.4865 28.5064 42.6091 28.5643C42.7388 28.6368 43.0344 28.6512 43.2363 28.6512C43.8058 28.6512 44.3033 28.3325 44.3033 27.5862V27.5862ZM40.9725 23.9489C41.0445 23.9489 41.2608 23.9705 41.8159 23.9705C42.3423 23.9705 42.7604 23.9561 43.2723 23.9561C43.8995 23.9561 44.7646 24.1807 44.7646 25.1226C44.7646 25.5863 44.4402 25.9559 44.0148 26.137C43.9933 26.1443 43.9933 26.1587 44.0148 26.1659C44.6204 26.3182 45.154 26.6949 45.154 27.4049C45.154 28.1006 44.7214 28.5426 44.0941 28.8179C43.712 28.9845 43.2363 29.0425 42.7532 29.0425C42.3855 29.0425 41.3978 28.9991 40.8499 29.0136C40.7923 28.9918 40.9004 28.7309 40.9508 28.6875C41.0806 28.6802 41.1815 28.673 41.3185 28.6295C41.5132 28.5788 41.5348 28.5208 41.5636 28.2238C41.5781 27.9702 41.5781 27.0716 41.5781 26.4341C41.5781 25.5574 41.5853 24.9632 41.5781 24.6734C41.5709 24.4489 41.4916 24.3763 41.333 24.3328C41.2103 24.3111 41.0085 24.2821 40.8427 24.2604C40.8066 24.2241 40.9291 23.9778 40.9725 23.9489ZM36.8125 28.4556C36.9856 28.5932 37.3245 28.6511 37.6273 28.6511C38.0166 28.6511 38.4059 28.5788 38.7808 28.2382C39.1629 27.8905 39.4296 27.3543 39.4296 26.4993C39.4296 25.6805 39.1196 25.0139 38.4852 24.6227C38.1247 24.398 37.6633 24.3039 37.1298 24.3039C36.9712 24.3039 36.8198 24.3111 36.7261 24.3546C36.7044 24.3691 36.654 24.4343 36.654 24.4705C36.6395 24.6154 36.6395 25.7312 36.6395 26.3834C36.6395 27.0572 36.6395 27.9991 36.654 28.1078C36.654 28.2166 36.7044 28.3832 36.8126 28.4556H36.8125ZM35.176 23.9488C35.313 23.9488 35.8392 23.9705 36.0916 23.9705C36.5459 23.9705 36.8702 23.9489 37.7281 23.9489C38.4491 23.9489 39.0547 24.1445 39.4873 24.514C40.0135 24.9704 40.2876 25.6009 40.2876 26.3688C40.2876 27.463 39.7901 28.0934 39.2926 28.4556C38.7952 28.8251 38.1463 29.0425 37.2235 29.0425C36.7333 29.0425 35.8898 29.028 35.1904 29.0207H35.1832C35.1472 28.9556 35.2409 28.702 35.2985 28.6947C35.486 28.673 35.5365 28.6657 35.6302 28.6296C35.7816 28.5715 35.8105 28.4918 35.8321 28.2238C35.8537 27.7238 35.8465 27.1224 35.8465 26.4413C35.8465 25.9559 35.8537 25.0066 35.8392 24.7023C35.8177 24.4488 35.7095 24.3835 35.4932 24.34C35.3851 24.3184 35.2409 24.2893 35.0391 24.2676C35.0102 24.2168 35.1399 23.9923 35.176 23.9489V23.9488Z" fill="#6E6E6E"/>
<path fill-rule="evenodd" clip-rule="evenodd" d="M26.4526 28.7381C26.2724 28.7164 26.1426 28.6875 25.984 28.615C25.9624 28.6005 25.9263 28.5281 25.9263 28.4991C25.9119 28.2454 25.9119 27.5209 25.9119 27.0355C25.9119 26.6442 25.8471 26.3037 25.6812 26.0646C25.4865 25.7891 25.2055 25.6298 24.8449 25.6298C24.5277 25.6298 24.1023 25.8472 23.749 26.1515C23.7419 26.1587 23.6842 26.2095 23.6914 26.1297C23.6914 26.05 23.7058 25.8907 23.713 25.7819C23.7203 25.6805 23.6626 25.6298 23.6626 25.6298C23.4319 25.7457 22.783 25.8979 22.5451 25.9195C22.3721 25.9559 22.3288 26.1225 22.5091 26.1805H22.5163C22.7108 26.2384 22.8407 26.3037 22.9415 26.3689C23.0137 26.4268 23.0065 26.5065 23.0065 26.5718C23.0137 27.1151 23.0137 27.9484 22.9921 28.4049C22.9849 28.586 22.9344 28.6512 22.8046 28.6802L22.819 28.673C22.7181 28.6947 22.6388 28.7164 22.5162 28.7309C22.473 28.7744 22.473 29.0063 22.5162 29.057C22.5955 29.057 23.0137 29.0352 23.3598 29.0352C23.8356 29.0352 24.0808 29.057 24.2033 29.057C24.2537 28.999 24.2682 28.7816 24.2394 28.7309C24.1023 28.7237 24.0014 28.7092 23.9077 28.6802C23.778 28.6511 23.7419 28.586 23.7346 28.4339C23.7203 28.0498 23.7203 27.2383 23.7203 26.6877C23.7203 26.5355 23.7635 26.463 23.8067 26.4195C23.9726 26.2747 24.2394 26.1732 24.4773 26.1732C24.708 26.1732 24.8593 26.2457 24.9747 26.3399C25.1333 26.4703 25.1837 26.6587 25.2054 26.7963C25.2414 27.1079 25.227 27.7238 25.227 28.26C25.227 28.5498 25.2054 28.6222 25.0973 28.6584C25.0468 28.6802 24.917 28.7092 24.7656 28.7236C24.7151 28.7744 24.7296 28.999 24.7656 29.0498C24.9747 29.0498 25.2198 29.028 25.5803 29.028C26.0273 29.028 26.3157 29.0498 26.4311 29.0498C26.467 29.0063 26.4815 28.7962 26.4526 28.7381V28.7381ZM28.4497 25.9704C28.0676 25.9704 27.8297 26.2675 27.8297 26.7311C27.8297 27.2021 28.0387 27.7455 28.6299 27.7455C28.7308 27.7455 28.9183 27.702 29.0048 27.6006C29.1418 27.4703 29.2355 27.2093 29.2355 26.934C29.2355 26.3326 28.9399 25.9703 28.4497 25.9703V25.9704ZM28.3992 29.1729C28.2551 29.1729 28.154 29.2164 28.0892 29.2527C27.7864 29.4482 27.6494 29.6366 27.6494 29.8613C27.6494 30.0713 27.7287 30.238 27.9018 30.3829C28.1108 30.564 28.3992 30.651 28.7669 30.651C29.5023 30.651 29.8267 30.2525 29.8267 29.8613C29.8267 29.5859 29.6897 29.4047 29.4086 29.3034C29.2067 29.2164 28.839 29.1729 28.3992 29.1729V29.1729ZM28.4497 31.0568C28.0099 31.0568 27.6926 30.9626 27.4187 30.7525C27.1519 30.5496 27.0366 30.2453 27.0366 30.0352C27.0366 29.9772 27.0511 29.8177 27.1808 29.6729C27.2601 29.5859 27.4332 29.4193 27.8441 29.1367C27.8585 29.1295 27.8657 29.1222 27.8657 29.1076C27.8657 29.0932 27.8512 29.0787 27.8369 29.0715C27.498 28.9411 27.3971 28.7309 27.3682 28.615V28.6005C27.3611 28.557 27.3466 28.5136 27.4115 28.4701C27.462 28.4339 27.5341 28.3904 27.6133 28.3397C27.7359 28.2672 27.8657 28.1875 27.945 28.1223C27.9594 28.1078 27.9594 28.0934 27.9594 28.0788C27.9594 28.0643 27.945 28.0498 27.9305 28.0426C27.426 27.8759 27.1737 27.4991 27.1737 26.934C27.1737 26.5645 27.3394 26.2312 27.635 26.0211C27.8369 25.8617 28.3415 25.666 28.6732 25.666H28.6948C29.0337 25.6732 29.2211 25.7457 29.4878 25.8399C29.632 25.8907 29.769 25.9123 29.9565 25.9123C30.2376 25.9123 30.3602 25.8254 30.4611 25.724C30.4683 25.7385 30.4828 25.7748 30.49 25.8689C30.4972 25.9631 30.4683 26.1008 30.3962 26.2022C30.3386 26.2819 30.2088 26.3399 30.079 26.3399H30.043C29.9132 26.3254 29.8555 26.3109 29.8555 26.3109L29.8267 26.3254C29.8195 26.3399 29.8267 26.3544 29.8339 26.3761L29.8412 26.3906C29.8555 26.4558 29.8844 26.6514 29.8844 26.7022C29.8844 27.2963 29.6465 27.5571 29.3941 27.7528C29.149 27.9339 28.8679 28.0498 28.5506 28.0788C28.5434 28.0788 28.5147 28.0788 28.4497 28.0861C28.4137 28.0861 28.3632 28.0934 28.3559 28.0934H28.3487C28.2911 28.1078 28.1469 28.1803 28.1469 28.3034C28.1469 28.4121 28.2118 28.5426 28.5218 28.5643C28.5866 28.5715 28.6515 28.5715 28.7237 28.5788C29.1346 28.6077 29.6465 28.644 29.8844 28.7237C30.216 28.8468 30.4251 29.1439 30.4251 29.499C30.4251 30.0352 30.043 30.5351 29.4086 30.8466C29.0986 30.9843 28.7885 31.0568 28.4497 31.0568V31.0568ZM32.559 26.0066C32.4077 26.0066 32.2707 26.0427 32.1698 26.1152C31.8887 26.2891 31.7444 26.637 31.7444 27.1441C31.7444 28.0934 32.2202 28.76 32.898 28.76C33.0998 28.76 33.2584 28.7019 33.3954 28.586C33.6044 28.4121 33.7126 28.0643 33.7126 27.5788C33.7126 26.637 33.244 26.0065 32.5591 26.0065L32.559 26.0066ZM32.6889 29.1077C31.4633 29.1077 31.0235 28.202 31.0235 27.3543C31.0235 26.7601 31.2614 26.3037 31.7372 25.9776C32.0761 25.7675 32.4798 25.6516 32.8403 25.6516C33.7775 25.6516 34.4336 26.3254 34.4336 27.2963C34.4336 27.9556 34.174 28.4773 33.6765 28.7962C33.4387 28.9555 33.0277 29.1077 32.6888 29.1077H32.6889V29.1077ZM19.8415 26.0065C19.6901 26.0065 19.5532 26.0427 19.4522 26.1152C19.1711 26.2891 19.0269 26.637 19.0269 27.1441C19.0269 28.0934 19.5026 28.76 20.1804 28.76C20.3823 28.76 20.5408 28.7019 20.6779 28.586C20.8869 28.4121 20.9951 28.0643 20.9951 27.5788C20.9951 26.637 20.5337 26.0065 19.8415 26.0065ZM19.9713 29.1077C18.7457 29.1077 18.3059 28.202 18.3059 27.3543C18.3059 26.7601 18.5438 26.3037 19.0196 25.9776C19.3585 25.7675 19.7623 25.6516 20.1227 25.6516C21.06 25.6516 21.716 26.3254 21.716 27.2963C21.716 27.9556 21.4565 28.4773 20.959 28.7962C20.7283 28.9555 20.3173 29.1077 19.9713 29.1077ZM11.7308 29.0352C11.7164 29.0136 11.7019 28.9483 11.7092 28.8686C11.7092 28.8106 11.7237 28.7744 11.7308 28.76C11.8823 28.7381 11.9616 28.7164 12.048 28.6947C12.1923 28.6584 12.2499 28.5788 12.2571 28.3977C12.2788 27.9629 12.2788 27.1369 12.2716 26.5645V26.55C12.2716 26.4848 12.2716 26.405 12.1923 26.3471C12.0769 26.2747 11.9399 26.2095 11.7597 26.1586C11.6948 26.137 11.6515 26.1008 11.6587 26.0573C11.6587 26.0138 11.702 25.9631 11.7958 25.9486C12.0337 25.9269 12.6536 25.7748 12.8987 25.666C12.9132 25.6805 12.9348 25.724 12.9348 25.782L12.9276 25.8616C12.9204 25.9414 12.9132 26.0356 12.9132 26.1297C12.9132 26.1587 12.9421 26.1805 12.9708 26.1805C12.9853 26.1805 12.9998 26.1732 13.0141 26.1659C13.4755 25.8037 13.8937 25.6732 14.1099 25.6732C14.4633 25.6732 14.7373 25.8399 14.9463 26.1877C14.9607 26.2095 14.9751 26.2167 14.9968 26.2167C15.0112 26.2167 15.0327 26.2095 15.04 26.195C15.4654 25.8689 15.8908 25.6732 16.1719 25.6732C16.8423 25.6732 17.2389 26.1732 17.2389 27.021C17.2389 27.2601 17.2389 27.5716 17.2317 27.8543C17.2317 28.1078 17.2245 28.3397 17.2245 28.5064C17.2245 28.5425 17.2749 28.6584 17.3542 28.6802C17.4551 28.7309 17.5922 28.7527 17.7724 28.7816H17.7796C17.794 28.8324 17.7652 29.0207 17.7364 29.057C17.6931 29.057 17.6282 29.057 17.5562 29.0498C17.3737 29.0402 17.1909 29.0354 17.0082 29.0352C16.5612 29.0352 16.3305 29.0425 16.1069 29.057C16.0926 28.999 16.0854 28.8251 16.1069 28.7816C16.2368 28.76 16.3016 28.7381 16.381 28.7165C16.5252 28.673 16.5612 28.6077 16.5685 28.4194C16.5685 28.2817 16.5973 27.1079 16.554 26.8253C16.5108 26.5355 16.2944 26.195 15.8186 26.195C15.6383 26.195 15.3573 26.2675 15.0833 26.4775C15.0689 26.492 15.0544 26.5282 15.0544 26.55V26.5573C15.0833 26.7093 15.0833 26.8833 15.0833 27.1514V27.6223C15.0833 27.9484 15.076 28.2527 15.0833 28.4845C15.0833 28.644 15.177 28.6802 15.2563 28.7092C15.2996 28.7164 15.3283 28.7237 15.3644 28.7309C15.4293 28.7454 15.4942 28.76 15.5951 28.7816C15.6096 28.8107 15.6096 28.9048 15.588 28.9845C15.5807 29.028 15.5662 29.0497 15.559 29.057C15.314 29.0498 15.0616 29.0425 14.694 29.0425C14.5858 29.0425 14.3983 29.0498 14.2398 29.0498C14.1099 29.0498 13.9874 29.057 13.9154 29.057C13.9081 29.0425 13.8937 28.9918 13.8937 28.9121C13.8937 28.8469 13.9081 28.7962 13.9226 28.7816C13.9586 28.7744 13.9874 28.7672 14.0235 28.7672C14.1099 28.7527 14.1821 28.7381 14.2541 28.7237C14.3768 28.6875 14.42 28.6222 14.4272 28.4629C14.4488 28.1006 14.4705 27.0645 14.42 26.8036C14.3335 26.3833 14.0956 26.1732 13.7134 26.1732C13.49 26.1732 13.2087 26.2819 12.9781 26.4559C12.942 26.4848 12.9132 26.5572 12.9132 26.6224V27.05C12.9132 27.5716 12.9132 28.2238 12.9204 28.5064C12.9276 28.5932 12.9564 28.6947 13.1223 28.7309C13.1583 28.7381 13.216 28.7527 13.2881 28.76L13.4178 28.7816C13.4323 28.8251 13.4251 28.999 13.3962 29.057C13.3241 29.057 13.2376 29.0498 13.1366 29.0498C12.9853 29.0425 12.7906 29.0352 12.5744 29.0352C12.322 29.0352 12.1418 29.0425 11.9976 29.0498C11.8966 29.0352 11.8173 29.0352 11.7308 29.0352V29.0352Z" fill="#442D22"/>
<path fill-rule="evenodd" clip-rule="evenodd" d="M7.93853 30.7742L7.64298 30.6727C7.64298 30.6727 7.67907 29.1584 7.13829 29.0498C6.7779 28.6295 7.19611 11.2255 8.49376 28.9917C8.49376 28.9917 8.04673 29.2163 7.96743 29.6004C7.88087 29.9772 7.93853 30.7742 7.93853 30.7742V30.7742Z" fill="white"/>
<path fill-rule="evenodd" clip-rule="evenodd" d="M7.93853 30.7742L7.64298 30.6727C7.64298 30.6727 7.67907 29.1584 7.13829 29.0498C6.7779 28.6295 7.19611 11.2255 8.49376 28.9917C8.49376 28.9917 8.04673 29.2163 7.96743 29.6004C7.88087 29.9772 7.93853 30.7742 7.93853 30.7742V30.7742Z" fill="#969696"/>
<path fill-rule="evenodd" clip-rule="evenodd" d="M8.09704 29.3106C8.09704 29.3106 10.6853 27.6006 10.0796 24.0429C9.49571 21.4563 8.11868 20.6086 7.96728 20.2825C7.80149 20.0507 7.64282 19.645 7.64282 19.645L7.75103 26.8397C7.75103 26.8471 7.52751 29.0425 8.09712 29.3107" fill="white"/>
<path fill-rule="evenodd" clip-rule="evenodd" d="M8.09704 29.3106C8.09704 29.3106 10.6853 27.6006 10.0796 24.0429C9.49571 21.4563 8.11868 20.6086 7.96728 20.2825C7.80149 20.0507 7.64282 19.645 7.64282 19.645L7.75103 26.8397C7.75103 26.8471 7.52751 29.0425 8.09712 29.3107" fill="#737373"/>
<path fill-rule="evenodd" clip-rule="evenodd" d="M7.4916 29.4047C7.4916 29.4047 5.06191 27.7382 5.20613 24.8038C5.34308 21.8693 7.05894 20.4275 7.39058 20.1666C7.60691 19.9348 7.6141 19.8478 7.62855 19.6159C7.77995 19.942 7.75113 24.4923 7.77269 25.0284C7.83753 27.0934 7.65738 29.0136 7.4916 29.4047Z" fill="white"/>
<path fill-rule="evenodd" clip-rule="evenodd" d="M7.4916 29.4047C7.4916 29.4047 5.06191 27.7382 5.20613 24.8038C5.34308 21.8693 7.05894 20.4275 7.39058 20.1666C7.60691 19.9348 7.6141 19.8478 7.62855 19.6159C7.77995 19.942 7.75113 24.4923 7.77269 25.0284C7.83753 27.0934 7.65738 29.0136 7.4916 29.4047Z" fill="#7D7D7D"/>
</g>
<defs>
<clipPath id="clip0_124_2289">
<rect width="40" height="11.4634" fill="white" transform="translate(5.19995 19.6)"/>
</clipPath>
</defs>
</svg>
