<svg width="50" height="50" viewBox="0 0 50 50" fill="none" xmlns="http://www.w3.org/2000/svg">
<g clip-path="url(#clip0_126_2420)">
<path d="M24.6971 35.4809C24.5969 35.4809 24.5033 35.4543 24.4163 35.4075L23.5271 34.88C23.3933 34.8065 23.4602 34.7798 23.5004 34.7665C23.6809 34.7064 23.7143 34.693 23.9015 34.5862C23.9216 34.5728 23.9484 34.5795 23.9684 34.5929L24.6504 35.0002C24.6771 35.0135 24.7105 35.0135 24.7306 35.0002L27.3983 33.4577C27.4251 33.4443 27.4385 33.4176 27.4385 33.3842V30.3059C27.4385 30.2724 27.4251 30.2458 27.3983 30.2324L24.7306 28.6965C24.7038 28.6831 24.6704 28.6831 24.6504 28.6965L21.9826 30.2324C21.9559 30.2457 21.9424 30.2791 21.9424 30.3058V33.3842C21.9424 33.4109 21.9559 33.4443 21.9826 33.4577L22.7114 33.8783C23.1059 34.0786 23.3532 33.8449 23.3532 33.6112V30.5729C23.3532 30.5329 23.3867 30.4928 23.4335 30.4928H23.7745C23.8146 30.4928 23.8547 30.5262 23.8547 30.5729V33.6112C23.8547 34.1387 23.5672 34.4459 23.0657 34.4459C22.912 34.4459 22.7916 34.4459 22.4506 34.279L21.7486 33.8783C21.5747 33.7782 21.4678 33.5912 21.4678 33.3909V30.3125C21.4678 30.1122 21.5747 29.9252 21.7486 29.825L24.4163 28.2825C24.5835 28.189 24.8109 28.189 24.978 28.2825L27.6457 29.825C27.8196 29.9252 27.9266 30.1122 27.9266 30.3125V33.3909C27.9266 33.5912 27.8196 33.7782 27.6457 33.8783L24.978 35.4209C24.891 35.461 24.7908 35.4809 24.6972 35.4809H24.6971ZM25.5195 33.3642C24.3495 33.3642 24.1088 32.83 24.1088 32.3759C24.1088 32.3358 24.1422 32.2958 24.189 32.2958H24.5367C24.5768 32.2958 24.6102 32.3225 24.6102 32.3626C24.6637 32.7164 24.8175 32.8901 25.5262 32.8901C26.0878 32.8901 26.3286 32.7632 26.3286 32.4627C26.3286 32.2891 26.2617 32.1622 25.3858 32.0754C24.657 32.0019 24.2024 31.8417 24.2024 31.2607C24.2024 30.7198 24.6571 30.3993 25.4193 30.3993C26.2751 30.3993 26.6963 30.6931 26.7498 31.3341C26.7498 31.3542 26.7431 31.3742 26.7298 31.3943C26.7163 31.4076 26.6963 31.421 26.6762 31.421H26.3286C26.2951 31.421 26.2617 31.3943 26.255 31.3609C26.1748 30.9936 25.9675 30.8734 25.4193 30.8734C24.8041 30.8734 24.7306 31.0871 24.7306 31.2473C24.7306 31.441 24.8175 31.5011 25.6466 31.6079C26.469 31.7148 26.8568 31.8684 26.8568 32.4426C26.8501 33.0303 26.3687 33.3642 25.5195 33.3642Z" fill="#539E43"/>
<path d="M16.4197 23.4413C16.4197 23.3211 16.3528 23.2075 16.2459 23.1474L13.4109 21.5181C13.3641 21.4914 13.3106 21.478 13.2572 21.4713H13.2304C13.1769 21.4713 13.1234 21.4914 13.0766 21.5181L10.2417 23.1474C10.1347 23.2075 10.0679 23.321 10.0679 23.4413L10.0746 27.8218C10.0746 27.8818 10.108 27.9419 10.1615 27.9687C10.215 28.0021 10.2818 28.0021 10.3287 27.9687L12.0136 27.0071C12.1205 26.947 12.1874 26.8335 12.1874 26.7133V24.6633C12.1874 24.5431 12.2542 24.4296 12.3612 24.3695L13.0766 23.9554C13.1301 23.922 13.1903 23.9086 13.2505 23.9086C13.3106 23.9086 13.3708 23.922 13.4177 23.9554L14.133 24.3695C14.2401 24.4296 14.3069 24.543 14.3069 24.6633V26.7133C14.3069 26.8335 14.3738 26.947 14.4807 27.0071L16.1656 27.9687C16.2191 28.0021 16.286 28.0021 16.3395 27.9687C16.393 27.9419 16.4264 27.8818 16.4264 27.8218L16.4197 23.4413Z" fill="#333333"/>
<path d="M30.0461 17.4114C29.9926 17.3847 29.9257 17.3847 29.8789 17.4114C29.8254 17.4448 29.792 17.4982 29.792 17.5583V21.8988C29.792 21.9388 29.772 21.9789 29.7318 22.0056C29.6917 22.0256 29.6516 22.0256 29.6115 22.0056L28.9028 21.5983C28.8508 21.5687 28.792 21.5532 28.7323 21.5532C28.6725 21.5532 28.6137 21.5687 28.5617 21.5983L25.7268 23.2343C25.6199 23.2944 25.553 23.4079 25.553 23.5281V26.7934C25.553 26.9136 25.6199 27.0272 25.7268 27.0873L28.5617 28.7233C28.6137 28.7528 28.6725 28.7684 28.7323 28.7684C28.792 28.7684 28.8508 28.7528 28.9028 28.7233L31.7377 27.0873C31.8446 27.0272 31.9115 26.9137 31.9115 26.7934V18.6535C31.9115 18.5266 31.8446 18.4131 31.7377 18.353L30.0461 17.4114H30.0461ZM29.7853 25.7184C29.7853 25.7518 29.772 25.7785 29.7452 25.7918L28.7757 26.3527C28.7622 26.3593 28.7473 26.3627 28.7323 26.3627C28.7172 26.3627 28.7023 26.3593 28.6888 26.3527L27.7193 25.7918C27.6925 25.7785 27.6792 25.7451 27.6792 25.7184V24.5965C27.6792 24.5631 27.6925 24.5364 27.7193 24.5231L28.6888 23.9621C28.7023 23.9555 28.7172 23.9521 28.7323 23.9521C28.7473 23.9521 28.7622 23.9555 28.7757 23.9621L29.7452 24.5231C29.772 24.5364 29.7853 24.5698 29.7853 24.5965V25.7184Z" fill="#333333"/>
<path d="M39.4802 24.5698C39.5873 24.5097 39.6474 24.3962 39.6474 24.276V23.4814C39.6474 23.3612 39.5806 23.2477 39.4802 23.1876L36.6654 21.5583C36.6134 21.5287 36.5547 21.5132 36.4949 21.5132C36.4351 21.5132 36.3764 21.5287 36.3244 21.5583L33.4895 23.1942C33.3825 23.2543 33.3157 23.3678 33.3157 23.4881V26.7534C33.3157 26.8736 33.3825 26.9871 33.4895 27.0472L36.3044 28.6498C36.4114 28.7099 36.5384 28.7099 36.6387 28.6498L38.3436 27.7017C38.3971 27.6749 38.4305 27.6148 38.4305 27.5548C38.4305 27.4947 38.3971 27.4346 38.3436 27.4078L35.4953 25.7718C35.4419 25.7385 35.4084 25.685 35.4084 25.6249V24.6033C35.4084 24.5432 35.4419 24.4831 35.4953 24.4563L36.3846 23.9488C36.4106 23.9325 36.4408 23.9238 36.4715 23.9238C36.5023 23.9238 36.5324 23.9325 36.5584 23.9488L37.4477 24.4563C37.5012 24.4897 37.5346 24.5431 37.5346 24.6033V25.4046C37.5346 25.4647 37.568 25.5248 37.6215 25.5515C37.675 25.5848 37.7418 25.5848 37.7953 25.5515L39.4802 24.5698V24.5698Z" fill="#333333"/>
<path d="M36.4515 24.4162C36.4614 24.4097 36.473 24.4062 36.4849 24.4062C36.4968 24.4062 36.5084 24.4097 36.5183 24.4162L37.0599 24.7301C37.08 24.7434 37.0934 24.7634 37.0934 24.7902V25.4179C37.0934 25.4446 37.08 25.4646 37.0599 25.478L36.5183 25.7918C36.5084 25.7983 36.4968 25.8018 36.4849 25.8018C36.473 25.8018 36.4614 25.7983 36.4515 25.7918L35.9099 25.478C35.8898 25.4646 35.8765 25.4446 35.8765 25.4179V24.7902C35.8765 24.7634 35.8898 24.7434 35.9099 24.7301L36.4515 24.4162V24.4162Z" fill="#539E43"/>
<mask id="mask0_126_2420" style="mask-type:alpha" maskUnits="userSpaceOnUse" x="17" y="21" width="8" height="8">
<path d="M21.1602 21.5716C21.1082 21.542 21.0495 21.5265 20.9897 21.5265C20.9299 21.5265 20.8711 21.542 20.8192 21.5716L18.0043 23.1941C17.8973 23.2542 17.8372 23.3677 17.8372 23.4879V26.7399C17.8372 26.8601 17.904 26.9737 18.0043 27.0337L20.8192 28.6564C20.8711 28.6859 20.9299 28.7015 20.9897 28.7015C21.0495 28.7015 21.1082 28.6859 21.1602 28.6564L23.9751 27.0337C24.082 26.9737 24.1423 26.8601 24.1423 26.7399V23.488C24.1423 23.3678 24.0753 23.2543 23.9751 23.1942L21.1602 21.5716Z" fill="white"/>
</mask>
<g mask="url(#mask0_126_2420)">
<path d="M21.1602 21.5716C21.1082 21.542 21.0495 21.5265 20.9897 21.5265C20.9299 21.5265 20.8711 21.542 20.8192 21.5716L18.0043 23.1941C17.8973 23.2542 17.8372 23.3677 17.8372 23.4879V26.7399C17.8372 26.8601 17.904 26.9737 18.0043 27.0337L20.8192 28.6564C20.8711 28.6859 20.9299 28.7015 20.9897 28.7015C21.0495 28.7015 21.1082 28.6859 21.1602 28.6564L23.9751 27.0337C24.082 26.9737 24.1423 26.8601 24.1423 26.7399V23.488C24.1423 23.3678 24.0753 23.2543 23.9751 23.1942L21.1602 21.5716Z" fill="url(#paint0_linear_126_2420)"/>
<path d="M23.9819 23.1942L21.1536 21.5716C21.1259 21.5576 21.0967 21.5464 21.0667 21.5382L17.8975 26.9605C17.9237 26.9925 17.9554 27.0196 17.9911 27.0406L20.8193 28.6633C20.8996 28.71 20.9932 28.7234 21.0801 28.6966L24.0554 23.2611C24.0354 23.2344 24.0086 23.2143 23.9819 23.1943V23.1942Z" fill="url(#paint1_linear_126_2420)"/>
<path fill-rule="evenodd" clip-rule="evenodd" d="M23.9885 27.0338C24.0688 26.9871 24.1289 26.9069 24.1557 26.8201L21.0532 21.5315C20.973 21.5181 20.8861 21.5248 20.8126 21.5715L18.0044 23.1875L21.0332 28.7032C21.0772 28.696 21.12 28.6825 21.1602 28.6632L23.9885 27.0339L23.9885 27.0338Z" fill="url(#paint2_linear_126_2420)"/>
<path fill-rule="evenodd" clip-rule="evenodd" d="M23.9886 27.0337L21.1671 28.6564C21.1272 28.6767 21.0843 28.6902 21.04 28.6964L21.0936 28.7966L24.2226 26.987V26.9469L24.1424 26.8134C24.129 26.9068 24.0689 26.987 23.9886 27.0337V27.0337Z" fill="url(#paint3_linear_126_2420)"/>
<path fill-rule="evenodd" clip-rule="evenodd" d="M23.9886 27.0337L21.1671 28.6564C21.1272 28.6767 21.0843 28.6902 21.04 28.6964L21.0936 28.7966L24.2226 26.987V26.9469L24.1424 26.8134C24.129 26.9068 24.0689 26.987 23.9886 27.0337V27.0337Z" fill="url(#paint4_linear_126_2420)"/>
</g>
</g>
<circle cx="25" cy="25" r="24.5" stroke="white"/>
<defs>
<linearGradient id="paint0_linear_126_2420" x1="22.1365" y1="22.7812" x2="19.0567" y2="27.6265" gradientUnits="userSpaceOnUse">
<stop stop-color="#41873F"/>
<stop offset="0.3288" stop-color="#418B3D"/>
<stop offset="0.6352" stop-color="#419637"/>
<stop offset="0.9319" stop-color="#3FA92D"/>
<stop offset="1" stop-color="#3FAE2A"/>
</linearGradient>
<linearGradient id="paint1_linear_126_2420" x1="20.5624" y1="25.495" x2="28.285" y2="21.2939" gradientUnits="userSpaceOnUse">
<stop offset="0.1376" stop-color="#41873F"/>
<stop offset="0.4032" stop-color="#54A044"/>
<stop offset="0.7136" stop-color="#66B848"/>
<stop offset="0.9081" stop-color="#6CC04A"/>
</linearGradient>
<linearGradient id="paint2_linear_126_2420" x1="17.7344" y1="25.1141" x2="24.2479" y2="25.1141" gradientUnits="userSpaceOnUse">
<stop offset="0.09192" stop-color="#6CC04A"/>
<stop offset="0.2864" stop-color="#66B848"/>
<stop offset="0.5968" stop-color="#54A044"/>
<stop offset="0.8624" stop-color="#41873F"/>
</linearGradient>
<linearGradient id="paint3_linear_126_2420" x1="17.7346" y1="27.8104" x2="24.248" y2="27.8104" gradientUnits="userSpaceOnUse">
<stop offset="0.09192" stop-color="#6CC04A"/>
<stop offset="0.2864" stop-color="#66B848"/>
<stop offset="0.5968" stop-color="#54A044"/>
<stop offset="0.8624" stop-color="#41873F"/>
</linearGradient>
<linearGradient id="paint4_linear_126_2420" x1="25.1969" y1="22.6273" x2="23.5509" y2="31.2636" gradientUnits="userSpaceOnUse">
<stop stop-color="#41873F"/>
<stop offset="0.3288" stop-color="#418B3D"/>
<stop offset="0.6352" stop-color="#419637"/>
<stop offset="0.9319" stop-color="#3FA92D"/>
<stop offset="1" stop-color="#3FAE2A"/>
</linearGradient>
<clipPath id="clip0_126_2420">
<rect width="29.6196" height="18.142" fill="white" transform="translate(10.0544 17.3914)"/>
</clipPath>
</defs>
</svg>
