<svg width="50" height="50" viewBox="0 0 50 50" fill="none" xmlns="http://www.w3.org/2000/svg">
<g clip-path="url(#clip0_124_2281)">
<path d="M34.4076 20.4983C34.0924 20.3901 33.7745 20.2899 33.4542 20.1978C33.508 19.9779 33.5576 19.7608 33.6015 19.5474C34.3233 16.0439 33.8514 13.2213 32.2398 12.292C30.6946 11.4011 28.1676 12.3301 25.6155 14.5512C25.3639 14.7705 25.118 14.9961 24.8779 15.2278C24.7171 15.0737 24.5535 14.9226 24.3872 14.7746C21.7124 12.3997 19.0314 11.3988 17.4215 12.3308C15.8777 13.2244 15.4206 15.8778 16.0703 19.1982C16.135 19.5271 16.208 19.8542 16.2892 20.1794C15.9097 20.2872 15.5435 20.402 15.1931 20.5242C12.0571 21.6175 10.0544 23.331 10.0544 25.1083C10.0544 26.9439 12.2044 28.785 15.4707 29.9014C15.7355 29.9916 16.0025 30.0751 16.2714 30.1519C16.1841 30.5021 16.1065 30.8547 16.0389 31.2092C15.4194 34.472 15.9031 37.0627 17.4428 37.9507C19.033 38.8677 21.702 37.9252 24.3008 35.6534C24.5115 35.4687 24.7176 35.2788 24.9188 35.0838C25.1789 35.3347 25.4459 35.5783 25.7195 35.8143C28.2369 37.9805 30.7231 38.8552 32.2612 37.9648C33.8499 37.0451 34.3663 34.262 33.6959 30.876C33.6431 30.6107 33.5839 30.3468 33.5183 30.0843C33.7058 30.0288 33.8897 29.9717 34.0691 29.9122C37.4647 28.7872 39.674 26.9684 39.674 25.1083C39.674 23.3245 37.6066 21.5995 34.4076 20.4983V20.4983ZM33.6712 28.7112C33.5092 28.7648 33.3431 28.8165 33.1737 28.8668C32.7988 27.6801 32.2929 26.4182 31.6738 25.1144C32.2646 23.8417 32.751 22.5959 33.1154 21.4169C33.4184 21.5046 33.7124 21.5971 33.9958 21.6946C36.7368 22.6383 38.4087 24.0333 38.4087 25.1083C38.4087 26.2532 36.6031 27.7397 33.6712 28.7112V28.7112ZM32.4547 31.1217C32.7511 32.6189 32.7934 33.9726 32.597 35.0309C32.4207 35.9819 32.0659 36.6158 31.6272 36.8698C30.6938 37.4101 28.6976 36.7078 26.5448 34.8552C26.2903 34.6357 26.0419 34.4093 25.8 34.176C26.6347 33.2632 27.4688 32.2021 28.2829 31.0236C29.7148 30.8966 31.0676 30.6888 32.2943 30.4052C32.3547 30.649 32.4084 30.888 32.4547 31.1217V31.1217ZM20.1524 36.7764C19.2404 37.0984 18.5141 37.1077 18.075 36.8545C17.1407 36.3157 16.7523 34.2355 17.2821 31.4452C17.3451 31.1155 17.4172 30.7876 17.4983 30.4619C18.7116 30.7303 20.0545 30.9233 21.4898 31.0397C22.3094 32.1929 23.1676 33.2528 24.0324 34.181C23.8486 34.3588 23.6605 34.5321 23.4682 34.7007C22.3189 35.7052 21.1673 36.418 20.1524 36.7764V36.7764ZM15.88 28.7041C14.4357 28.2104 13.2429 27.5689 12.4254 26.8688C11.6907 26.2397 11.3199 25.615 11.3199 25.1083C11.3199 24.0297 12.9278 22.654 15.6096 21.719C15.9351 21.6056 16.2757 21.4986 16.6292 21.3982C16.9999 22.6038 17.4861 23.8644 18.0728 25.139C17.4784 26.4326 16.9853 27.7133 16.611 28.9331C16.3655 28.8628 16.1218 28.7864 15.88 28.7041V28.7041ZM17.3122 18.9551C16.7555 16.1104 17.1252 13.9645 18.0555 13.4259C19.0464 12.8522 21.2376 13.6701 23.5471 15.7208C23.6977 15.8548 23.8458 15.9916 23.9915 16.131C23.1309 17.0551 22.2806 18.1072 21.4683 19.2535C20.0752 19.3827 18.7418 19.59 17.5158 19.8678C17.4403 19.5654 17.3724 19.2611 17.3122 18.9553V18.9551ZM30.0887 22.1101C29.7991 21.6099 29.4988 21.116 29.188 20.6288C30.133 20.7483 31.0385 20.9069 31.8888 21.1008C31.6336 21.9191 31.3154 22.7744 30.9409 23.6515C30.6671 23.132 30.383 22.6182 30.0887 22.1101V22.1101ZM24.8785 17.0353C25.4621 17.6676 26.0466 18.3735 26.6215 19.1395C25.4552 19.0844 24.287 19.0841 23.1207 19.1388C23.6962 18.3799 24.2857 17.6749 24.8785 17.0353ZM19.6348 22.1188C19.3441 22.6227 19.0653 23.1334 18.7986 23.6504C18.4302 22.7765 18.1149 21.9172 17.8575 21.0874C18.7025 20.8983 19.6037 20.7438 20.5428 20.6264C20.2285 21.1167 19.9257 21.6142 19.6348 22.1186V22.1188ZM20.5697 29.6801C19.5996 29.5718 18.6848 29.4252 17.84 29.2412C18.1015 28.3966 18.4237 27.519 18.8001 26.6264C19.0679 27.1437 19.3479 27.6548 19.6397 28.159C19.9399 28.6773 20.2506 29.185 20.5697 29.6801ZM24.9134 33.2703C24.3136 32.6233 23.7154 31.9075 23.1312 31.1376C23.6984 31.1598 24.2766 31.1711 24.8642 31.1711C25.468 31.1711 26.0647 31.1576 26.6522 31.1314C26.0754 31.9152 25.4931 32.6321 24.9134 33.2703ZM30.9528 26.5808C31.3487 27.4833 31.6824 28.3562 31.9473 29.1864C31.0886 29.3824 30.1614 29.5402 29.1844 29.6574C29.4975 29.1611 29.8006 28.6586 30.0937 28.1503C30.3917 27.6336 30.6781 27.1103 30.9528 26.5808V26.5808ZM28.9977 27.5181C28.549 28.2975 28.0751 29.0621 27.5767 29.8107C26.674 29.8747 25.7692 29.9064 24.8642 29.9059C23.9424 29.9059 23.0459 29.8772 22.1825 29.8212C21.6711 29.0744 21.1882 28.3084 20.7347 27.525H20.7348C20.2835 26.7458 19.8619 25.9497 19.471 25.1385C19.8609 24.327 20.2812 23.5306 20.731 22.7507L20.7309 22.7508C21.1805 21.9708 21.6596 21.2081 22.1671 20.4645C23.0479 20.3978 23.9512 20.3631 24.8641 20.3631H24.8642C25.7813 20.3631 26.6857 20.3982 27.5663 20.4653C28.0687 21.2078 28.5447 21.9679 28.9935 22.744C29.4448 23.5221 29.8706 24.3147 30.2704 25.1205C29.8747 25.9346 29.4502 26.7343 28.9977 27.5181V27.5181ZM31.6079 13.3882C32.5997 13.9602 32.9854 16.2669 32.3622 19.2919C32.3224 19.4849 32.2778 19.6815 32.2292 19.8809C31.0002 19.5972 29.6658 19.3862 28.2687 19.2552C27.4549 18.0962 26.6115 17.0425 25.765 16.1303C25.9868 15.9164 26.214 15.7081 26.4462 15.5055C28.633 13.6026 30.6767 12.8512 31.6079 13.3882V13.3882ZM24.8642 22.4633C26.325 22.4633 27.5092 23.6475 27.5092 25.1083C27.5092 26.569 26.325 27.7532 24.8642 27.7532C23.4035 27.7532 22.2193 26.569 22.2193 25.1083C22.2193 23.6475 23.4035 22.4633 24.8642 22.4633V22.4633Z" fill="#808080"/>
</g>
<circle cx="25" cy="25" r="24.5" stroke="black"/>
<defs>
<clipPath id="clip0_124_2281">
<rect width="29.6196" height="26.3799" fill="white" transform="translate(10.0544 11.9565)"/>
</clipPath>
</defs>
</svg>
