<svg width="50" height="50" viewBox="0 0 50 50" fill="none" xmlns="http://www.w3.org/2000/svg">
<circle cx="25" cy="25" r="24.5" stroke="black"/>
<g clip-path="url(#clip0_124_2286)">
<path fill-rule="evenodd" clip-rule="evenodd" d="M13.8164 21.586H8.01416V24.4841H10.8692C10.918 24.4841 10.9649 24.5035 10.9994 24.5379C11.0339 24.5723 11.0534 24.619 11.0534 24.6676V27.4725H14.0006V21.7698C14.0007 21.7456 13.996 21.7217 13.9867 21.6994C13.9775 21.6771 13.9639 21.6569 13.9468 21.6398C13.9297 21.6227 13.9094 21.6092 13.887 21.5999C13.8646 21.5907 13.8406 21.5859 13.8164 21.5859V21.586Z" fill="#BABABA"/>
<path opacity="0.405" fill-rule="evenodd" clip-rule="evenodd" d="M8.01384 21.5865V24.4846H5.29196C5.27366 24.4846 5.25577 24.4792 5.24057 24.4691C5.22537 24.4589 5.21355 24.4445 5.2066 24.4276C5.19966 24.4107 5.19791 24.3922 5.20158 24.3743C5.20524 24.3564 5.21416 24.3401 5.2272 24.3273L8.01391 21.5865H8.01384ZM11.2103 30.2167C11.1974 30.2294 11.1809 30.238 11.1631 30.2414C11.1453 30.2448 11.1268 30.2429 11.11 30.2359C11.0933 30.229 11.079 30.2172 11.0689 30.2022C11.0588 30.1871 11.0534 30.1694 11.0534 30.1513V27.4729H14.0006L11.2103 30.2162V30.2166V30.2167Z" fill="#BABABA"/>
<path opacity="0.405" fill-rule="evenodd" clip-rule="evenodd" d="M8.01392 24.4841H10.9616C11.012 24.4841 11.0534 24.525 11.0534 24.5757V27.4724H8.19853C8.17433 27.4724 8.15036 27.4676 8.128 27.4584C8.10564 27.4492 8.08533 27.4357 8.06821 27.4187C8.0511 27.4016 8.03752 27.3814 8.02826 27.3591C8.019 27.3368 8.01423 27.313 8.01423 27.2889V24.484H8.01392V24.4841Z" fill="#BABABA"/>
<path fill-rule="evenodd" clip-rule="evenodd" d="M43.7209 21.4032C43.8856 21.5655 44.0799 21.6464 44.3042 21.6464C44.5357 21.6464 44.7336 21.5655 44.8983 21.4031C45.0631 21.2408 45.1452 21.0496 45.1452 20.8285C45.1452 20.6077 45.0631 20.4144 44.8983 20.2487C44.8218 20.1687 44.7295 20.1054 44.6273 20.0626C44.5251 20.0199 44.4151 19.9986 44.3042 20.0001C44.0799 20.0001 43.8856 20.083 43.7209 20.2483C43.5562 20.4144 43.474 20.6074 43.474 20.8288C43.474 21.0496 43.5562 21.2408 43.7209 21.4031V21.4032ZM25.8507 23.5209C25.8506 23.5291 25.8473 23.5369 25.8414 23.5427C25.8356 23.5485 25.8277 23.5517 25.8194 23.5517H24.6625V25.7057C24.6625 25.8851 24.7083 26.0163 24.7992 26.0992C24.8902 26.182 25.0235 26.2284 25.1987 26.2388C25.359 26.2485 25.5543 26.2478 25.785 26.2371L25.8177 26.2354C25.8219 26.2352 25.8261 26.2358 25.8301 26.2373C25.834 26.2387 25.8376 26.2409 25.8407 26.2438C25.8438 26.2467 25.8462 26.2502 25.8479 26.254C25.8496 26.2579 25.8504 26.262 25.8504 26.2662V27.4174C25.8505 27.425 25.8477 27.4324 25.8426 27.4381C25.8374 27.4438 25.8304 27.4474 25.8228 27.4483L25.8016 27.4506C24.8956 27.5456 24.2547 27.4573 23.8795 27.1862C23.4975 26.9101 23.3069 26.4165 23.3069 25.7057V23.5517H22.4232C22.415 23.5517 22.4072 23.5485 22.4014 23.5427C22.3956 23.5369 22.3923 23.529 22.3923 23.5209V22.2986C22.3923 22.2819 22.4061 22.2678 22.4232 22.2678H23.3067V21.4132C23.3067 21.3883 23.3215 21.3662 23.3441 21.3562L24.6191 20.8036C24.6238 20.8015 24.629 20.8006 24.6342 20.801C24.6394 20.8013 24.6444 20.803 24.6487 20.8058C24.6531 20.8086 24.6567 20.8125 24.6591 20.817C24.6616 20.8215 24.6629 20.8266 24.6629 20.8318V22.2677H25.8195C25.8364 22.2677 25.8505 22.2815 25.8505 22.2986V23.5209H25.8508H25.8507ZM28.3093 23.1585C28.4353 22.827 28.6437 22.5785 28.9343 22.4127C29.2211 22.25 29.5454 22.1645 29.8754 22.1644C29.8837 22.1644 29.8917 22.1677 29.8975 22.1735C29.9034 22.1794 29.9067 22.1873 29.9067 22.1955V23.5997C29.9067 23.6067 29.9052 23.6136 29.9023 23.6201C29.8995 23.6265 29.8953 23.6322 29.8901 23.6369C29.8848 23.6416 29.8787 23.6452 29.872 23.6474C29.8653 23.6496 29.8582 23.6503 29.8512 23.6497C29.4601 23.6148 29.1089 23.6997 28.7977 23.904C28.472 24.1177 28.3093 24.4734 28.3093 24.9706V27.4143C28.3093 27.4184 28.3085 27.4225 28.3069 27.4262C28.3054 27.43 28.303 27.4334 28.3001 27.4363C28.2972 27.4392 28.2938 27.4414 28.29 27.443C28.2862 27.4445 28.2821 27.4453 28.278 27.4452H26.984C26.9758 27.4452 26.9679 27.442 26.9621 27.4362C26.9563 27.4304 26.9531 27.4225 26.9531 27.4143V22.2983C26.9531 22.2815 26.9668 22.2674 26.984 22.2674H28.278C28.2948 22.2674 28.3089 22.2812 28.3089 22.2983V23.1579L28.3093 23.1585ZM34.7205 22.2678C34.7164 22.2677 34.7123 22.2685 34.7086 22.27C34.7048 22.2716 34.7013 22.2738 34.6984 22.2767C34.6955 22.2795 34.6932 22.283 34.6916 22.2867C34.69 22.2905 34.6892 22.2945 34.6892 22.2986V22.879C34.2829 22.3747 33.7118 22.1228 32.9759 22.1228C32.2753 22.1228 31.6742 22.3868 31.1734 22.9149C30.6722 23.443 30.4217 24.0902 30.4217 24.8565C30.4217 25.6228 30.6722 26.27 31.1734 26.798C31.6742 27.3262 32.2753 27.5901 32.9759 27.5901C33.7118 27.5901 34.2827 27.3382 34.6892 26.8343V27.4143C34.6892 27.4311 34.7033 27.4452 34.7204 27.4452H36.0142C36.0224 27.4452 36.0303 27.442 36.0362 27.4362C36.042 27.4304 36.0454 27.4226 36.0454 27.4143V22.2983C36.0454 22.2942 36.0446 22.2902 36.043 22.2864C36.0415 22.2826 36.0392 22.2792 36.0363 22.2763C36.0333 22.2735 36.0299 22.2712 36.0261 22.2697C36.0223 22.2681 36.0183 22.2674 36.0142 22.2674H34.7204V22.2678H34.7205ZM32.1878 25.9127C32.461 26.182 32.8075 26.3166 33.2285 26.3166C33.6488 26.3166 33.9974 26.18 34.2742 25.9072C34.551 25.6348 34.6891 25.2846 34.6891 24.8565C34.6891 24.4285 34.551 24.0781 34.2742 23.8054C33.9974 23.533 33.6488 23.3964 33.2282 23.3964C32.8078 23.3964 32.461 23.5329 32.1875 23.8057C31.9146 24.0781 31.7776 24.4284 31.7776 24.8565C31.7776 25.2845 31.9143 25.6366 32.1878 25.9126L32.1878 25.9127ZM42.0727 22.9149C41.5715 22.3868 40.967 22.1228 40.2594 22.1228C39.5235 22.1228 38.956 22.3748 38.5565 22.8787V22.2986C38.5565 22.2904 38.5532 22.2826 38.5474 22.2768C38.5416 22.271 38.5338 22.2678 38.5256 22.2678H37.2316C37.2234 22.2678 37.2155 22.271 37.2097 22.2768C37.2039 22.2826 37.2007 22.2904 37.2007 22.2986V29.4851C37.2007 29.5022 37.2144 29.5163 37.2316 29.5163H38.5256C38.5338 29.5161 38.5416 29.5128 38.5474 29.507C38.5532 29.5012 38.5565 29.4933 38.5565 29.4851V26.8343C38.956 27.3382 39.5235 27.5901 40.2594 27.5901C40.967 27.5901 41.5715 27.3262 42.0727 26.798C42.5735 26.27 42.824 25.6228 42.824 24.8565C42.824 24.0902 42.5735 23.443 42.0727 22.9149V22.9149ZM38.9664 25.9127C39.2399 26.182 39.5864 26.3166 40.0071 26.3166C40.4274 26.3166 40.776 26.18 41.0528 25.9072C41.3297 25.6348 41.4682 25.2846 41.4682 24.8565C41.4682 24.4285 41.3297 24.0781 41.0528 23.8054C40.776 23.533 40.4274 23.3964 40.0071 23.3964C39.5864 23.3964 39.24 23.5329 38.9664 23.8057C38.6933 24.0781 38.5565 24.4284 38.5565 24.8565C38.5565 25.2845 38.6932 25.6366 38.9664 25.9126V25.9127ZM43.6627 27.4452C43.6545 27.4452 43.6466 27.442 43.6408 27.4362C43.6349 27.4304 43.6317 27.4225 43.6317 27.4143V22.2983C43.6317 22.2815 43.6455 22.2674 43.6627 22.2674H44.9566C44.9738 22.2674 44.9876 22.2812 44.9876 22.2983V27.4147C44.9876 27.4229 44.9843 27.4307 44.9785 27.4365C44.9727 27.4423 44.9648 27.4455 44.9566 27.4455H43.6627V27.4452V27.4452ZM19.486 24.0747C19.3001 23.9885 19.2075 23.8761 19.2075 23.7382C19.2075 23.6071 19.2651 23.5034 19.381 23.4276C19.4964 23.3517 19.6419 23.3135 19.8171 23.3135C20.1528 23.3135 20.4065 23.4427 20.5782 23.7007C20.584 23.7095 20.5926 23.7159 20.6026 23.719C20.6127 23.7221 20.6235 23.7215 20.6332 23.7174L21.7775 23.2186C21.7815 23.2168 21.785 23.2142 21.7879 23.211C21.7908 23.2078 21.793 23.204 21.7943 23.1999C21.7956 23.1958 21.7961 23.1915 21.7956 23.1872C21.7952 23.1829 21.7938 23.1787 21.7917 23.175C21.7785 23.153 21.7651 23.1314 21.7513 23.1099C21.5556 22.8063 21.3021 22.5798 20.9837 22.4076C20.6335 22.2177 20.2445 22.1228 19.8171 22.1228C19.2492 22.1228 18.7747 22.2694 18.3925 22.563C18.0109 22.8562 17.82 23.2585 17.82 23.7691C17.82 24.1077 17.9129 24.3888 18.0985 24.6132C18.2778 24.833 18.5115 25.0025 18.7764 25.1051C19.0374 25.2069 19.3041 25.2933 19.5753 25.3638C19.8414 25.4329 20.0677 25.5107 20.2532 25.5969C20.4388 25.6832 20.5317 25.7952 20.5317 25.9335C20.5317 26.2304 20.29 26.3786 19.8067 26.3786C19.3463 26.3786 19.0273 26.2109 18.8498 25.8761C18.8427 25.862 18.8304 25.8511 18.8155 25.8457C18.8006 25.8403 18.7842 25.8407 18.7696 25.8469L17.6286 26.3451C17.6248 26.3468 17.6214 26.3492 17.6185 26.3522C17.6157 26.3552 17.6135 26.3588 17.612 26.3626C17.6106 26.3665 17.6099 26.3707 17.6101 26.3748C17.6103 26.3789 17.6114 26.383 17.6132 26.3867L17.6259 26.4126C18.0247 27.1977 18.7515 27.5901 19.8067 27.5901C20.4092 27.5901 20.912 27.4469 21.3148 27.1607C21.7179 26.8739 21.9193 26.4649 21.9193 25.9334C21.9193 25.5811 21.8264 25.288 21.6408 25.0531C21.4659 24.8264 21.2311 24.6526 20.9628 24.5511C20.7017 24.4526 20.435 24.3696 20.164 24.3025C19.8976 24.2369 19.6716 24.161 19.486 24.0744V24.0747V24.0747Z" fill="#5D5D5D"/>
</g>
<defs>
<clipPath id="clip0_124_2286">
<rect width="40" height="10.3509" fill="white" transform="translate(5.19995 20)"/>
</clipPath>
</defs>
</svg>
