<svg width="50" height="50" viewBox="0 0 50 50" fill="none" xmlns="http://www.w3.org/2000/svg">
<circle cx="25" cy="25" r="24.5" stroke="white"/>
<g clip-path="url(#clip0_126_2426)">
<path d="M11.6001 25V38.4H38.4001V11.6H11.6001V25Z" fill="#007ACC"/>
<path d="M17.5265 25.0889L17.5181 26.1864H21.0063V36.0982H23.4737V26.1864H26.9619V25.1102C26.9619 24.5145 26.9492 24.0168 26.9322 24.004C26.9194 23.9871 24.7967 23.9785 22.223 23.9828L17.5394 23.9956L17.5267 25.0888L17.5265 25.0889Z" fill="white"/>
<path d="M33.2251 23.9644C33.9057 24.1346 34.4247 24.4366 34.9012 24.9301C35.1479 25.1939 35.5137 25.6746 35.5435 25.7894C35.5519 25.8235 34.3864 26.6062 33.6803 27.0443C33.6547 27.0614 33.5526 26.9507 33.4377 26.7805C33.0932 26.2786 32.7316 26.0616 32.1786 26.0234C31.3662 25.968 30.8428 26.3935 30.8471 27.1038C30.8471 27.3123 30.8769 27.4356 30.962 27.6059C31.1407 27.9759 31.4724 28.1971 32.5147 28.648C34.4332 29.4734 35.2542 30.0179 35.7647 30.792C36.3347 31.6557 36.4624 33.0339 36.0752 34.0591C35.6499 35.1736 34.5949 35.9309 33.1102 36.1819C32.6508 36.2627 31.5618 36.2499 31.0683 36.1606C29.9922 35.9691 28.9711 35.4374 28.3415 34.7398C28.0948 34.4675 27.6141 33.7571 27.6439 33.706C27.6567 33.689 27.7672 33.621 27.8905 33.5487C28.0097 33.4806 28.4607 33.221 28.886 32.9743L29.656 32.5276L29.8176 32.7659C30.0431 33.1104 30.5365 33.5827 30.8344 33.74C31.6893 34.191 32.8635 34.1272 33.442 33.6081C33.6888 33.3827 33.7908 33.1488 33.7908 32.8041C33.7908 32.4936 33.7525 32.3575 33.5909 32.1237C33.3826 31.8258 32.9571 31.5748 31.7489 31.0517C30.3664 30.456 29.7708 30.0859 29.2264 29.4988C28.9116 29.1586 28.6137 28.614 28.4904 28.1588C28.3883 27.7803 28.3627 26.8316 28.4436 26.4488C28.7287 25.1129 29.7368 24.1814 31.1917 23.9048C31.6638 23.8156 32.7613 23.8496 33.2251 23.9645V23.9644Z" fill="white"/>
</g>
<defs>
<clipPath id="clip0_126_2426">
<rect width="26.8" height="26.8" fill="white" transform="translate(11.6001 11.6)"/>
</clipPath>
</defs>
</svg>
