<svg width="498" height="225" viewBox="0 0 498 225" fill="none" xmlns="http://www.w3.org/2000/svg">
<path d="M316.937 160.172C316.937 159.325 317.272 158.512 317.87 157.913C318.468 157.314 319.279 156.977 320.124 156.977H345.623C346.468 156.977 347.279 157.314 347.876 157.913C348.474 158.512 348.81 159.325 348.81 160.172C348.81 161.02 348.474 161.832 347.876 162.432C347.279 163.031 346.468 163.368 345.623 163.368H320.124C319.279 163.368 318.468 163.031 317.87 162.432C317.272 161.832 316.937 161.02 316.937 160.172ZM320.124 176.149H345.623C346.468 176.149 347.279 175.812 347.876 175.213C348.474 174.614 348.81 173.801 348.81 172.954C348.81 172.106 348.474 171.293 347.876 170.694C347.279 170.095 346.468 169.758 345.623 169.758H320.124C319.279 169.758 318.468 170.095 317.87 170.694C317.272 171.293 316.937 172.106 316.937 172.954C316.937 173.801 317.272 174.614 317.87 175.213C318.468 175.812 319.279 176.149 320.124 176.149ZM332.873 198.517C331.928 198.517 331.003 198.798 330.217 199.324C329.431 199.851 328.818 200.6 328.456 201.475C328.094 202.351 328 203.315 328.184 204.245C328.369 205.175 328.824 206.029 329.493 206.699C330.161 207.369 331.013 207.826 331.941 208.011C332.868 208.196 333.829 208.101 334.703 207.738C335.577 207.375 336.323 206.761 336.849 205.973C337.374 205.184 337.654 204.258 337.654 203.31C337.654 202.039 337.151 200.819 336.254 199.921C335.357 199.022 334.141 198.517 332.873 198.517ZM364.747 147.391V217.689C364.747 219.384 364.075 221.009 362.88 222.208C361.684 223.406 360.063 224.08 358.372 224.08H307.375C305.684 224.08 304.063 223.406 302.867 222.208C301.672 221.009 301 219.384 301 217.689V147.391C301 145.696 301.672 144.07 302.867 142.872C304.063 141.673 305.684 141 307.375 141H358.372C360.063 141 361.684 141.673 362.88 142.872C364.075 144.07 364.747 145.696 364.747 147.391ZM358.372 147.391H307.375V217.689H358.372V147.391Z" fill="#334155"/>
<path fill-rule="evenodd" clip-rule="evenodd" d="M33.8243 133.234C28.0859 139.908 27.7155 150.748 32.843 157.942V160.444C32.843 161.218 32.778 161.981 32.6578 162.735L25.2817 160.526C25.3992 157.832 24.6149 155.175 23.0529 152.977C21.491 150.779 19.2405 149.165 16.6578 148.389L5.285 144.977C3.40036 151.379 7.00717 158.105 13.4084 160.054L24.7813 163.466L24.7878 163.453L31.8844 165.582C31.5281 166.493 31.0761 167.365 30.5359 168.181C28.7163 170.911 27.8064 174.128 27.8064 177.377V178.27L20.4856 176.077C20.607 173.387 19.8267 170.734 18.2685 168.539C16.7103 166.343 14.4635 164.73 11.8845 163.957L0.511664 160.545C-1.40547 166.946 2.23383 173.673 8.60262 175.622L19.9754 179.034L19.9819 179.005L27.8032 181.348V185.019C21.2694 185.305 14.9748 187.56 9.7464 191.489H4.87233C3.9625 191.489 3.24764 192.204 3.24764 193.114V202.862C3.24764 203.772 3.9625 204.486 4.87233 204.486H6.52302L9.05753 219.713C9.47995 222.183 11.592 223.97 14.0616 223.97H44.4433C46.9128 223.97 49.0574 222.183 49.4473 219.713L52.0078 204.486H53.6098C54.5196 204.486 55.2345 203.772 55.2345 202.862V193.114C55.2345 192.204 54.5196 191.489 53.6098 191.489H48.7389C43.5228 187.57 37.2454 185.316 30.7276 185.023V183.677L35.8909 182.131L35.8974 182.15L47.2702 178.738C53.639 176.789 57.2783 170.063 55.3612 163.661L43.9884 167.073C41.4098 167.851 39.1639 169.466 37.6057 171.662C36.0474 173.859 35.2657 176.512 35.384 179.203L30.7276 180.6V177.374C30.7276 174.644 31.5075 171.98 33.0022 169.705C33.9955 168.201 34.7385 166.547 35.202 164.805L38.5521 163.801L38.5619 163.824L49.9347 160.412C56.3035 158.462 59.9428 151.736 58.0257 145.335L46.6528 148.747C44.07 149.516 41.8193 151.128 40.2598 153.326C38.7003 155.524 37.9218 158.181 38.0485 160.873L35.7284 161.569C35.7537 161.194 35.7667 160.819 35.7674 160.444V156.974C40.349 149.994 40.0631 139.85 34.7926 133.27C34.5262 132.916 34.0875 132.916 33.8243 133.237V133.234ZM9.81789 204.486H48.713L46.2434 219.174L46.2369 219.206C46.1659 219.631 45.9462 220.016 45.617 220.294C45.2877 220.571 44.8705 220.722 44.44 220.72H14.0583C13.6235 220.717 13.204 220.559 12.8744 220.275C12.5449 219.991 12.3265 219.6 12.2582 219.17L9.81789 204.486ZM51.9883 201.211V194.738H6.49702V201.237H6.51976V201.211H51.9883Z" fill="#334155"/>
<path d="M73.3241 147.972H64.4414C63.22 147.972 62.174 147.538 61.3035 146.669C60.4345 145.798 60 144.752 60 143.531V127.986C60 125.21 60.527 122.61 61.5811 120.185C62.6367 117.761 64.0624 115.652 65.8582 113.856C67.6525 112.062 69.7621 110.637 72.1871 109.581C74.6106 108.527 77.2103 108 79.9861 108C82.762 108 85.3624 108.527 87.7874 109.581C90.2109 110.637 92.3205 112.062 94.1163 113.856C95.9106 115.652 97.3356 117.761 98.3911 120.185C99.4452 122.61 99.9723 125.21 99.9723 127.986V143.531C99.9723 144.752 99.5377 145.798 98.6687 146.669C97.7982 147.538 96.7523 147.972 95.5309 147.972H86.6482V130.207H95.5309V127.986C95.5309 123.656 94.0223 119.982 91.0051 116.965C87.9895 113.949 84.3165 112.441 79.9861 112.441C75.6558 112.441 71.9828 113.949 68.9671 116.965C65.9499 119.982 64.4414 123.656 64.4414 127.986V130.207H73.3241V147.972Z" fill="#334155"/>
<path d="M113.231 108V219.252V108ZM79.8555 108H324.609H79.8555ZM113.231 141.376H291.234H113.231ZM224.483 185.876H291.234H224.483ZM291.234 108V219.252V108ZM224.483 108V219.252V108ZM257.858 141.376V152.501V141.376ZM257.858 185.876V197.001V185.876Z" fill="#334155"/>
<path d="M113.231 108V219.252M79.8555 108H324.609M113.231 141.376H291.234M224.483 185.876H291.234M291.234 108V219.252M224.483 108V219.252M257.858 141.376V152.501M257.858 185.876V197.001" stroke="#334155" stroke-width="9.69719" stroke-linecap="round" stroke-linejoin="round"/>
<path d="M139.622 79.5828V95.4993H163.471C164.526 95.4993 165.537 95.9186 166.282 96.6648C167.028 97.411 167.446 98.4231 167.446 99.4785C167.446 100.534 167.028 101.546 166.282 102.292C165.537 103.038 164.526 103.458 163.471 103.458H107.824C106.77 103.458 105.759 103.038 105.013 102.292C104.268 101.546 103.849 100.534 103.849 99.4785C103.849 98.4231 104.268 97.411 105.013 96.6648C105.759 95.9186 106.77 95.4993 107.824 95.4993H131.673V79.5828H95.8993C91.6826 79.5828 87.6385 77.9059 84.6568 74.9209C81.6751 71.936 80 67.8876 80 63.6662V15.9166C80 11.6952 81.6751 7.64678 84.6568 4.66185C87.6385 1.67692 91.6826 0 95.8993 0H175.396C179.613 0 183.657 1.67692 186.638 4.66185C189.62 7.64678 191.295 11.6952 191.295 15.9166V63.6662C191.295 67.8876 189.62 71.936 186.638 74.9209C183.657 77.9059 179.613 79.5828 175.396 79.5828H139.622ZM95.8993 7.95828C93.7909 7.95828 91.7689 8.79674 90.2781 10.2892C88.7872 11.7817 87.9497 13.8059 87.9497 15.9166V63.6662C87.9497 65.7769 88.7872 67.8011 90.2781 69.2936C91.7689 70.786 93.7909 71.6245 95.8993 71.6245H175.396C177.504 71.6245 179.526 70.786 181.017 69.2936C182.508 67.8011 183.346 65.7769 183.346 63.6662V15.9166C183.346 13.8059 182.508 11.7817 181.017 10.2892C179.526 8.79674 177.504 7.95828 175.396 7.95828H95.8993Z" fill="#334155"/>
<path d="M409.884 166.784V120.33C409.884 110.353 420.661 99.0667 442.215 99.0667C463.768 99.0667 474.545 110.353 474.545 120.33V166.784M410.394 189.357C404.16 189.357 399.107 184.304 399.107 178.071C399.107 171.837 404.16 166.784 410.394 166.784H474.036C480.269 166.784 485.322 171.837 485.322 178.071C485.322 184.304 480.269 189.357 474.036 189.357H410.394Z" fill="#334155"/>
<path d="M409.884 166.784V120.33C409.884 110.353 420.661 99.0667 442.215 99.0667C463.768 99.0667 474.545 110.353 474.545 120.33V166.784M485.322 178.071V178.071C485.322 171.837 480.269 166.784 474.036 166.784H410.394C404.16 166.784 399.107 171.837 399.107 178.071V178.071C399.107 184.304 404.16 189.357 410.394 189.357H474.036C480.269 189.357 485.322 184.304 485.322 178.071Z" stroke="#334155" stroke-width="7.75775" stroke-linecap="round" stroke-linejoin="round"/>
<path d="M393.883 139.979V159.835L409.558 167.673H475.917L491.854 159.835V139.979M416.906 221.72H467.35H416.906ZM442.128 189.292V221.72V189.292ZM442.128 86.6831V98.1784V86.6831Z" fill="#334155"/>
<path d="M393.883 139.979V159.835L409.558 167.673H475.917L491.854 159.835V139.979M416.906 221.72H467.35M442.128 189.292V221.72M442.128 86.6831V98.1784" stroke="#334155" stroke-width="5.81831" stroke-linecap="round" stroke-linejoin="round"/>
<path d="M423.887 66.8279C423.887 65.0743 425.308 63.6528 427.062 63.6528H457.367C459.121 63.6528 460.543 65.0743 460.543 66.8279C460.543 76.3729 452.805 84.1108 443.26 84.1108H441.17C431.625 84.1108 423.887 76.3729 423.887 66.8279Z" fill="#334155" stroke="#334155" stroke-width="7.75775"/>
<path d="M399.631 140.45C399.631 140.912 399.257 141.286 398.795 141.286L388.972 141.286C388.51 141.286 388.136 140.912 388.136 140.45C388.136 138.603 389.633 137.106 391.48 137.106L396.287 137.106C398.134 137.106 399.631 138.603 399.631 140.45Z" fill="#334155"/>
<path d="M497.34 140.45C497.34 140.912 496.966 141.286 496.504 141.286L486.681 141.286C486.219 141.286 485.845 140.912 485.845 140.45C485.845 138.603 487.342 137.106 489.189 137.106L493.996 137.106C495.843 137.106 497.34 138.603 497.34 140.45Z" fill="#334155"/>
<path d="M262.688 82.3509C262.366 82.3509 262.088 82.2328 261.853 81.9967C261.618 81.7606 261.5 81.481 261.5 81.1579C261.5 80.8721 261.413 80.6173 261.24 80.3936C261.067 80.17 260.863 79.9836 260.628 79.8344C260.195 79.5362 259.756 79.2379 259.311 78.9397C258.865 78.6414 258.445 78.3183 258.049 77.9704C257.653 77.6224 257.344 77.2186 257.121 76.7588C256.898 76.299 256.775 75.777 256.75 75.193C256.75 74.8699 256.868 74.5903 257.103 74.3542C257.338 74.1181 257.616 74 257.938 74C258.259 74 258.537 74.1181 258.772 74.3542C259.007 74.5903 259.125 74.8699 259.125 75.193C259.125 75.4788 259.212 75.7336 259.385 75.9572C259.558 76.1809 259.762 76.3673 259.997 76.5164C260.418 76.8147 260.857 77.1129 261.314 77.4112C261.772 77.7094 262.193 78.0325 262.576 78.3805C262.96 78.7284 263.269 79.1323 263.504 79.5921C263.739 80.0519 263.863 80.5738 263.875 81.1579C263.875 81.481 263.757 81.7606 263.522 81.9967C263.287 82.2328 263.009 82.3509 262.688 82.3509ZM271 82.3509C270.678 82.3509 270.4 82.2328 270.165 81.9967C269.93 81.7606 269.812 81.481 269.812 81.1579C269.812 80.8721 269.726 80.6173 269.553 80.3936C269.38 80.17 269.175 79.9836 268.94 79.8344C268.507 79.5362 268.068 79.2379 267.623 78.9397C267.178 78.6414 266.757 78.3183 266.361 77.9704C265.965 77.6224 265.656 77.2186 265.434 76.7588C265.211 76.299 265.087 75.777 265.062 75.193C265.062 74.8699 265.18 74.5903 265.415 74.3542C265.65 74.1181 265.928 74 266.25 74C266.572 74 266.85 74.1181 267.085 74.3542C267.32 74.5903 267.438 74.8699 267.438 75.193C267.438 75.4788 267.524 75.7336 267.697 75.9572C267.87 76.1809 268.075 76.3673 268.31 76.5164C268.73 76.8147 269.169 77.1129 269.627 77.4112C270.085 77.7094 270.505 78.0325 270.889 78.3805C271.272 78.7284 271.581 79.1323 271.816 79.5921C272.051 80.0519 272.175 80.5738 272.188 81.1579C272.188 81.481 272.07 81.7606 271.835 81.9967C271.6 82.2328 271.322 82.3509 271 82.3509ZM279.312 82.3509C278.991 82.3509 278.713 82.2328 278.478 81.9967C278.243 81.7606 278.125 81.481 278.125 81.1579C278.125 80.8721 278.038 80.6173 277.865 80.3936C277.692 80.17 277.488 79.9836 277.253 79.8344C276.82 79.5362 276.381 79.2379 275.936 78.9397C275.49 78.6414 275.07 78.3183 274.674 77.9704C274.278 77.6224 273.969 77.2186 273.746 76.7588C273.523 76.299 273.4 75.777 273.375 75.193C273.375 74.8699 273.493 74.5903 273.728 74.3542C273.963 74.1181 274.241 74 274.562 74C274.884 74 275.162 74.1181 275.397 74.3542C275.632 74.5903 275.75 74.8699 275.75 75.193C275.75 75.4788 275.837 75.7336 276.01 75.9572C276.183 76.1809 276.387 76.3673 276.622 76.5164C277.043 76.8147 277.482 77.1129 277.939 77.4112C278.397 77.7094 278.818 78.0325 279.201 78.3805C279.585 78.7284 279.894 79.1323 280.129 79.5921C280.364 80.0519 280.488 80.5738 280.5 81.1579C280.5 81.481 280.382 81.7606 280.147 81.9967C279.912 82.2328 279.634 82.3509 279.312 82.3509ZM281.78 96.0702C281.372 97.0022 280.865 97.8596 280.259 98.6425C279.653 99.4254 278.972 100.159 278.218 100.842H286.438V103.228C286.438 103.787 286.351 104.346 286.178 104.906C286.005 105.465 285.757 105.974 285.436 106.434C285.114 106.894 284.712 107.267 284.229 107.553C283.747 107.838 283.197 107.988 282.578 108H255.859C255.241 108 254.697 107.857 254.227 107.571C253.757 107.285 253.354 106.913 253.021 106.453C252.687 105.993 252.433 105.484 252.26 104.924C252.087 104.365 252 103.8 252 103.228V100.842H259.032C257.573 99.5621 256.435 98.0771 255.618 96.3871C254.802 94.697 254.387 92.8702 254.375 90.9068V84.1404H284.155C284.972 84.1404 285.732 84.2957 286.438 84.6064C287.143 84.917 287.761 85.3458 288.293 85.8925C288.825 86.4393 289.239 87.0731 289.536 87.7939C289.833 88.5146 289.988 89.2851 290 90.1053C290 90.913 289.852 91.6773 289.555 92.398C289.258 93.1188 288.843 93.7526 288.312 94.2993C287.78 94.8461 287.161 95.2749 286.456 95.5855C285.751 95.8962 284.984 96.0577 284.155 96.0702H281.78ZM282.875 86.5263C282.875 87.0482 282.881 87.5702 282.894 88.0921C282.906 88.614 282.912 89.1422 282.912 89.6765C282.912 90.36 282.894 91.0373 282.856 91.7083C282.819 92.3794 282.72 93.038 282.56 93.6842H284.155C284.638 93.6842 285.089 93.591 285.51 93.4046C285.93 93.2182 286.301 92.9572 286.623 92.6217C286.945 92.2862 287.186 91.9072 287.347 91.4846C287.507 91.0621 287.6 90.6023 287.625 90.1053C287.625 89.6206 287.538 89.1608 287.365 88.7259C287.192 88.2909 286.945 87.9119 286.623 87.5888C286.301 87.2657 285.937 87.011 285.528 86.8246C285.12 86.6382 284.662 86.5387 284.155 86.5263H282.875ZM256.75 90.9068C256.75 92.0004 256.911 93.0504 257.232 94.057C257.554 95.0636 258.018 95.9956 258.624 96.8531C259.23 97.7105 259.935 98.4748 260.739 99.1458C261.543 99.8169 262.44 100.382 263.43 100.842H273.82C274.798 100.395 275.694 99.8355 276.511 99.1645C277.327 98.4934 278.032 97.723 278.626 96.8531C279.22 95.9832 279.677 95.0512 279.999 94.057C280.321 93.0629 280.488 92.0128 280.5 90.9068V86.5263H256.75V90.9068ZM282.578 105.614C282.838 105.614 283.061 105.527 283.246 105.353C283.432 105.179 283.586 104.974 283.71 104.738C283.834 104.502 283.92 104.241 283.97 103.955C284.019 103.669 284.05 103.427 284.062 103.228H254.375C254.375 103.439 254.4 103.682 254.449 103.955C254.499 104.228 254.591 104.483 254.728 104.719C254.864 104.955 255.018 105.167 255.191 105.353C255.365 105.539 255.587 105.626 255.859 105.614H282.578Z" fill="#334155"/>
</svg>
