<svg width="50" height="50" viewBox="0 0 50 50" fill="none" xmlns="http://www.w3.org/2000/svg">
<circle cx="25" cy="25" r="24.5" stroke="black"/>
<g clip-path="url(#clip0_124_2291)">
<path d="M29.8666 29.8667C32.4439 29.8667 34.5333 27.7773 34.5333 25.2C34.5333 22.6227 32.4439 20.5333 29.8666 20.5333C27.2893 20.5333 25.2 22.6227 25.2 25.2C25.2 27.7773 27.2893 29.8667 29.8666 29.8667Z" fill="#8C8C8C"/>
<path fill-rule="evenodd" clip-rule="evenodd" d="M20.5334 39.2C21.771 39.2 22.958 38.7084 23.8332 37.8332C24.7084 36.958 25.2 35.771 25.2 34.5334V29.8667H20.5334C19.2957 29.8667 18.1087 30.3584 17.2335 31.2335C16.3584 32.1087 15.8667 33.2957 15.8667 34.5334C15.8667 35.771 16.3584 36.958 17.2335 37.8332C18.1087 38.7084 19.2957 39.2 20.5334 39.2V39.2Z" fill="#6C6C6C"/>
<path fill-rule="evenodd" clip-rule="evenodd" d="M20.5334 29.8667H25.2V20.5333H20.5334C19.2957 20.5333 18.1087 21.025 17.2335 21.9002C16.3584 22.7753 15.8667 23.9623 15.8667 25.2C15.8667 26.4377 16.3584 27.6247 17.2335 28.4998C18.1087 29.375 19.2957 29.8667 20.5334 29.8667V29.8667Z" fill="#ACACAC"/>
<path fill-rule="evenodd" clip-rule="evenodd" d="M20.5334 20.5333H25.2V11.2H20.5334C19.2957 11.2 18.1087 11.6917 17.2335 12.5668C16.3584 13.442 15.8667 14.629 15.8667 15.8667C15.8667 17.1044 16.3584 18.2913 17.2335 19.1665C18.1087 20.0417 19.2957 20.5333 20.5334 20.5333V20.5333Z" fill="#888888"/>
<path fill-rule="evenodd" clip-rule="evenodd" d="M29.8666 20.5333H25.2V11.2H29.8666C31.1043 11.2 32.2913 11.6917 33.1664 12.5668C34.0416 13.442 34.5333 14.629 34.5333 15.8667C34.5333 17.1044 34.0416 18.2913 33.1664 19.1665C32.2913 20.0417 31.1043 20.5333 29.8666 20.5333Z" fill="#B1B1B1"/>
</g>
<defs>
<clipPath id="clip0_124_2291">
<rect width="28" height="28" fill="white" transform="translate(11.2 11.2)"/>
</clipPath>
</defs>
</svg>
