<svg width="50" height="50" viewBox="0 0 50 50" fill="none" xmlns="http://www.w3.org/2000/svg">
<circle cx="25" cy="25" r="24.5" stroke="#444444"/>
<g clip-path="url(#clip0_18_373)">
<path d="M29.8667 29.8667C32.444 29.8667 34.5333 27.7773 34.5333 25.2C34.5333 22.6227 32.444 20.5333 29.8667 20.5333C27.2893 20.5333 25.2 22.6227 25.2 25.2C25.2 27.7773 27.2893 29.8667 29.8667 29.8667Z" fill="#19BCFE"/>
<path fill-rule="evenodd" clip-rule="evenodd" d="M20.5334 39.1999C21.771 39.1999 22.958 38.7082 23.8332 37.8331C24.7084 36.9579 25.2 35.7709 25.2 34.5332V29.8666H20.5334C19.2957 29.8666 18.1087 30.3582 17.2335 31.2334C16.3584 32.1086 15.8667 33.2956 15.8667 34.5332C15.8667 35.7709 16.3584 36.9579 17.2335 37.8331C18.1087 38.7082 19.2957 39.1999 20.5334 39.1999V39.1999Z" fill="#09CF83"/>
<path fill-rule="evenodd" clip-rule="evenodd" d="M20.5334 29.8667H25.2V20.5333H20.5334C19.2957 20.5333 18.1087 21.025 17.2335 21.9002C16.3584 22.7753 15.8667 23.9623 15.8667 25.2C15.8667 26.4377 16.3584 27.6247 17.2335 28.4998C18.1087 29.375 19.2957 29.8667 20.5334 29.8667V29.8667Z" fill="#A259FF"/>
<path fill-rule="evenodd" clip-rule="evenodd" d="M20.5334 20.5333H25.2V11.2H20.5334C19.2957 11.2 18.1087 11.6916 17.2335 12.5668C16.3584 13.442 15.8667 14.6289 15.8667 15.8666C15.8667 17.1043 16.3584 18.2913 17.2335 19.1665C18.1087 20.0416 19.2957 20.5333 20.5334 20.5333V20.5333Z" fill="#F24E1E"/>
<path fill-rule="evenodd" clip-rule="evenodd" d="M29.8667 20.5333H25.2V11.2H29.8667C31.1044 11.2 32.2913 11.6916 33.1665 12.5668C34.0417 13.442 34.5333 14.6289 34.5333 15.8666C34.5333 17.1043 34.0417 18.2913 33.1665 19.1665C32.2913 20.0416 31.1044 20.5333 29.8667 20.5333Z" fill="#FF7262"/>
</g>
<defs>
<clipPath id="clip0_18_373">
<rect width="28" height="28" fill="white" transform="translate(11.2 11.2)"/>
</clipPath>
</defs>
</svg>
