<svg width="50" height="50" viewBox="0 0 50 50" fill="none" xmlns="http://www.w3.org/2000/svg">
<path d="M15.6948 32.8244L15.8522 32.605L23.2756 18.5228L23.2913 18.3737L20.0193 12.2277C19.9594 12.1153 19.8657 12.0246 19.7514 11.9684C19.6371 11.9122 19.508 11.8933 19.3824 11.9145C19.2568 11.9357 19.1411 11.9959 19.0516 12.0864C18.962 12.177 18.9033 12.2935 18.8836 12.4193L15.6948 32.8244Z" fill="#A5A5A5"/>
<path d="M15.7874 32.6578L15.9058 32.4264L23.2524 18.4904L19.9887 12.3202C19.9349 12.2129 19.8477 12.1259 19.7403 12.0723C19.6329 12.0187 19.511 12.0013 19.3929 12.0228C19.2748 12.0443 19.1669 12.1035 19.0852 12.1914C19.0035 12.2794 18.9526 12.3915 18.94 12.5109L15.7874 32.6578Z" fill="#898989"/>
<path d="M25.6765 23.0222L28.1127 20.523L25.6755 15.8755C25.6219 15.7755 25.5421 15.6919 25.4447 15.6336C25.3473 15.5753 25.236 15.5446 25.1225 15.5446C25.009 15.5446 24.8976 15.5753 24.8002 15.6336C24.7028 15.6919 24.6231 15.7755 24.5694 15.8755L23.2671 18.358V18.57L25.6765 23.0222Z" fill="#ABABAB"/>
<path d="M25.6331 22.9203L28.0017 20.4952L25.6331 15.9782C25.5943 15.8804 25.5281 15.796 25.4424 15.735C25.3567 15.674 25.2552 15.6391 25.1501 15.6345C25.045 15.6299 24.9408 15.6558 24.8502 15.7091C24.7595 15.7623 24.6861 15.8407 24.6389 15.9347L23.3301 18.4607L23.2913 18.5894L25.6331 22.9203Z" fill="#878787"/>
<path d="M15.6965 32.8253L15.7678 32.7531L16.0261 32.6485L25.5228 23.1869L25.6432 22.8592L23.2745 18.3441L15.6965 32.8253V32.8253Z" fill="#818181"/>
<path d="M25.9802 37.5969L34.5773 32.8031L32.1207 17.6869C32.1031 17.5804 32.0565 17.4807 31.986 17.3989C31.9154 17.3171 31.8237 17.2564 31.7209 17.2233C31.6181 17.1902 31.5082 17.1861 31.4031 17.2114C31.2981 17.2367 31.2022 17.2904 31.1257 17.3667L15.6948 32.8244L24.241 37.5959C24.5067 37.7442 24.8059 37.822 25.1101 37.822C25.4144 37.822 25.7136 37.7442 25.9793 37.5959" fill="#B3B3B3"/>
<path d="M34.4986 32.7633L32.0624 17.761C32.0581 17.6591 32.0236 17.5607 31.9634 17.4784C31.9032 17.396 31.8199 17.3334 31.7241 17.2984C31.6282 17.2634 31.5242 17.2577 31.4251 17.2818C31.326 17.306 31.2363 17.3591 31.1673 17.4342L15.7874 32.7957L24.2391 37.5163C24.5027 37.6633 24.7995 37.7405 25.1013 37.7405C25.4031 37.7405 25.6999 37.6633 25.9635 37.5163L34.4986 32.7633Z" fill="#9E9E9E"/>
<path d="M25.9802 37.4524C25.7145 37.6007 25.4153 37.6785 25.1111 37.6785C24.8068 37.6785 24.5076 37.6007 24.2419 37.4524L15.7652 32.7521L15.6948 32.8243L24.241 37.5959C24.5067 37.7441 24.8059 37.822 25.1101 37.822C25.4144 37.822 25.7136 37.7441 25.9793 37.5959L34.5773 32.803L34.556 32.6735L25.9802 37.4524Z" fill="#939393"/>
<circle cx="25" cy="25" r="24.5" stroke="black"/>
</svg>
