<svg width="50" height="50" viewBox="0 0 50 50" fill="none" xmlns="http://www.w3.org/2000/svg">
<path d="M15.6946 32.8243L15.852 32.6049L23.2754 18.5227L23.2911 18.3737L20.0191 12.2276C19.9592 12.1152 19.8654 12.0245 19.7512 11.9683C19.6369 11.9121 19.5078 11.8933 19.3822 11.9145C19.2566 11.9357 19.1409 11.9958 19.0514 12.0864C18.9618 12.177 18.9031 12.2934 18.8834 12.4192L15.6946 32.8243Z" fill="#FFC24A"/>
<path d="M15.7872 32.6577L15.9057 32.4263L23.2522 18.4903L19.9885 12.3202C19.9347 12.2129 19.8476 12.1259 19.7402 12.0723C19.6328 12.0187 19.5109 12.0013 19.3928 12.0228C19.2747 12.0442 19.1667 12.1034 19.085 12.1914C19.0034 12.2794 18.9524 12.3915 18.9398 12.5108L15.7872 32.6577Z" fill="#FFA712"/>
<path d="M25.6764 23.0222L28.1126 20.523L25.6755 15.8755C25.6218 15.7755 25.5421 15.6919 25.4447 15.6336C25.3473 15.5753 25.2359 15.5446 25.1224 15.5446C25.0089 15.5446 24.8976 15.5753 24.8002 15.6336C24.7028 15.6919 24.623 15.7755 24.5694 15.8755L23.267 18.358V18.57L25.6764 23.0222Z" fill="#F4BD62"/>
<path d="M25.6329 22.9204L28.0015 20.4953L25.6329 15.9783C25.5941 15.8805 25.5279 15.796 25.4422 15.735C25.3565 15.674 25.255 15.6392 25.1499 15.6346C25.0449 15.63 24.9407 15.6559 24.85 15.7091C24.7593 15.7624 24.686 15.8408 24.6388 15.9348L23.33 18.4608L23.2911 18.5894L25.6329 22.9204Z" fill="#FFA50E"/>
<path d="M15.6965 32.8253L15.7678 32.7531L16.026 32.6485L25.5228 23.1869L25.6431 22.8592L23.2745 18.3441L15.6965 32.8253V32.8253Z" fill="#F6820C"/>
<path d="M25.98 37.5968L34.5771 32.803L32.1205 17.6869C32.1029 17.5803 32.0563 17.4807 31.9857 17.3989C31.9152 17.3171 31.8235 17.2563 31.7207 17.2232C31.6179 17.1901 31.5079 17.186 31.4029 17.2113C31.2979 17.2366 31.2019 17.2903 31.1255 17.3666L15.6946 32.8243L24.2408 37.5959C24.5065 37.7441 24.8057 37.822 25.1099 37.822C25.4142 37.822 25.7134 37.7441 25.9791 37.5959" fill="#FDE068"/>
<path d="M34.4984 32.7632L32.0622 17.7609C32.0579 17.659 32.0235 17.5606 31.9633 17.4783C31.903 17.396 31.8197 17.3333 31.7239 17.2984C31.6281 17.2634 31.524 17.2576 31.4249 17.2818C31.3258 17.306 31.2361 17.359 31.1672 17.4342L15.7872 32.7956L24.2389 37.5162C24.5025 37.6633 24.7993 37.7405 25.1012 37.7405C25.403 37.7405 25.6998 37.6633 25.9634 37.5162L34.4984 32.7632Z" fill="#FCCA3F"/>
<path d="M25.98 37.4524C25.7143 37.6007 25.4151 37.6785 25.1109 37.6785C24.8066 37.6785 24.5074 37.6007 24.2417 37.4524L15.765 32.7521L15.6946 32.8243L24.2408 37.5959C24.5065 37.7441 24.8057 37.822 25.1099 37.822C25.4142 37.822 25.7134 37.7441 25.9791 37.5959L34.5771 32.803L34.5558 32.6735L25.98 37.4524Z" fill="#EEAB37"/>
<circle cx="25" cy="25" r="24.5" stroke="#444444"/>
</svg>
