<svg width="50" height="50" viewBox="0 0 50 50" fill="none" xmlns="http://www.w3.org/2000/svg">
<circle cx="25" cy="25" r="24.5" stroke="white"/>
<g clip-path="url(#clip0_126_2425)">
<path d="M25.2 11.2C17.468 11.2 11.2 17.4679 11.2 25.2C11.2 32.932 17.468 39.2 25.2 39.2C32.932 39.2 39.2 32.932 39.2 25.2C39.2 17.4679 32.932 11.2 25.2 11.2ZM14.2082 25.3459L25.0539 36.1917C19.0985 36.114 14.2857 31.3015 14.2082 25.3459V25.3459ZM27.6605 35.917L14.483 22.7395C15.6005 17.8526 19.9743 14.2063 25.2 14.2063C28.8527 14.2063 32.0889 15.9884 34.0881 18.7301L32.5659 20.0731C30.9443 17.7476 28.25 16.2256 25.2 16.2256C21.3166 16.2256 18.0096 18.6922 16.7596 22.1442L28.2559 33.6403C31.0477 32.6294 33.1948 30.2727 33.9139 27.3538H29.1488V25.2H36.1937C36.1937 30.4257 32.5475 34.7995 27.6606 35.9168L27.6605 35.917Z" fill="#744C9E"/>
</g>
<defs>
<clipPath id="clip0_126_2425">
<rect width="28" height="28" fill="white" transform="translate(11.2 11.2)"/>
</clipPath>
</defs>
</svg>
