<svg width="50" height="50" viewBox="0 0 50 50" fill="none" xmlns="http://www.w3.org/2000/svg">
<path fill-rule="evenodd" clip-rule="evenodd" d="M14.5072 26.0194C14.5485 26.8712 15.3993 26.4772 15.785 26.2112C16.1511 25.9585 16.2583 26.1689 16.2903 25.6698C16.3235 25.3426 16.3369 25.0137 16.3305 24.6849C15.7623 24.6279 15.1924 24.7741 14.7217 25.0974C14.4877 25.2676 14.0504 25.809 14.5072 26.0255" fill="#F6D2A2"/>
<path d="M14.9497 26.6195C14.8656 26.621 14.7823 26.603 14.7064 26.5669C14.6196 26.5167 14.5479 26.4441 14.4989 26.3566C14.4499 26.2691 14.4254 26.1701 14.4279 26.0699C14.3717 26.0426 14.3232 26.0016 14.2871 25.9505C14.2511 25.8995 14.2285 25.8401 14.2217 25.778C14.2371 25.6282 14.2849 25.4835 14.3618 25.3541C14.4388 25.2246 14.543 25.1134 14.6672 25.0283C15.1531 24.6924 15.7431 24.5413 16.3306 24.6024L16.4007 24.6086V24.6787C16.4098 24.9357 16.4018 25.1931 16.377 25.449C16.371 25.5239 16.3655 25.5989 16.3605 25.6739C16.3378 26.0276 16.2718 26.0812 16.0893 26.1441C15.9934 26.1747 15.9027 26.2196 15.8201 26.2771C15.5642 26.4642 15.2645 26.5821 14.9497 26.6195V26.6195ZM16.0944 24.755C15.6208 24.7487 15.157 24.8908 14.7682 25.1613C14.6012 25.283 14.3691 25.5676 14.3887 25.7636C14.3946 25.8051 14.4119 25.8441 14.4386 25.8763C14.4654 25.9086 14.5006 25.9327 14.5403 25.9461L14.5847 25.9667V26.0152C14.595 26.2276 14.6589 26.3638 14.7755 26.4215C15.0003 26.5329 15.419 26.3617 15.7356 26.1441C15.8305 26.0781 15.9348 26.0267 16.0449 25.9915C16.1646 25.9502 16.1893 25.9409 16.2068 25.6635C16.2068 25.5883 16.2171 25.513 16.2233 25.4367C16.2444 25.2111 16.2533 24.9846 16.2501 24.7581C16.1972 24.756 16.1456 24.755 16.0955 24.755H16.0944Z" fill="black"/>
<path fill-rule="evenodd" clip-rule="evenodd" d="M14.5073 26.0193C14.6368 25.9906 14.7549 25.9242 14.8466 25.8285Z" fill="#C6B198"/>
<path d="M14.5073 26.1008C14.4887 26.1001 14.4709 26.0931 14.4569 26.0808C14.4429 26.0686 14.4335 26.052 14.4302 26.0337C14.427 26.0154 14.4301 25.9965 14.439 25.9802C14.448 25.9639 14.4622 25.9512 14.4794 25.9441L14.5341 25.9245C14.6294 25.9027 14.716 25.8528 14.7826 25.7811C14.7885 25.7714 14.7963 25.7629 14.8056 25.7564C14.815 25.7498 14.8255 25.7453 14.8367 25.7431C14.8479 25.7409 14.8594 25.7411 14.8705 25.7436C14.8816 25.7461 14.8921 25.7509 14.9012 25.7577C14.9103 25.7646 14.9179 25.7732 14.9235 25.7831C14.9291 25.7931 14.9325 25.8041 14.9336 25.8154C14.9347 25.8267 14.9333 25.8382 14.9297 25.849C14.9261 25.8598 14.9202 25.8697 14.9126 25.8781C14.8275 25.976 14.7145 26.0454 14.5887 26.0771L14.5361 26.0957C14.5269 26.0991 14.5171 26.1009 14.5073 26.1008V26.1008Z" fill="black"/>
<path fill-rule="evenodd" clip-rule="evenodd" d="M16.4739 15.8708C13.2121 14.954 15.6376 10.8084 18.2559 12.512L16.4739 15.8708Z" fill="#6AD7E5"/>
<path d="M16.5153 15.9647L16.4524 15.9471C16.0598 15.8804 15.6964 15.6972 15.4091 15.4214C15.1219 15.1456 14.9242 14.7898 14.8416 14.4003C14.8029 14 14.8766 13.5969 15.0547 13.2363C15.2327 12.8758 15.5078 12.5721 15.8491 12.3594C16.2191 12.1259 16.6508 12.009 17.0881 12.0238C17.5254 12.0387 17.9482 12.1848 18.3014 12.443L18.3633 12.4832L16.5153 15.9647ZM16.9783 12.1841C16.6085 12.1842 16.2467 12.2917 15.9368 12.4935C15.6214 12.6888 15.3667 12.9682 15.2015 13.3003C15.0363 13.6325 14.967 14.0041 15.0014 14.3735C15.0755 14.722 15.2509 15.041 15.5055 15.2903C15.7602 15.5396 16.0827 15.7082 16.4328 15.7749L18.1498 12.5399C17.7998 12.3154 17.3941 12.1929 16.9783 12.1862V12.1841Z" fill="black"/>
<path fill-rule="evenodd" clip-rule="evenodd" d="M30.9629 12.2005C33.541 10.3876 35.8768 14.4786 32.8769 15.5078L30.9629 12.2005Z" fill="#6AD7E5"/>
<path d="M32.8409 15.6057L30.8557 12.1768L30.9166 12.1345C31.2467 11.8701 31.6481 11.7101 32.0696 11.6746C32.4911 11.6392 32.9136 11.73 33.2833 11.9355C33.6327 12.1405 33.9184 12.4385 34.1085 12.7962C34.2986 13.154 34.3856 13.5576 34.3599 13.9619C34.3076 14.3472 34.1407 14.7078 33.8808 14.9971C33.621 15.2863 33.2802 15.4908 32.9027 15.584L32.8409 15.6057ZM31.0712 12.2242L32.9141 15.4077C33.248 15.3167 33.5479 15.1296 33.7763 14.8696C34.0048 14.6096 34.1518 14.2882 34.199 13.9454C34.2222 13.5718 34.1412 13.1992 33.9652 12.8689C33.7891 12.5386 33.5249 12.2637 33.2018 12.0747C32.872 11.8852 32.4932 11.7982 32.1137 11.8249C31.7343 11.8515 31.3714 11.9905 31.0712 12.2242V12.2242Z" fill="black"/>
<path fill-rule="evenodd" clip-rule="evenodd" d="M31.5189 36.504C32.1748 36.9093 33.3751 38.1365 32.3893 38.7315C31.4446 39.5967 30.9156 37.7817 30.0854 37.5301C30.2449 37.273 30.4537 37.05 30.6997 36.8739C30.9457 36.6978 31.2241 36.5721 31.5189 36.504V36.504Z" fill="#F6D2A2"/>
<path d="M31.8911 39.045H31.852C31.4797 39.0224 31.1703 38.6594 30.8712 38.3077C30.666 38.0092 30.3871 37.7687 30.0617 37.6095L29.9524 37.5765L30.0205 37.4837C30.3569 36.9489 30.891 36.5686 31.5065 36.4257H31.5364L31.5622 36.4411C31.9819 36.701 32.8481 37.46 32.844 38.1468C32.8419 38.2825 32.8031 38.4151 32.7317 38.5306C32.6604 38.646 32.5591 38.7401 32.4387 38.8027C32.2935 38.95 32.0978 39.0366 31.8911 39.045V39.045ZM30.2154 37.4982C30.5211 37.6783 30.7865 37.9194 30.995 38.2066C31.2848 38.5469 31.5591 38.8687 31.8623 38.8873C31.9508 38.887 32.0383 38.8686 32.1193 38.8331C32.2004 38.7976 32.2733 38.7459 32.3335 38.681L32.3459 38.6717C32.4441 38.6237 32.5272 38.5497 32.5861 38.4576C32.645 38.3656 32.6775 38.2592 32.68 38.1499C32.68 37.6013 31.987 36.9124 31.5003 36.603C30.9742 36.7251 30.5146 37.0435 30.2154 37.493V37.4982Z" fill="black"/>
<path d="M32.3891 38.813C32.3742 38.813 32.3595 38.8088 32.3468 38.801C32.3341 38.7932 32.3237 38.782 32.3169 38.7687C32.269 38.668 32.2266 38.5647 32.1901 38.4593C32.1338 38.2611 32.033 38.0784 31.8952 37.9251C31.8824 37.9097 31.8758 37.8901 31.8765 37.8701C31.8773 37.8501 31.8854 37.8311 31.8993 37.8167C31.9132 37.8022 31.9319 37.7935 31.9519 37.792C31.9719 37.7905 31.9917 37.7964 32.0076 37.8086C32.1638 37.9784 32.2785 38.1821 32.3427 38.4036C32.3774 38.502 32.4173 38.5984 32.4623 38.6924C32.472 38.7117 32.4737 38.734 32.4669 38.7545C32.4601 38.775 32.4455 38.792 32.4263 38.8017C32.415 38.8085 32.4022 38.8123 32.3891 38.813V38.813Z" fill="black"/>
<path fill-rule="evenodd" clip-rule="evenodd" d="M19.805 37.8911C19.0356 38.0097 18.6025 38.7047 17.9611 39.0574C17.3568 39.4184 17.1247 38.9419 17.0711 38.845C16.9762 38.8017 16.9845 38.8852 16.8381 38.7419C16.274 37.8529 17.4207 37.2084 18.0168 36.767C18.8469 36.5989 19.3677 37.3187 19.805 37.8911Z" fill="#F6D2A2"/>
<path d="M17.5515 39.2709C17.5025 39.2712 17.4536 39.265 17.4061 39.2523C17.3214 39.2247 17.2431 39.1803 17.1758 39.1218C17.1084 39.0634 17.0535 38.992 17.0143 38.912H16.9957C16.9276 38.912 16.8771 38.8976 16.776 38.7955L16.7647 38.7821C16.2254 37.9303 17.1432 37.2837 17.7516 36.8557C17.8279 36.8021 17.9001 36.7526 17.9651 36.7031L17.9795 36.6928H17.997C18.852 36.5195 19.3923 37.227 19.8255 37.7952L19.9482 37.955L19.8131 37.9756C19.3785 38.08 18.9829 38.3069 18.6735 38.6294C18.4654 38.8198 18.2384 38.9884 17.996 39.1327C17.8628 39.2176 17.7094 39.2653 17.5515 39.2709V39.2709ZM17.0081 38.7491C17.0409 38.7491 17.0733 38.7565 17.103 38.7707L17.1267 38.7821L17.1473 38.8182C17.1763 38.8822 17.218 38.9398 17.2697 38.9874C17.3214 39.0351 17.3822 39.0719 17.4484 39.0956C17.5297 39.1107 17.6132 39.1093 17.694 39.0916C17.7748 39.0739 17.8512 39.0402 17.9187 38.9924C18.1521 38.853 18.3708 38.6902 18.5715 38.5067C18.8765 38.2019 19.2498 37.9742 19.6605 37.8426C19.248 37.3002 18.7715 36.7144 18.0496 36.8495C17.9819 36.8988 17.9132 36.9466 17.8434 36.9929C17.2246 37.4301 16.4491 37.9746 16.8957 38.6924C16.9596 38.7563 16.9751 38.7553 16.9885 38.7553L17.0081 38.7491Z" fill="black"/>
<path d="M17.07 38.9254H17.0628C17.0413 38.9235 17.0215 38.9133 17.0076 38.8969C16.9937 38.8804 16.9868 38.8592 16.9885 38.8377C17.0218 38.6215 17.1119 38.4179 17.2494 38.2478C17.3143 38.1581 17.3712 38.0628 17.4196 37.9632C17.4293 37.9451 17.4455 37.9313 17.465 37.9246C17.4845 37.9179 17.5057 37.9188 17.5245 37.9272C17.5433 37.9355 17.5583 37.9507 17.5664 37.9696C17.5745 37.9886 17.5751 38.0099 17.5681 38.0292C17.5161 38.1375 17.4547 38.241 17.3845 38.3386C17.2632 38.4872 17.1828 38.6649 17.1515 38.8542C17.149 38.874 17.1393 38.8922 17.1243 38.9053C17.1092 38.9184 17.0899 38.9255 17.07 38.9254V38.9254Z" fill="black"/>
<path fill-rule="evenodd" clip-rule="evenodd" d="M16.6101 14.7272C16.1801 14.4993 15.8645 14.1909 16.1275 13.6959C16.3709 13.2349 16.8236 13.2834 17.2536 13.5123L16.6101 14.7272Z" fill="black"/>
<path fill-rule="evenodd" clip-rule="evenodd" d="M32.1975 14.292C32.6275 14.0641 32.943 13.7557 32.6801 13.2607C32.4367 12.7998 31.984 12.8482 31.554 13.0772L32.1975 14.292Z" fill="black"/>
<path fill-rule="evenodd" clip-rule="evenodd" d="M35.1593 25.9121C35.118 26.7639 34.2672 26.3699 33.8816 26.1039C33.5155 25.8512 33.4082 26.0616 33.3762 25.5625C33.3431 25.2353 33.3296 24.9064 33.336 24.5776C33.9042 24.5206 34.4741 24.6668 34.9448 24.9901C35.1789 25.1603 35.6161 25.7017 35.1593 25.9182" fill="#F6D2A2"/>
<path d="M34.7168 26.5112C34.3986 26.4758 34.0951 26.3581 33.8362 26.1698C33.7536 26.1123 33.6629 26.0674 33.567 26.0368C33.3845 25.9729 33.3185 25.9192 33.2958 25.5666C33.2958 25.4913 33.2855 25.417 33.2793 25.3417C33.2545 25.0858 33.2465 24.8284 33.2556 24.5714V24.5013L33.3257 24.4951C33.9132 24.434 34.5032 24.5851 34.9891 24.921C35.1133 25.0061 35.2175 25.1173 35.2945 25.2468C35.3714 25.3762 35.4192 25.5209 35.4346 25.6707C35.4277 25.7328 35.4052 25.7922 35.3691 25.8432C35.3331 25.8943 35.2846 25.9353 35.2283 25.9626C35.2309 26.0628 35.2064 26.1618 35.1574 26.2493C35.1084 26.3368 35.0367 26.4094 34.9499 26.4596C34.877 26.4939 34.7974 26.5115 34.7168 26.5112V26.5112ZM33.4144 24.6549C33.4112 24.8814 33.4201 25.1079 33.4412 25.3335L33.4577 25.5604C33.4752 25.8378 33.5 25.846 33.6196 25.8883C33.7297 25.9235 33.834 25.9749 33.929 26.0409C34.2445 26.2596 34.6643 26.4297 34.8891 26.3183C35.0056 26.2606 35.0695 26.1245 35.0798 25.912V25.8636L35.1242 25.8429C35.1639 25.8296 35.1991 25.8054 35.2259 25.7732C35.2527 25.7409 35.2699 25.7019 35.2758 25.6604C35.2943 25.4645 35.0633 25.1798 34.8963 25.0581C34.4634 24.757 33.9403 24.6135 33.4144 24.6518V24.6549Z" fill="black"/>
<path fill-rule="evenodd" clip-rule="evenodd" d="M35.1591 25.9121C35.0296 25.8835 34.9116 25.8171 34.8198 25.7213Z" fill="#C6B198"/>
<path d="M35.159 25.9925C35.1498 25.9941 35.1404 25.9941 35.1312 25.9925L35.0786 25.974C34.9528 25.9423 34.8398 25.8729 34.7548 25.7749C34.7471 25.7665 34.7413 25.7566 34.7376 25.7458C34.734 25.735 34.7327 25.7236 34.7338 25.7122C34.7348 25.7009 34.7383 25.6899 34.7438 25.68C34.7494 25.6701 34.757 25.6614 34.7662 25.6546C34.7753 25.6478 34.7857 25.643 34.7968 25.6404C34.808 25.6379 34.8195 25.6378 34.8306 25.64C34.8418 25.6422 34.8524 25.6467 34.8617 25.6532C34.871 25.6598 34.8789 25.6682 34.8847 25.678C34.9513 25.7496 35.0379 25.7995 35.1333 25.8213L35.1879 25.8409C35.2051 25.848 35.2194 25.8607 35.2283 25.877C35.2373 25.8933 35.2404 25.9122 35.2371 25.9305C35.2339 25.9488 35.2245 25.9655 35.2105 25.9777C35.1964 25.9899 35.1787 25.997 35.1601 25.9977L35.159 25.9925Z" fill="black"/>
<path fill-rule="evenodd" clip-rule="evenodd" d="M24.5062 10.4773C27.7712 10.4773 30.8319 10.9445 32.4273 14.0815C33.8597 17.597 33.3502 21.389 33.5689 25.1045C33.7565 28.2952 34.1721 31.9809 32.6923 34.9385C31.1351 38.0488 27.2442 38.8315 24.038 38.7171C21.5197 38.6273 18.4786 37.8054 17.0575 35.5047C15.39 32.8059 16.1799 28.7923 16.3006 25.7893C16.4439 22.2325 15.3374 18.6634 16.5068 15.1829C17.7196 11.5735 20.9886 10.7557 24.5073 10.4773" fill="#6AD7E5"/>
<path d="M24.5962 38.8068C24.3899 38.8068 24.2043 38.8068 24.0362 38.7965C22.4893 38.7408 18.6985 38.3128 16.9897 35.546C15.6418 33.3639 15.8821 30.3475 16.0935 27.6858C16.1471 27.0165 16.1966 26.3833 16.2214 25.7852C16.2455 24.5229 16.1914 23.2603 16.0595 22.0047C15.7087 19.7207 15.8352 17.3888 16.4307 15.1561C16.6775 14.3605 17.0874 13.625 17.6342 12.9966C18.1811 12.3682 18.853 11.8607 19.607 11.5065C21.1532 10.8304 22.8136 10.4535 24.5003 10.3959H24.5065C27.6941 10.3959 30.8693 10.8383 32.4997 14.0444V14.0506C33.3692 16.6249 33.7347 19.3426 33.5763 22.0552C33.5815 23.0545 33.5876 24.0888 33.6464 25.0994C33.664 25.4088 33.6846 25.7182 33.7052 26.0276C33.895 28.9573 34.1095 32.279 32.7616 34.9716C31.0817 38.3345 26.8412 38.8068 24.5962 38.8068V38.8068ZM24.5096 10.5578C21.1126 10.8269 17.8064 11.5767 16.5823 15.2077C15.9947 17.4196 15.8708 19.7291 16.2183 21.9912C16.3497 23.2538 16.4028 24.5233 16.3771 25.7924C16.3524 26.3947 16.3029 27.0299 16.2492 27.7002C16.043 30.3372 15.8017 33.3257 17.1217 35.4625C18.7902 38.1633 22.5131 38.582 24.0362 38.6356C26.0183 38.7068 30.8208 38.484 32.6141 34.9015C33.9424 32.2481 33.7289 28.9501 33.5423 26.041L33.4835 25.1128C33.4237 24.0981 33.4185 23.0617 33.4134 22.0603C33.5707 19.3698 33.2097 16.6741 32.3501 14.1197C30.7631 10.9899 27.6435 10.5588 24.5096 10.5578V10.5578Z" fill="black"/>
<path fill-rule="evenodd" clip-rule="evenodd" d="M25.0829 14.8602C25.6686 18.2633 31.2395 17.3672 30.4392 13.9321C29.7173 10.8507 24.888 11.7035 25.0829 14.8602Z" fill="white"/>
<path d="M27.7291 17.0835C27.3825 17.0848 27.0382 17.0284 26.7102 16.9165C26.2637 16.7688 25.8673 16.4991 25.5661 16.1378C25.2648 15.7766 25.0707 15.3383 25.0056 14.8725V14.8643C24.9645 14.1521 25.2012 13.4518 25.6658 12.9106C26.1305 12.3694 26.7869 12.0295 27.4971 11.9623C28.1555 11.8257 28.8412 11.9537 29.4061 12.3186C29.9709 12.6835 30.3694 13.256 30.5155 13.9124C30.6364 14.3398 30.6355 14.7925 30.5128 15.2194C30.3902 15.6464 30.1508 16.0305 29.8215 16.3286C29.2382 16.8249 28.4949 17.0931 27.7291 17.0835V17.0835ZM25.1613 14.8509C25.2232 15.2878 25.4058 15.6989 25.6885 16.0377C25.9713 16.3766 26.343 16.6298 26.7618 16.769C27.2608 16.9363 27.7944 16.973 28.3116 16.8755C28.8288 16.778 29.3124 16.5496 29.7163 16.2121C30.0252 15.932 30.2494 15.5711 30.3637 15.1701C30.478 14.7691 30.4777 14.3442 30.3629 13.9434C30.2235 13.3257 29.8464 12.7879 29.3133 12.4463C28.7802 12.1046 28.134 11.9867 27.5146 12.1181C26.8453 12.1815 26.2266 12.5014 25.7879 13.0108C25.3493 13.5202 25.1247 14.1796 25.1613 14.8509V14.8509Z" fill="black"/>
<path fill-rule="evenodd" clip-rule="evenodd" d="M18.4272 15.4109C19.1862 18.3778 23.9362 17.6146 23.7567 14.6426C23.5422 11.0786 17.7002 11.7664 18.4262 15.4109" fill="white"/>
<path d="M20.9608 17.3682C20.4778 17.3728 20.0011 17.2573 19.5738 17.032C19.2687 16.8664 19.0022 16.638 18.7918 16.362C18.5813 16.086 18.4317 15.7685 18.3528 15.4305C18.2356 14.9686 18.2535 14.4828 18.4045 14.0308C18.5555 13.5789 18.8333 13.1798 19.2046 12.8812C19.6526 12.5396 20.1829 12.3221 20.7418 12.2508C21.3007 12.1794 21.8686 12.2567 22.3881 12.4749C22.8109 12.6596 23.1718 12.9619 23.4277 13.3458C23.6837 13.7298 23.824 14.1792 23.8318 14.6405C23.8558 15.3056 23.6246 15.9548 23.1856 16.455C22.7465 16.9552 22.1329 17.2686 21.4703 17.3311C21.3017 17.3566 21.1313 17.369 20.9608 17.3682V17.3682ZM18.5013 15.3944C18.6647 16.0162 19.0638 16.55 19.6139 16.8828C20.1639 17.2156 20.822 17.3212 21.4486 17.1774C22.0733 17.1199 22.6524 16.8258 23.0674 16.3554C23.4825 15.885 23.702 15.2737 23.6813 14.6467C23.6747 14.2129 23.5434 13.79 23.3032 13.4287C23.0629 13.0674 22.7237 12.7828 22.3262 12.609C21.8323 12.4014 21.2925 12.3277 20.761 12.3954C20.2296 12.4631 19.7255 12.6698 19.2995 12.9947C18.9505 13.2761 18.6898 13.652 18.5483 14.0774C18.4067 14.5028 18.3904 14.9599 18.5013 15.3944V15.3944Z" fill="black"/>
<path fill-rule="evenodd" clip-rule="evenodd" d="M25.7551 18.949C25.8039 19.4181 25.8094 19.8907 25.7716 20.3608C25.6582 20.5743 25.4364 20.597 25.2456 20.6836C25.1156 20.6632 24.9929 20.6099 24.8892 20.5289C24.7854 20.4479 24.704 20.3418 24.6527 20.2206C24.6242 19.6878 24.6384 19.1537 24.695 18.6232L25.7551 18.949Z" fill="white"/>
<path d="M25.2571 20.7671H25.2334C25.0893 20.7443 24.9534 20.6849 24.8388 20.5947C24.7242 20.5044 24.6346 20.3863 24.5786 20.2515V20.2299C24.5442 19.8651 24.5473 19.4978 24.5879 19.1336C24.6013 18.9655 24.6147 18.7923 24.6198 18.618V18.5149L25.8377 18.8882V18.948C25.8377 19.0945 25.8501 19.246 25.8625 19.4059C25.9003 19.7277 25.8976 20.0531 25.8542 20.3742V20.3866L25.848 20.398C25.8011 20.4754 25.7392 20.5427 25.6658 20.5958C25.5925 20.6489 25.5093 20.6869 25.4211 20.7073C25.3726 20.7249 25.3273 20.7403 25.2829 20.761L25.2571 20.7671ZM24.7322 20.1989C24.7775 20.3014 24.8469 20.3913 24.9346 20.461C25.0222 20.5307 25.1255 20.5781 25.2355 20.599C25.2778 20.5815 25.3211 20.566 25.3623 20.5506C25.4966 20.5227 25.6152 20.4449 25.6944 20.333C25.7312 20.0292 25.7312 19.7221 25.6944 19.4183C25.6841 19.277 25.6738 19.1419 25.6707 19.0058L24.7683 18.7294C24.7611 18.8696 24.7508 19.0089 24.7405 19.1419C24.7012 19.493 24.6977 19.8471 24.7302 20.1989H24.7322Z" fill="black"/>
<path d="M19.7369 15.7955C20.18 15.7955 20.5392 15.4067 20.5392 14.9272C20.5392 14.4476 20.18 14.0588 19.7369 14.0588C19.2938 14.0588 18.9346 14.4476 18.9346 14.9272C18.9346 15.4067 19.2938 15.7955 19.7369 15.7955Z" fill="black"/>
<path d="M20.1018 15.3438C20.206 15.3438 20.2905 15.245 20.2905 15.1232C20.2905 15.0013 20.206 14.9025 20.1018 14.9025C19.9976 14.9025 19.9131 15.0013 19.9131 15.1232C19.9131 15.245 19.9976 15.3438 20.1018 15.3438Z" fill="white"/>
<path d="M26.4564 15.5789C26.8921 15.5789 27.2453 15.1902 27.2453 14.7106C27.2453 14.231 26.8921 13.8423 26.4564 13.8423C26.0207 13.8423 25.6675 14.231 25.6675 14.7106C25.6675 15.1902 26.0207 15.5789 26.4564 15.5789Z" fill="black"/>
<path d="M26.8153 15.1273C26.9178 15.1273 27.0009 15.0285 27.0009 14.9066C27.0009 14.7847 26.9178 14.6859 26.8153 14.6859C26.7127 14.6859 26.6296 14.7847 26.6296 14.9066C26.6296 15.0285 26.7127 15.1273 26.8153 15.1273Z" fill="white"/>
<path fill-rule="evenodd" clip-rule="evenodd" d="M23.4627 18.9005C23.1131 19.7482 23.6576 21.4446 24.6074 20.1937C24.579 19.661 24.5931 19.1268 24.6497 18.5963L23.4627 18.9005Z" fill="white"/>
<path d="M23.9733 20.7218C23.8913 20.7214 23.8109 20.6993 23.7402 20.6579C23.5127 20.4274 23.358 20.135 23.2954 19.8172C23.2329 19.4994 23.2653 19.1702 23.3886 18.8707L23.404 18.8336L24.7302 18.4912V18.5943C24.7251 18.7696 24.7106 18.945 24.6972 19.11C24.6572 19.4631 24.6537 19.8194 24.6869 20.1732V20.2062L24.6673 20.233C24.394 20.6053 24.1579 20.7218 23.9733 20.7218ZM23.5237 18.9687C23.4253 19.2288 23.401 19.511 23.4534 19.7841C23.5058 20.0572 23.633 20.3104 23.8207 20.5156C24.0661 20.6558 24.3363 20.4124 24.5229 20.1701C24.4932 19.8161 24.4977 19.46 24.5363 19.1069C24.5467 18.9738 24.557 18.8377 24.5642 18.7026L23.5237 18.9687Z" fill="black"/>
<path fill-rule="evenodd" clip-rule="evenodd" d="M23.5824 17.2671C23.4197 17.2824 23.2629 17.3361 23.125 17.4239C22.9871 17.5118 22.8721 17.6311 22.7894 17.7721C22.7067 17.9131 22.6587 18.0718 22.6494 18.235C22.6401 18.3982 22.6697 18.5613 22.7358 18.7108C23.1844 19.5234 24.1868 18.6386 24.8117 18.7222C25.5336 18.7366 26.1193 19.4822 26.6958 18.8572C27.3372 18.1622 26.4194 17.4847 25.7017 17.1825L23.5824 17.2671Z" fill="#F6D2A2"/>
<path d="M26.1821 19.1883C25.9518 19.1702 25.7273 19.1075 25.521 19.0037C25.2988 18.8933 25.0578 18.8254 24.8105 18.8037H24.8012C24.5482 18.8038 24.298 18.8572 24.067 18.9604C23.5606 19.1357 22.9862 19.3337 22.6645 18.7542C22.5865 18.6082 22.5469 18.4449 22.5494 18.2795C22.552 18.114 22.5965 17.952 22.6789 17.8085C22.7657 17.6395 22.893 17.4946 23.0493 17.3866C23.2057 17.2787 23.3863 17.2111 23.5751 17.1897L25.717 17.099L25.7335 17.1062C26.2666 17.331 26.874 17.7425 26.9782 18.2231C26.9922 18.3391 26.9824 18.4568 26.9495 18.5689C26.9166 18.6811 26.8612 18.7854 26.7868 18.8755C26.7123 18.9655 26.6203 19.0396 26.5163 19.093C26.4124 19.1464 26.2987 19.1781 26.1821 19.1862V19.1883ZM24.8177 18.6459C25.0842 18.6677 25.3442 18.7398 25.5839 18.8583C25.9892 19.0285 26.3058 19.1625 26.6368 18.8067C26.7107 18.7387 26.7662 18.6531 26.7983 18.558C26.8304 18.4628 26.838 18.3611 26.8204 18.2622C26.7307 17.8497 26.1583 17.4692 25.686 17.2681L23.5864 17.3517C23.4252 17.3719 23.2714 17.4311 23.1381 17.5239C23.0048 17.6168 22.8961 17.7406 22.8212 17.8848C22.7518 18.0045 22.714 18.1399 22.7113 18.2783C22.7086 18.4167 22.7411 18.5534 22.8058 18.6758C23.0615 19.1388 23.5276 18.979 24.0123 18.8098C24.2657 18.6975 24.5405 18.6416 24.8177 18.6459V18.6459Z" fill="#231F20"/>
<path fill-rule="evenodd" clip-rule="evenodd" d="M23.5008 17.233C23.4523 16.1038 25.6066 15.9646 25.8644 16.9082C26.1222 17.8518 23.6101 18.0714 23.5039 17.2341L23.5008 17.233Z" fill="black"/>
<circle cx="25" cy="25" r="24.5" stroke="white"/>
</svg>
