<svg width="50" height="50" viewBox="0 0 50 50" fill="none" xmlns="http://www.w3.org/2000/svg">
<path fill-rule="evenodd" clip-rule="evenodd" d="M14.5074 26.0194C14.5487 26.8712 15.3995 26.4772 15.7851 26.2112C16.1512 25.9585 16.2585 26.1689 16.2905 25.6698C16.3236 25.3426 16.3371 25.0137 16.3307 24.6849C15.7625 24.6279 15.1926 24.7741 14.7219 25.0974C14.4878 25.2676 14.0506 25.809 14.5074 26.0255" fill="#F6D2A2"/>
<path d="M14.9498 26.6195C14.8657 26.621 14.7824 26.603 14.7064 26.5669C14.6196 26.5167 14.548 26.4441 14.499 26.3566C14.45 26.2691 14.4255 26.1701 14.428 26.0699C14.3717 26.0426 14.3233 26.0016 14.2872 25.9505C14.2511 25.8995 14.2286 25.8401 14.2217 25.778C14.2371 25.6282 14.285 25.4835 14.3619 25.3541C14.4388 25.2246 14.543 25.1134 14.6672 25.0283C15.1531 24.6924 15.7431 24.5413 16.3306 24.6024L16.4008 24.6086V24.6787C16.4098 24.9357 16.4019 25.1931 16.3771 25.449C16.371 25.5239 16.3655 25.5989 16.3606 25.6739C16.3379 26.0276 16.2719 26.0812 16.0893 26.1441C15.9935 26.1747 15.9027 26.2196 15.8202 26.2771C15.5643 26.4642 15.2645 26.5821 14.9498 26.6195V26.6195ZM16.0945 24.755C15.6209 24.7487 15.1571 24.8908 14.7683 25.1613C14.6012 25.283 14.3692 25.5676 14.3888 25.7636C14.3947 25.8051 14.4119 25.8441 14.4387 25.8763C14.4655 25.9086 14.5007 25.9327 14.5404 25.9461L14.5847 25.9667V26.0152C14.5951 26.2276 14.659 26.3638 14.7755 26.4215C15.0003 26.5329 15.419 26.3617 15.7356 26.1441C15.8306 26.0781 15.9348 26.0267 16.045 25.9915C16.1646 25.9502 16.1894 25.9409 16.2069 25.6635C16.2069 25.5883 16.2172 25.513 16.2234 25.4367C16.2444 25.2111 16.2534 24.9846 16.2502 24.7581C16.1973 24.756 16.1457 24.755 16.0955 24.755H16.0945Z" fill="black"/>
<path fill-rule="evenodd" clip-rule="evenodd" d="M14.5074 26.0193C14.6369 25.9906 14.7549 25.9242 14.8467 25.8285Z" fill="#C6B198"/>
<path d="M14.5074 26.1008C14.4888 26.1001 14.471 26.0931 14.457 26.0808C14.443 26.0686 14.4336 26.052 14.4303 26.0337C14.4271 26.0154 14.4302 25.9965 14.4391 25.9802C14.4481 25.9639 14.4624 25.9512 14.4796 25.9441L14.5342 25.9245C14.6295 25.9027 14.7161 25.8528 14.7827 25.7811C14.7886 25.7714 14.7964 25.7629 14.8058 25.7564C14.8151 25.7498 14.8257 25.7453 14.8368 25.7431C14.848 25.7409 14.8595 25.7411 14.8706 25.7436C14.8817 25.7461 14.8922 25.7509 14.9013 25.7577C14.9104 25.7646 14.918 25.7732 14.9236 25.7831C14.9292 25.7931 14.9326 25.8041 14.9337 25.8154C14.9348 25.8267 14.9335 25.8382 14.9298 25.849C14.9262 25.8598 14.9204 25.8697 14.9127 25.8781C14.8276 25.976 14.7146 26.0454 14.5889 26.0771L14.5363 26.0957C14.527 26.0991 14.5173 26.1009 14.5074 26.1008V26.1008Z" fill="black"/>
<path fill-rule="evenodd" clip-rule="evenodd" d="M16.474 15.8708C13.2121 14.954 15.6376 10.8084 18.256 12.512L16.474 15.8708Z" fill="#6AD7E5"/>
<path d="M16.5152 15.9647L16.4523 15.9471C16.0598 15.8804 15.6963 15.6972 15.4091 15.4214C15.1219 15.1456 14.9241 14.7898 14.8415 14.4003C14.8028 14 14.8766 13.5969 15.0546 13.2363C15.2326 12.8758 15.5078 12.5721 15.8491 12.3594C16.2191 12.1259 16.6508 12.009 17.0881 12.0238C17.5254 12.0387 17.9481 12.1848 18.3014 12.443L18.3632 12.4832L16.5152 15.9647ZM16.9783 12.1841C16.6085 12.1842 16.2466 12.2917 15.9367 12.4935C15.6213 12.6888 15.3667 12.9682 15.2014 13.3003C15.0362 13.6325 14.9669 14.0041 15.0014 14.3735C15.0755 14.722 15.2508 15.041 15.5055 15.2903C15.7601 15.5396 16.0827 15.7082 16.4327 15.7749L18.1498 12.5399C17.7997 12.3154 17.3941 12.1929 16.9783 12.1862V12.1841Z" fill="black"/>
<path fill-rule="evenodd" clip-rule="evenodd" d="M30.9631 12.2005C33.5412 10.3876 35.877 14.4786 32.8771 15.5078L30.9631 12.2005Z" fill="#6AD7E5"/>
<path d="M32.841 15.6057L30.8558 12.1768L30.9167 12.1345C31.2469 11.8701 31.6483 11.7101 32.0697 11.6746C32.4912 11.6392 32.9137 11.73 33.2834 11.9355C33.6329 12.1405 33.9185 12.4385 34.1086 12.7962C34.2987 13.154 34.3857 13.5576 34.36 13.9619C34.3077 14.3472 34.1408 14.7078 33.881 14.9971C33.6211 15.2863 33.2804 15.4908 32.9029 15.584L32.841 15.6057ZM31.0714 12.2242L32.9142 15.4077C33.2481 15.3167 33.548 15.1296 33.7764 14.8696C34.0049 14.6096 34.1519 14.2882 34.1992 13.9454C34.2223 13.5718 34.1414 13.1992 33.9653 12.8689C33.7892 12.5386 33.525 12.2637 33.2019 12.0747C32.8721 11.8852 32.4933 11.7982 32.1139 11.8249C31.7344 11.8515 31.3715 11.9905 31.0714 12.2242V12.2242Z" fill="black"/>
<path fill-rule="evenodd" clip-rule="evenodd" d="M31.5189 36.504C32.1748 36.9093 33.3751 38.1365 32.3893 38.7315C31.4446 39.5967 30.9156 37.7817 30.0854 37.5301C30.2449 37.273 30.4537 37.05 30.6997 36.8739C30.9457 36.6978 31.2241 36.5721 31.5189 36.504V36.504Z" fill="#F6D2A2"/>
<path d="M31.8912 39.045H31.852C31.4797 39.0224 31.1704 38.6594 30.8713 38.3077C30.666 38.0092 30.3872 37.7687 30.0618 37.6095L29.9525 37.5765L30.0205 37.4837C30.3569 36.9489 30.891 36.5686 31.5065 36.4257H31.5365L31.5622 36.4411C31.982 36.701 32.8482 37.46 32.8441 38.1468C32.8419 38.2825 32.8031 38.4151 32.7318 38.5306C32.6604 38.646 32.5592 38.7401 32.4388 38.8027C32.2936 38.95 32.0979 39.0366 31.8912 39.045V39.045ZM30.2154 37.4982C30.5212 37.6783 30.7866 37.9194 30.995 38.2066C31.2848 38.5469 31.5591 38.8687 31.8623 38.8873C31.9508 38.887 32.0383 38.8686 32.1194 38.8331C32.2005 38.7976 32.2734 38.7459 32.3336 38.681L32.346 38.6717C32.4442 38.6237 32.5273 38.5497 32.5862 38.4576C32.6451 38.3656 32.6776 38.2592 32.6801 38.1499C32.6801 37.6013 31.9871 36.9124 31.5004 36.603C30.9743 36.7251 30.5147 37.0435 30.2154 37.493V37.4982Z" fill="black"/>
<path d="M32.3892 38.813C32.3743 38.813 32.3597 38.8088 32.3469 38.801C32.3342 38.7932 32.3239 38.782 32.3171 38.7687C32.2691 38.668 32.2267 38.5647 32.1902 38.4593C32.134 38.2611 32.0331 38.0784 31.8953 37.9251C31.8825 37.9097 31.8759 37.8901 31.8766 37.8701C31.8774 37.8501 31.8855 37.8311 31.8994 37.8167C31.9133 37.8022 31.932 37.7935 31.952 37.792C31.972 37.7905 31.9918 37.7964 32.0077 37.8086C32.1639 37.9784 32.2786 38.1821 32.3428 38.4036C32.3775 38.502 32.4174 38.5984 32.4625 38.6924C32.4722 38.7117 32.4738 38.734 32.467 38.7545C32.4603 38.775 32.4456 38.792 32.4264 38.8017C32.4151 38.8085 32.4024 38.8123 32.3892 38.813V38.813Z" fill="black"/>
<path fill-rule="evenodd" clip-rule="evenodd" d="M19.805 37.8911C19.0356 38.0097 18.6025 38.7047 17.9611 39.0574C17.3568 39.4184 17.1247 38.9419 17.0711 38.845C16.9762 38.8017 16.9845 38.8852 16.8381 38.7419C16.274 37.8529 17.4207 37.2084 18.0168 36.767C18.8469 36.5989 19.3677 37.3187 19.805 37.8911Z" fill="#F6D2A2"/>
<path d="M17.5517 39.2709C17.5026 39.2712 17.4537 39.265 17.4063 39.2523C17.3215 39.2247 17.2432 39.1803 17.1759 39.1218C17.1086 39.0634 17.0537 38.992 17.0144 38.912H16.9958C16.9278 38.912 16.8772 38.8976 16.7762 38.7955L16.7648 38.7821C16.2255 37.9303 17.1433 37.2837 17.7517 36.8557C17.828 36.8021 17.9002 36.7526 17.9652 36.7031L17.9796 36.6928H17.9972C18.8521 36.5195 19.3924 37.227 19.8256 37.7952L19.9483 37.955L19.8132 37.9756C19.3786 38.08 18.9831 38.3069 18.6737 38.6294C18.4655 38.8198 18.2385 38.9884 17.9961 39.1327C17.8629 39.2176 17.7095 39.2653 17.5517 39.2709V39.2709ZM17.0082 38.7491C17.041 38.7491 17.0735 38.7565 17.1031 38.7707L17.1268 38.7821L17.1474 38.8182C17.1765 38.8822 17.2181 38.9398 17.2698 38.9874C17.3215 39.0351 17.3823 39.0719 17.4485 39.0956C17.5298 39.1107 17.6133 39.1093 17.6941 39.0916C17.7749 39.0739 17.8513 39.0402 17.9188 38.9924C18.1522 38.853 18.3709 38.6902 18.5716 38.5067C18.8766 38.2019 19.2499 37.9742 19.6606 37.8426C19.2481 37.3002 18.7716 36.7144 18.0498 36.8495C17.9821 36.8988 17.9133 36.9466 17.8435 36.9929C17.2248 37.4301 16.4493 37.9746 16.8958 38.6924C16.9597 38.7563 16.9752 38.7553 16.9886 38.7553L17.0082 38.7491Z" fill="black"/>
<path d="M17.0701 38.9254H17.0629C17.0414 38.9235 17.0216 38.9133 17.0076 38.8969C16.9937 38.8804 16.9869 38.8592 16.9886 38.8377C17.0219 38.6215 17.1119 38.4179 17.2495 38.2478C17.3144 38.1581 17.3713 38.0629 17.4197 37.9632C17.4294 37.9451 17.4456 37.9313 17.465 37.9246C17.4845 37.9179 17.5058 37.9188 17.5246 37.9272C17.5434 37.9355 17.5584 37.9507 17.5664 37.9696C17.5745 37.9886 17.5751 38.0099 17.5682 38.0292C17.5161 38.1375 17.4547 38.241 17.3846 38.3386C17.2632 38.4872 17.1829 38.6649 17.1515 38.8542C17.149 38.874 17.1393 38.8922 17.1243 38.9053C17.1093 38.9184 17.09 38.9255 17.0701 38.9254V38.9254Z" fill="black"/>
<path fill-rule="evenodd" clip-rule="evenodd" d="M16.6101 14.7272C16.1801 14.4993 15.8645 14.1909 16.1275 13.6959C16.3709 13.2349 16.8236 13.2834 17.2536 13.5123L16.6101 14.7272Z" fill="black"/>
<path fill-rule="evenodd" clip-rule="evenodd" d="M32.1975 14.292C32.6275 14.0641 32.943 13.7557 32.6801 13.2607C32.4367 12.7998 31.984 12.8482 31.554 13.0772L32.1975 14.292Z" fill="black"/>
<path fill-rule="evenodd" clip-rule="evenodd" d="M35.1592 25.9121C35.118 26.7639 34.2672 26.3699 33.8815 26.1039C33.5154 25.8512 33.4081 26.0616 33.3762 25.5625C33.343 25.2353 33.3296 24.9064 33.336 24.5776C33.9041 24.5206 34.4741 24.6668 34.9447 24.9901C35.1788 25.1603 35.6161 25.7017 35.1592 25.9182" fill="#F6D2A2"/>
<path d="M34.7168 26.5112C34.3986 26.4758 34.0951 26.3581 33.8362 26.1698C33.7536 26.1123 33.6629 26.0674 33.567 26.0368C33.3845 25.9729 33.3185 25.9192 33.2958 25.5666C33.2958 25.4913 33.2855 25.417 33.2793 25.3417C33.2545 25.0858 33.2465 24.8284 33.2556 24.5714V24.5013L33.3257 24.4951C33.9132 24.434 34.5032 24.5851 34.9891 24.921C35.1133 25.0061 35.2175 25.1173 35.2945 25.2468C35.3714 25.3762 35.4192 25.5209 35.4346 25.6707C35.4277 25.7328 35.4052 25.7922 35.3691 25.8432C35.3331 25.8943 35.2846 25.9353 35.2283 25.9625C35.2309 26.0628 35.2064 26.1618 35.1574 26.2493C35.1084 26.3368 35.0367 26.4094 34.9499 26.4596C34.877 26.4939 34.7974 26.5115 34.7168 26.5112V26.5112ZM33.4144 24.6549C33.4112 24.8814 33.4201 25.1079 33.4412 25.3335L33.4577 25.5604C33.4752 25.8378 33.5 25.846 33.6196 25.8883C33.7297 25.9235 33.834 25.9749 33.929 26.0409C34.2445 26.2595 34.6643 26.4297 34.8891 26.3183C35.0056 26.2606 35.0695 26.1245 35.0798 25.912V25.8636L35.1242 25.8429C35.1639 25.8296 35.1991 25.8054 35.2259 25.7732C35.2527 25.7409 35.2699 25.7019 35.2758 25.6604C35.2943 25.4645 35.0633 25.1798 34.8963 25.0581C34.4634 24.757 33.9403 24.6135 33.4144 24.6518V24.6549Z" fill="black"/>
<path fill-rule="evenodd" clip-rule="evenodd" d="M35.1592 25.9121C35.0298 25.8835 34.9117 25.8171 34.8199 25.7213Z" fill="#C6B198"/>
<path d="M35.1592 25.9925C35.15 25.9941 35.1406 25.9941 35.1314 25.9925L35.0788 25.974C34.953 25.9423 34.84 25.8729 34.755 25.7749C34.7473 25.7665 34.7414 25.7566 34.7378 25.7458C34.7342 25.735 34.7329 25.7236 34.7339 25.7122C34.735 25.7009 34.7384 25.6899 34.744 25.68C34.7496 25.6701 34.7572 25.6614 34.7663 25.6546C34.7755 25.6478 34.7859 25.643 34.797 25.6404C34.8081 25.6379 34.8196 25.6378 34.8308 25.64C34.842 25.6422 34.8526 25.6467 34.8619 25.6532C34.8712 25.6598 34.8791 25.6682 34.8849 25.678C34.9515 25.7496 35.0381 25.7995 35.1334 25.8213L35.1881 25.8409C35.2053 25.848 35.2196 25.8607 35.2285 25.877C35.2375 25.8933 35.2406 25.9122 35.2373 25.9305C35.2341 25.9488 35.2246 25.9655 35.2106 25.9777C35.1966 25.9899 35.1788 25.997 35.1603 25.9977L35.1592 25.9925Z" fill="black"/>
<path fill-rule="evenodd" clip-rule="evenodd" d="M24.5064 10.4773C27.7713 10.4773 30.8321 10.9445 32.4274 14.0815C33.8598 17.597 33.3504 21.389 33.569 25.1045C33.7567 28.2952 34.1723 31.9809 32.6925 34.9385C31.1353 38.0488 27.2444 38.8315 24.0382 38.717C21.5199 38.6273 18.4788 37.8054 17.0577 35.5047C15.3902 32.8059 16.1801 28.7923 16.3008 25.7893C16.4441 22.2325 15.3376 18.6634 16.507 15.1829C17.7198 11.5735 20.9888 10.7557 24.5074 10.4773" fill="#6AD7E5"/>
<path d="M24.5961 38.8068C24.3899 38.8068 24.2042 38.8068 24.0361 38.7965C22.4893 38.7408 18.6984 38.3128 16.9896 35.546C15.6418 33.3639 15.8821 30.3475 16.0935 27.6858C16.1471 27.0165 16.1966 26.3833 16.2213 25.7852C16.2454 24.5229 16.1913 23.2603 16.0594 22.0047C15.7087 19.7207 15.8351 17.3888 16.4307 15.1561C16.6774 14.3605 17.0873 13.625 17.6342 12.9966C18.1811 12.3682 18.8529 11.8607 19.6069 11.5065C21.1532 10.8304 22.8136 10.4535 24.5002 10.3959H24.5064C27.694 10.3959 30.8692 10.8383 32.4996 14.0444V14.0506C33.3691 16.6249 33.7347 19.3426 33.5762 22.0552C33.5814 23.0545 33.5876 24.0888 33.6464 25.0994C33.6639 25.4088 33.6845 25.7182 33.7051 26.0276C33.8949 28.9573 34.1094 32.279 32.7616 34.9716C31.0816 38.3345 26.8411 38.8068 24.5961 38.8068V38.8068ZM24.5095 10.5578C21.1126 10.8269 17.8064 11.5767 16.5823 15.2077C15.9947 17.4196 15.8707 19.7291 16.2182 21.9912C16.3497 23.2538 16.4027 24.5233 16.3771 25.7924C16.3523 26.3947 16.3028 27.0299 16.2492 27.7002C16.0429 30.3372 15.8016 33.3257 17.1216 35.4625C18.7902 38.1633 22.513 38.582 24.0361 38.6356C26.0182 38.7068 30.8207 38.484 32.6141 34.9015C33.9423 32.2481 33.7289 28.9501 33.5422 26.041L33.4834 25.1128C33.4236 24.0981 33.4185 23.0617 33.4133 22.0603C33.5706 19.3698 33.2097 16.6741 32.3501 14.1197C30.763 10.9899 27.6435 10.5588 24.5095 10.5578V10.5578Z" fill="black"/>
<path fill-rule="evenodd" clip-rule="evenodd" d="M25.0829 14.8602C25.6686 18.2633 31.2395 17.3672 30.4392 13.9321C29.7173 10.8507 24.888 11.7035 25.0829 14.8602Z" fill="white"/>
<path d="M27.7291 17.0835C27.3825 17.0848 27.0382 17.0283 26.7102 16.9165C26.2637 16.7688 25.8673 16.4991 25.5661 16.1378C25.2648 15.7766 25.0707 15.3383 25.0056 14.8725V14.8643C24.9645 14.1521 25.2012 13.4518 25.6658 12.9106C26.1305 12.3694 26.7869 12.0295 27.4971 11.9623C28.1555 11.8257 28.8412 11.9537 29.4061 12.3186C29.9709 12.6835 30.3694 13.256 30.5155 13.9124C30.6364 14.3398 30.6355 14.7925 30.5128 15.2194C30.3902 15.6464 30.1508 16.0305 29.8215 16.3286C29.2382 16.8249 28.4949 17.0931 27.7291 17.0835V17.0835ZM25.1613 14.8509C25.2232 15.2878 25.4058 15.6989 25.6885 16.0377C25.9713 16.3766 26.343 16.6298 26.7618 16.769C27.2608 16.9363 27.7944 16.973 28.3116 16.8755C28.8288 16.778 29.3124 16.5496 29.7163 16.2121C30.0252 15.932 30.2494 15.5711 30.3637 15.1701C30.478 14.7691 30.4777 14.3442 30.3629 13.9434C30.2235 13.3257 29.8464 12.7879 29.3133 12.4463C28.7802 12.1046 28.134 11.9867 27.5146 12.1181C26.8453 12.1815 26.2266 12.5014 25.7879 13.0108C25.3493 13.5202 25.1247 14.1796 25.1613 14.8509V14.8509Z" fill="black"/>
<path fill-rule="evenodd" clip-rule="evenodd" d="M18.4272 15.4109C19.1862 18.3778 23.9361 17.6146 23.7567 14.6426C23.5422 11.0786 17.7001 11.7664 18.4261 15.4109" fill="white"/>
<path d="M20.961 17.3682C20.4779 17.3728 20.0013 17.2573 19.574 17.032C19.2689 16.8664 19.0024 16.638 18.792 16.362C18.5815 16.086 18.4319 15.7685 18.353 15.4305C18.2357 14.9686 18.2537 14.4828 18.4047 14.0308C18.5557 13.5789 18.8334 13.1798 19.2048 12.8812C19.6528 12.5396 20.1831 12.3221 20.742 12.2508C21.3009 12.1794 21.8687 12.2567 22.3882 12.4749C22.8111 12.6596 23.172 12.9619 23.4279 13.3458C23.6839 13.7298 23.8241 14.1792 23.832 14.6405C23.856 15.3056 23.6248 15.9548 23.1857 16.455C22.7467 16.9552 22.133 17.2686 21.4704 17.3311C21.3018 17.3566 21.1315 17.369 20.961 17.3682V17.3682ZM18.5015 15.3944C18.6649 16.0162 19.0639 16.55 19.614 16.8828C20.1641 17.2156 20.8221 17.3212 21.4488 17.1774C22.0735 17.1199 22.6526 16.8258 23.0676 16.3554C23.4826 15.885 23.7022 15.2737 23.6814 14.6467C23.6749 14.2129 23.5436 13.79 23.3033 13.4287C23.0631 13.0674 22.7239 12.7828 22.3264 12.609C21.8325 12.4014 21.2926 12.3277 20.7612 12.3954C20.2298 12.4631 19.7257 12.6698 19.2997 12.9947C18.9507 13.2761 18.6899 13.652 18.5484 14.0774C18.4069 14.5028 18.3906 14.9599 18.5015 15.3944V15.3944Z" fill="black"/>
<path fill-rule="evenodd" clip-rule="evenodd" d="M25.7553 18.949C25.8041 19.4181 25.8096 19.8907 25.7718 20.3608C25.6583 20.5743 25.4366 20.597 25.2458 20.6836C25.1158 20.6632 24.9931 20.6099 24.8893 20.5289C24.7856 20.4479 24.7042 20.3418 24.6529 20.2206C24.6244 19.6878 24.6386 19.1537 24.6951 18.6232L25.7553 18.949Z" fill="white"/>
<path d="M25.2571 20.7671H25.2334C25.0893 20.7443 24.9534 20.6849 24.8388 20.5947C24.7242 20.5044 24.6346 20.3863 24.5786 20.2515V20.2299C24.5442 19.8651 24.5473 19.4978 24.5879 19.1336C24.6013 18.9655 24.6147 18.7923 24.6198 18.618V18.5149L25.8377 18.8882V18.948C25.8377 19.0945 25.8501 19.246 25.8625 19.4059C25.9003 19.7277 25.8976 20.0531 25.8542 20.3742V20.3866L25.848 20.398C25.8011 20.4754 25.7392 20.5427 25.6658 20.5958C25.5925 20.6489 25.5093 20.6869 25.4211 20.7073C25.3726 20.7249 25.3273 20.7403 25.2829 20.761L25.2571 20.7671ZM24.7322 20.1989C24.7775 20.3014 24.8469 20.3913 24.9346 20.461C25.0222 20.5307 25.1255 20.5781 25.2355 20.599C25.2778 20.5815 25.3211 20.566 25.3623 20.5506C25.4966 20.5227 25.6152 20.4449 25.6944 20.333C25.7312 20.0292 25.7312 19.7221 25.6944 19.4183C25.6841 19.277 25.6738 19.1419 25.6707 19.0058L24.7683 18.7294C24.7611 18.8696 24.7508 19.0089 24.7405 19.1419C24.7012 19.493 24.6977 19.8471 24.7302 20.1989H24.7322Z" fill="black"/>
<path d="M19.7369 15.7955C20.18 15.7955 20.5392 15.4067 20.5392 14.9271C20.5392 14.4476 20.18 14.0588 19.7369 14.0588C19.2938 14.0588 18.9346 14.4476 18.9346 14.9271C18.9346 15.4067 19.2938 15.7955 19.7369 15.7955Z" fill="black"/>
<path d="M20.1019 15.3438C20.2062 15.3438 20.2906 15.245 20.2906 15.1232C20.2906 15.0013 20.2062 14.9025 20.1019 14.9025C19.9977 14.9025 19.9132 15.0013 19.9132 15.1232C19.9132 15.245 19.9977 15.3438 20.1019 15.3438Z" fill="white"/>
<path d="M26.4565 15.5789C26.8922 15.5789 27.2454 15.1902 27.2454 14.7106C27.2454 14.231 26.8922 13.8423 26.4565 13.8423C26.0208 13.8423 25.6676 14.231 25.6676 14.7106C25.6676 15.1902 26.0208 15.5789 26.4565 15.5789Z" fill="black"/>
<path d="M26.8154 15.1273C26.9179 15.1273 27.001 15.0285 27.001 14.9066C27.001 14.7847 26.9179 14.6859 26.8154 14.6859C26.7129 14.6859 26.6298 14.7847 26.6298 14.9066C26.6298 15.0285 26.7129 15.1273 26.8154 15.1273Z" fill="white"/>
<path fill-rule="evenodd" clip-rule="evenodd" d="M23.4628 18.9005C23.1132 19.7482 23.6577 21.4446 24.6075 20.1937C24.579 19.661 24.5931 19.1268 24.6497 18.5963L23.4628 18.9005Z" fill="white"/>
<path d="M23.9733 20.7218C23.8913 20.7214 23.8109 20.6993 23.7402 20.6579C23.5127 20.4274 23.358 20.135 23.2954 19.8172C23.2329 19.4994 23.2653 19.1702 23.3886 18.8707L23.404 18.8336L24.7302 18.4912V18.5943C24.7251 18.7696 24.7106 18.945 24.6972 19.11C24.6572 19.4631 24.6537 19.8194 24.6869 20.1732V20.2062L24.6673 20.233C24.394 20.6053 24.1579 20.7218 23.9733 20.7218ZM23.5237 18.9687C23.4253 19.2288 23.401 19.511 23.4534 19.7841C23.5058 20.0572 23.633 20.3104 23.8207 20.5156C24.0661 20.6558 24.3363 20.4124 24.5229 20.1701C24.4932 19.8161 24.4977 19.46 24.5363 19.1069C24.5467 18.9738 24.557 18.8377 24.5642 18.7026L23.5237 18.9687Z" fill="black"/>
<path fill-rule="evenodd" clip-rule="evenodd" d="M23.5824 17.2671C23.4196 17.2824 23.2628 17.3361 23.1249 17.4239C22.9871 17.5118 22.872 17.6311 22.7893 17.7721C22.7066 17.9131 22.6586 18.0718 22.6493 18.235C22.64 18.3982 22.6696 18.5613 22.7357 18.7108C23.1843 19.5234 24.1867 18.6386 24.8116 18.7221C25.5335 18.7366 26.1193 19.4822 26.6957 18.8572C27.3372 18.1622 26.4193 17.4847 25.7016 17.1825L23.5824 17.2671Z" fill="#F6D2A2"/>
<path d="M26.1822 19.1883C25.952 19.1702 25.7274 19.1075 25.5212 19.0037C25.2989 18.8933 25.0579 18.8254 24.8106 18.8037H24.8013C24.5483 18.8038 24.2981 18.8572 24.0671 18.9604C23.5607 19.1357 22.9863 19.3337 22.6646 18.7542C22.5866 18.6082 22.547 18.4449 22.5496 18.2795C22.5521 18.114 22.5966 17.952 22.679 17.8085C22.7659 17.6395 22.8931 17.4946 23.0494 17.3866C23.2058 17.2787 23.3864 17.2111 23.5752 17.1897L25.7171 17.099L25.7336 17.1062C26.2667 17.331 26.8742 17.7425 26.9783 18.2231C26.9923 18.3391 26.9825 18.4568 26.9496 18.5689C26.9167 18.6811 26.8614 18.7854 26.7869 18.8755C26.7124 18.9655 26.6204 19.0396 26.5165 19.093C26.4125 19.1464 26.2988 19.1781 26.1822 19.1862V19.1883ZM24.8178 18.6459C25.0844 18.6677 25.3443 18.7398 25.5841 18.8583C25.9893 19.0285 26.3059 19.1625 26.637 18.8067C26.7108 18.7387 26.7663 18.6531 26.7984 18.558C26.8305 18.4628 26.8381 18.3611 26.8205 18.2622C26.7308 17.8497 26.1585 17.4692 25.6862 17.2681L23.5865 17.3517C23.4254 17.3719 23.2715 17.4311 23.1382 17.5239C23.0049 17.6168 22.8962 17.7406 22.8213 17.8848C22.752 18.0045 22.7142 18.1399 22.7114 18.2783C22.7087 18.4167 22.7412 18.5534 22.8059 18.6758C23.0616 19.1388 23.5277 18.979 24.0124 18.8098C24.2659 18.6975 24.5407 18.6416 24.8178 18.6459V18.6459Z" fill="#231F20"/>
<path fill-rule="evenodd" clip-rule="evenodd" d="M23.5009 17.233C23.4525 16.1038 25.6067 15.9646 25.8646 16.9082C26.1224 17.8518 23.6102 18.0714 23.504 17.2341L23.5009 17.233Z" fill="black"/>
<circle cx="25" cy="25" r="24.5" stroke="#444444"/>
</svg>
