<svg width="50" height="50" viewBox="0 0 50 50" fill="none" xmlns="http://www.w3.org/2000/svg">
<g clip-path="url(#clip0_5_81)">
<path d="M11.6 11.2H38.7739V38.3739H11.6V11.2Z" fill="#F7DF1E"/>
<path d="M18.745 33.9084L20.8245 32.6499C21.2257 33.3612 21.5907 33.9631 22.4661 33.9631C23.3052 33.9631 23.8343 33.6349 23.8343 32.3581V23.6754H26.3879V32.3942C26.3879 35.0391 24.8375 36.243 22.5755 36.243C20.5327 36.243 19.3469 35.1851 18.7449 33.9082" fill="black"/>
<path d="M27.775 33.6348L29.8542 32.431C30.4016 33.3249 31.113 33.9815 32.3715 33.9815C33.4297 33.9815 34.1044 33.4525 34.1044 32.7228C34.1044 31.8473 33.4112 31.5371 32.2438 31.0266L31.6055 30.7527C29.7631 29.9686 28.541 28.9835 28.541 26.9041C28.541 24.9887 30.0003 23.5294 32.2804 23.5294C33.9039 23.5294 35.0713 24.095 35.9103 25.5725L33.9219 26.8494C33.484 26.0651 33.01 25.755 32.2803 25.755C31.5324 25.755 31.0581 26.2293 31.0581 26.8494C31.0581 27.6155 31.5324 27.9258 32.6268 28.4L33.2652 28.6736C35.4359 29.604 36.658 30.5524 36.658 32.6864C36.658 34.9849 34.8522 36.2434 32.4262 36.2434C30.0549 36.2434 28.5227 35.1125 27.7749 33.6349" fill="black"/>
</g>
<circle cx="25" cy="25" r="24.5" stroke="#444444"/>
<defs>
<clipPath id="clip0_5_81">
<rect width="27.1739" height="27.1739" fill="white" transform="translate(11.6 11.2)"/>
</clipPath>
</defs>
</svg>
