<svg width="21" height="20" viewBox="0 0 21 20" fill="none" xmlns="http://www.w3.org/2000/svg">
<path d="M7.014 20H8.014V18H7.025C6.717 17.994 4.014 17.827 4.014 14C4.014 12.007 3.349 10.754 2.512 10C3.349 9.246 4.014 7.993 4.014 6C4.014 2.173 6.717 2.006 7.014 2H8.014V0H7.012C5.283 0.004 2.014 1.264 2.014 6C2.014 8.8 0.336 8.99 0 9L0.0140001 11C0.0960001 11 2.014 11.034 2.014 14C2.014 18.736 5.283 19.996 7.014 20ZM20.014 9C19.932 9 18.014 8.966 18.014 6C18.014 1.264 14.745 0.004 13.014 0H12.014V2H13.003C13.311 2.006 16.014 2.173 16.014 6C16.014 7.993 16.679 9.246 17.516 10C16.679 10.754 16.014 12.007 16.014 14C16.014 17.827 13.311 17.994 13.014 18H12.014V20H13.016C14.745 19.996 18.014 18.736 18.014 14C18.014 11.2 19.692 11.01 20.028 11L20.014 9Z" fill="white"/>
</svg>
