<svg width="50" height="50" viewBox="0 0 50 50" fill="none" xmlns="http://www.w3.org/2000/svg">
<g clip-path="url(#clip0_5_56)">
<path d="M24.697 35.4809C24.5967 35.4809 24.5031 35.4543 24.4162 35.4075L23.5269 34.88C23.3932 34.8065 23.4601 34.7798 23.5002 34.7665C23.6807 34.7064 23.7141 34.693 23.9013 34.5862C23.9214 34.5728 23.9482 34.5795 23.9682 34.5929L24.6502 35.0002C24.6769 35.0135 24.7104 35.0135 24.7304 35.0002L27.3982 33.4577C27.4249 33.4443 27.4383 33.4176 27.4383 33.3842V30.3059C27.4383 30.2724 27.4249 30.2458 27.3982 30.2324L24.7304 28.6965C24.7037 28.6831 24.6702 28.6831 24.6502 28.6965L21.9824 30.2324C21.9557 30.2457 21.9423 30.2791 21.9423 30.3058V33.3842C21.9423 33.4109 21.9557 33.4443 21.9824 33.4577L22.7112 33.8783C23.1057 34.0786 23.3531 33.8449 23.3531 33.6112V30.5729C23.3531 30.5329 23.3865 30.4928 23.4333 30.4928H23.7743C23.8145 30.4928 23.8545 30.5262 23.8545 30.5729V33.6112C23.8545 34.1387 23.567 34.4459 23.0656 34.4459C22.9118 34.4459 22.7915 34.4459 22.4504 34.279L21.7484 33.8783C21.5746 33.7782 21.4676 33.5912 21.4676 33.3909V30.3125C21.4676 30.1122 21.5746 29.9252 21.7484 29.825L24.4162 28.2825C24.5833 28.189 24.8107 28.189 24.9778 28.2825L27.6456 29.825C27.8194 29.9252 27.9264 30.1122 27.9264 30.3125V33.3909C27.9264 33.5912 27.8194 33.7782 27.6456 33.8783L24.9778 35.4209C24.8909 35.461 24.7906 35.4809 24.697 35.4809H24.697ZM25.5194 33.3642C24.3493 33.3642 24.1086 32.83 24.1086 32.3759C24.1086 32.3358 24.1421 32.2958 24.1889 32.2958H24.5365C24.5766 32.2958 24.6101 32.3225 24.6101 32.3626C24.6636 32.7164 24.8174 32.8901 25.5261 32.8901C26.0877 32.8901 26.3285 32.7632 26.3285 32.4627C26.3285 32.2891 26.2615 32.1622 25.3857 32.0754C24.6569 32.0019 24.2022 31.8417 24.2022 31.2607C24.2022 30.7198 24.6569 30.3993 25.4191 30.3993C26.2749 30.3993 26.6962 30.6931 26.7497 31.3341C26.7497 31.3542 26.743 31.3742 26.7296 31.3943C26.7162 31.4076 26.6962 31.421 26.6761 31.421H26.3284C26.295 31.421 26.2615 31.3943 26.2549 31.3609C26.1746 30.9936 25.9674 30.8734 25.4191 30.8734C24.804 30.8734 24.7304 31.0871 24.7304 31.2473C24.7304 31.441 24.8174 31.5011 25.6464 31.6079C26.4688 31.7148 26.8566 31.8684 26.8566 32.4426C26.8499 33.0303 26.3686 33.3642 25.5194 33.3642Z" fill="#539E43"/>
<path d="M16.4196 23.4413C16.4196 23.3211 16.3527 23.2075 16.2457 23.1474L13.4108 21.5181C13.3639 21.4914 13.3105 21.478 13.257 21.4713H13.2302C13.1768 21.4713 13.1233 21.4914 13.0765 21.5181L10.2416 23.1474C10.1345 23.2075 10.0677 23.321 10.0677 23.4413L10.0744 27.8218C10.0744 27.8818 10.1079 27.9419 10.1613 27.9687C10.2148 28.0021 10.2817 28.0021 10.3285 27.9687L12.0134 27.0071C12.1204 26.947 12.1873 26.8335 12.1873 26.7133V24.6633C12.1873 24.5431 12.2541 24.4296 12.3611 24.3695L13.0765 23.9554C13.13 23.922 13.1902 23.9086 13.2503 23.9086C13.3105 23.9086 13.3706 23.922 13.4175 23.9554L14.1329 24.3695C14.2399 24.4296 14.3067 24.543 14.3067 24.6633V26.7133C14.3067 26.8335 14.3736 26.947 14.4806 27.0071L16.1655 27.9687C16.219 28.0021 16.2858 28.0021 16.3393 27.9687C16.3928 27.9419 16.4263 27.8818 16.4263 27.8218L16.4196 23.4413Z" fill="#333333"/>
<path d="M30.0459 17.4114C29.9924 17.3847 29.9256 17.3847 29.8787 17.4114C29.8252 17.4448 29.7918 17.4982 29.7918 17.5583V21.8988C29.7918 21.9388 29.7718 21.9789 29.7316 22.0056C29.6916 22.0256 29.6514 22.0256 29.6113 22.0056L28.9026 21.5983C28.8506 21.5687 28.7919 21.5532 28.7321 21.5532C28.6723 21.5532 28.6135 21.5687 28.5616 21.5983L25.7266 23.2343C25.6197 23.2944 25.5528 23.4079 25.5528 23.5281V26.7934C25.5528 26.9136 25.6197 27.0272 25.7266 27.0873L28.5616 28.7233C28.6135 28.7528 28.6723 28.7684 28.7321 28.7684C28.7919 28.7684 28.8506 28.7528 28.9026 28.7233L31.7375 27.0873C31.8445 27.0272 31.9113 26.9137 31.9113 26.7934V18.6535C31.9113 18.5266 31.8445 18.4131 31.7375 18.353L30.0459 17.4114H30.0459ZM29.7852 25.7184C29.7852 25.7518 29.7718 25.7785 29.745 25.7918L28.7755 26.3527C28.762 26.3593 28.7471 26.3627 28.7321 26.3627C28.717 26.3627 28.7021 26.3593 28.6886 26.3527L27.7191 25.7918C27.6923 25.7785 27.679 25.7451 27.679 25.7184V24.5965C27.679 24.5631 27.6923 24.5364 27.7191 24.5231L28.6886 23.9621C28.7021 23.9555 28.717 23.9521 28.7321 23.9521C28.7471 23.9521 28.762 23.9555 28.7755 23.9621L29.745 24.5231C29.7718 24.5364 29.7852 24.5698 29.7852 24.5965V25.7184Z" fill="#333333"/>
<path d="M39.48 24.5698C39.587 24.5097 39.6472 24.3962 39.6472 24.276V23.4814C39.6472 23.3612 39.5803 23.2477 39.48 23.1876L36.6652 21.5583C36.6132 21.5287 36.5544 21.5132 36.4947 21.5132C36.4349 21.5132 36.3761 21.5287 36.3242 21.5583L33.4893 23.1942C33.3822 23.2543 33.3154 23.3678 33.3154 23.4881V26.7534C33.3154 26.8736 33.3822 26.9871 33.4893 27.0472L36.3041 28.6498C36.4111 28.7099 36.5381 28.7099 36.6384 28.6498L38.3433 27.7017C38.3969 27.6749 38.4303 27.6148 38.4303 27.5548C38.4303 27.4947 38.3969 27.4346 38.3433 27.4078L35.4951 25.7718C35.4416 25.7385 35.4082 25.685 35.4082 25.6249V24.6033C35.4082 24.5432 35.4416 24.4831 35.4951 24.4563L36.3843 23.9488C36.4104 23.9325 36.4405 23.9238 36.4713 23.9238C36.502 23.9238 36.5322 23.9325 36.5582 23.9488L37.4474 24.4563C37.5009 24.4897 37.5344 24.5431 37.5344 24.6033V25.4046C37.5344 25.4647 37.5678 25.5248 37.6213 25.5515C37.6748 25.5848 37.7416 25.5848 37.7951 25.5515L39.48 24.5698V24.5698Z" fill="#333333"/>
<path d="M36.4512 24.4162C36.4611 24.4097 36.4728 24.4062 36.4846 24.4062C36.4965 24.4062 36.5081 24.4097 36.518 24.4162L37.0596 24.7301C37.0797 24.7434 37.0931 24.7634 37.0931 24.7902V25.4179C37.0931 25.4446 37.0797 25.4646 37.0596 25.478L36.518 25.7918C36.5081 25.7983 36.4965 25.8018 36.4846 25.8018C36.4728 25.8018 36.4611 25.7983 36.4512 25.7918L35.9096 25.478C35.8896 25.4646 35.8762 25.4446 35.8762 25.4179V24.7902C35.8762 24.7634 35.8896 24.7434 35.9096 24.7301L36.4512 24.4162V24.4162Z" fill="#539E43"/>
<mask id="mask0_5_56" style="mask-type:alpha" maskUnits="userSpaceOnUse" x="17" y="21" width="8" height="8">
<path d="M21.16 21.5716C21.1081 21.542 21.0493 21.5265 20.9895 21.5265C20.9297 21.5265 20.871 21.542 20.819 21.5716L18.0042 23.1941C17.8972 23.2542 17.837 23.3677 17.837 23.4879V26.7399C17.837 26.8601 17.9039 26.9737 18.0042 27.0337L20.819 28.6564C20.871 28.6859 20.9297 28.7015 20.9895 28.7015C21.0493 28.7015 21.1081 28.6859 21.16 28.6564L23.9749 27.0337C24.0819 26.9737 24.1421 26.8601 24.1421 26.7399V23.488C24.1421 23.3678 24.0752 23.2543 23.9749 23.1942L21.16 21.5716Z" fill="white"/>
</mask>
<g mask="url(#mask0_5_56)">
<path d="M21.16 21.5716C21.1081 21.542 21.0493 21.5265 20.9895 21.5265C20.9297 21.5265 20.871 21.542 20.819 21.5716L18.0042 23.1941C17.8972 23.2542 17.837 23.3677 17.837 23.4879V26.7399C17.837 26.8601 17.9039 26.9737 18.0042 27.0337L20.819 28.6564C20.871 28.6859 20.9297 28.7015 20.9895 28.7015C21.0493 28.7015 21.1081 28.6859 21.16 28.6564L23.9749 27.0337C24.0819 26.9737 24.1421 26.8601 24.1421 26.7399V23.488C24.1421 23.3678 24.0752 23.2543 23.9749 23.1942L21.16 21.5716Z" fill="url(#paint0_linear_5_56)"/>
<path d="M23.9815 23.1942L21.1533 21.5716C21.1256 21.5576 21.0964 21.5464 21.0664 21.5382L17.8972 26.9605C17.9234 26.9925 17.9551 27.0196 17.9908 27.0406L20.819 28.6633C20.8993 28.71 20.9929 28.7234 21.0798 28.6966L24.0551 23.2611C24.0351 23.2344 24.0083 23.2143 23.9815 23.1943V23.1942Z" fill="url(#paint1_linear_5_56)"/>
<path fill-rule="evenodd" clip-rule="evenodd" d="M23.9883 27.0338C24.0685 26.9871 24.1287 26.9069 24.1554 26.8201L21.053 21.5315C20.9727 21.5181 20.8858 21.5248 20.8123 21.5715L18.0041 23.1875L21.0329 28.7032C21.0769 28.696 21.1197 28.6825 21.1599 28.6632L23.9882 27.0339L23.9883 27.0338Z" fill="url(#paint2_linear_5_56)"/>
<path fill-rule="evenodd" clip-rule="evenodd" d="M23.9883 27.0337L21.1667 28.6564C21.1269 28.6767 21.0839 28.6902 21.0397 28.6964L21.0932 28.7966L24.2223 26.987V26.9469L24.142 26.8134C24.1287 26.9068 24.0685 26.987 23.9883 27.0337V27.0337Z" fill="url(#paint3_linear_5_56)"/>
<path fill-rule="evenodd" clip-rule="evenodd" d="M23.9883 27.0337L21.1667 28.6564C21.1269 28.6767 21.0839 28.6902 21.0397 28.6964L21.0932 28.7966L24.2223 26.987V26.9469L24.142 26.8134C24.1287 26.9068 24.0685 26.987 23.9883 27.0337V27.0337Z" fill="url(#paint4_linear_5_56)"/>
</g>
</g>
<circle cx="25" cy="25" r="24.5" stroke="#444444"/>
<defs>
<linearGradient id="paint0_linear_5_56" x1="22.1363" y1="22.7812" x2="19.0566" y2="27.6265" gradientUnits="userSpaceOnUse">
<stop stop-color="#41873F"/>
<stop offset="0.3288" stop-color="#418B3D"/>
<stop offset="0.6352" stop-color="#419637"/>
<stop offset="0.9319" stop-color="#3FA92D"/>
<stop offset="1" stop-color="#3FAE2A"/>
</linearGradient>
<linearGradient id="paint1_linear_5_56" x1="20.5621" y1="25.495" x2="28.2847" y2="21.2939" gradientUnits="userSpaceOnUse">
<stop offset="0.1376" stop-color="#41873F"/>
<stop offset="0.4032" stop-color="#54A044"/>
<stop offset="0.7136" stop-color="#66B848"/>
<stop offset="0.9081" stop-color="#6CC04A"/>
</linearGradient>
<linearGradient id="paint2_linear_5_56" x1="17.7341" y1="25.1141" x2="24.2477" y2="25.1141" gradientUnits="userSpaceOnUse">
<stop offset="0.09192" stop-color="#6CC04A"/>
<stop offset="0.2864" stop-color="#66B848"/>
<stop offset="0.5968" stop-color="#54A044"/>
<stop offset="0.8624" stop-color="#41873F"/>
</linearGradient>
<linearGradient id="paint3_linear_5_56" x1="17.7342" y1="27.8104" x2="24.2476" y2="27.8104" gradientUnits="userSpaceOnUse">
<stop offset="0.09192" stop-color="#6CC04A"/>
<stop offset="0.2864" stop-color="#66B848"/>
<stop offset="0.5968" stop-color="#54A044"/>
<stop offset="0.8624" stop-color="#41873F"/>
</linearGradient>
<linearGradient id="paint4_linear_5_56" x1="25.1966" y1="22.6273" x2="23.5505" y2="31.2636" gradientUnits="userSpaceOnUse">
<stop stop-color="#41873F"/>
<stop offset="0.3288" stop-color="#418B3D"/>
<stop offset="0.6352" stop-color="#419637"/>
<stop offset="0.9319" stop-color="#3FA92D"/>
<stop offset="1" stop-color="#3FAE2A"/>
</linearGradient>
<clipPath id="clip0_5_56">
<rect width="29.6196" height="18.142" fill="white" transform="translate(10.0544 17.3914)"/>
</clipPath>
</defs>
</svg>
