<svg width="50" height="50" viewBox="0 0 50 50" fill="none" xmlns="http://www.w3.org/2000/svg">
<g clip-path="url(#clip0_124_2285)">
<path d="M39.5593 31.054C39.3817 30.5163 38.9164 30.1419 38.3148 30.052C38.0311 30.0097 37.7062 30.0277 37.3217 30.107C36.6516 30.2452 36.1544 30.2978 35.7916 30.308C37.1611 27.9967 38.2747 25.3611 38.9158 22.8801C39.9525 18.8685 39.3986 17.0409 38.7512 16.2142C37.038 14.0262 34.5385 12.8507 31.5231 12.8148C29.9145 12.7951 28.5024 13.1126 27.7657 13.3409C27.0798 13.2199 26.3423 13.1523 25.5685 13.1399C24.118 13.1167 22.8364 13.4328 21.7412 14.0824C21.135 13.8775 20.1619 13.5886 19.0382 13.4042C16.3954 12.9706 14.2653 13.3085 12.7073 14.4086C10.8206 15.7407 9.94606 18.055 10.1078 21.2873C10.1592 22.3136 10.7335 25.4361 11.6378 28.3973C12.1576 30.0994 12.7118 31.5129 13.2851 32.5988C14.0981 34.1387 14.9681 35.0454 15.9447 35.3711C16.4921 35.5534 17.4867 35.681 18.5327 34.8102C18.6653 34.9707 18.8422 35.1302 19.077 35.2784C19.3752 35.4663 19.7397 35.6199 20.1038 35.7109C21.416 36.0387 22.6451 35.9567 23.6937 35.4972C23.7002 35.6836 23.7052 35.8617 23.7093 36.0155C23.7163 36.265 23.7232 36.5095 23.7324 36.7383C23.7945 38.285 23.8998 39.4876 24.2117 40.329C24.2288 40.3753 24.2518 40.4458 24.2761 40.5207C24.4318 40.9969 24.692 41.7942 25.354 42.4186C26.0396 43.0654 26.8688 43.2637 27.6282 43.2637C28.0091 43.2637 28.3726 43.2137 28.6913 43.1455C29.8275 42.9021 31.1179 42.5313 32.0514 41.2027C32.934 39.9468 33.363 38.0552 33.4406 35.0746C33.4507 34.9903 33.4599 34.9098 33.4689 34.8331L33.4874 34.6756L33.6953 34.6939L33.7489 34.6975C34.9061 34.7502 36.3211 34.5049 37.1902 34.1014C37.8768 33.7829 40.0774 32.6217 39.5593 31.054" fill="black"/>
<path d="M37.5804 31.3588C34.1395 32.0683 33.9029 30.9039 33.9029 30.9039C37.5359 25.5155 39.0547 18.6758 37.7441 17.0018C34.1685 12.4354 27.9791 14.595 27.8757 14.651L27.8425 14.657C27.1627 14.5159 26.4019 14.432 25.5468 14.418C23.9899 14.3925 22.8088 14.826 21.9126 15.5053C21.9126 15.5053 10.8712 10.9587 11.3848 21.2234C11.494 23.407 14.5162 37.7463 18.1207 33.4152C19.4382 31.8314 20.7113 30.4923 20.7113 30.4923C21.3435 30.9121 22.1004 31.1263 22.8939 31.0494L22.9555 30.9971C22.9363 31.1937 22.9451 31.386 22.9802 31.6137C22.0516 32.6507 22.3245 32.8328 20.4682 33.2148C18.5898 33.6017 19.6932 34.2905 20.4137 34.4707C21.2871 34.6889 23.3077 34.9981 24.673 33.0878L24.6186 33.3058C24.9824 33.5971 25.2379 35.2004 25.195 36.654C25.1522 38.1074 25.1237 39.1054 25.4103 39.8848C25.6971 40.6643 25.9827 42.4181 28.4231 41.8955C30.4621 41.4587 31.5188 40.3268 31.6659 38.4388C31.7701 37.0966 32.0063 37.295 32.0211 36.095L32.2105 35.5269C32.4288 33.7074 32.2452 33.1204 33.5014 33.3934L33.8068 33.4203C34.7313 33.4622 35.9415 33.2715 36.6518 32.9416C38.1811 32.2322 39.0882 31.0476 37.5802 31.3588H37.5804" fill="#626262"/>
<path d="M22.559 22.1999C22.2489 22.1568 21.9681 22.1966 21.826 22.3042C21.7462 22.3647 21.7214 22.4348 21.7147 22.483C21.6969 22.6108 21.7864 22.7521 21.8415 22.825C21.9973 23.0313 22.2247 23.1731 22.4499 23.2043C22.4825 23.2089 22.515 23.211 22.5473 23.211C22.9227 23.211 23.2642 22.9188 23.2943 22.7031C23.3319 22.4329 22.9395 22.2529 22.559 22.2" fill="white"/>
<path d="M32.8314 22.2085C32.8018 21.9967 32.4248 21.9363 32.0671 21.9861C31.7098 22.0358 31.3634 22.197 31.3923 22.4092C31.4155 22.5742 31.7136 22.856 32.0665 22.856C32.0964 22.856 32.1264 22.854 32.1568 22.8497C32.3923 22.8171 32.5652 22.6676 32.6473 22.5814C32.7723 22.45 32.8447 22.3036 32.8314 22.2085" fill="white"/>
<path d="M38.7254 31.2782C38.5942 30.8817 38.1719 30.7541 37.4703 30.8989C35.3871 31.3286 34.6411 31.031 34.3961 30.8507C36.0154 28.3851 37.3474 25.4046 38.0661 22.6239C38.4065 21.3066 38.5945 20.0833 38.6099 19.0862C38.6269 17.9918 38.4404 17.1876 38.0558 16.6963C36.5051 14.7159 34.2293 13.6535 31.4744 13.6244C29.5805 13.6031 27.9804 14.0876 27.6702 14.2238C27.0169 14.0614 26.3048 13.9617 25.5295 13.949C24.1077 13.926 22.8787 14.2662 21.8613 14.9598C21.4193 14.7953 20.2771 14.4034 18.8802 14.1785C16.4653 13.7899 14.5463 14.0843 13.1768 15.054C11.5428 16.2112 10.7884 18.2797 10.9345 21.2018C10.9837 22.185 11.5442 25.2094 12.4286 28.1058C13.5928 31.918 14.8583 34.0761 16.1898 34.52C16.3457 34.572 16.5254 34.6083 16.7235 34.6083C17.2093 34.6083 17.8048 34.3895 18.4244 33.6449C19.1801 32.7388 19.9618 31.8546 20.7686 30.9936C21.292 31.2744 21.8671 31.4312 22.4552 31.4469C22.4563 31.4623 22.4578 31.4777 22.4592 31.493C22.358 31.6136 22.2588 31.736 22.1619 31.8602C21.7544 32.3772 21.6696 32.4849 20.3578 32.7548C19.9847 32.8318 18.9937 33.0359 18.9791 33.7303C18.9634 34.4889 20.1506 34.8075 20.2859 34.8413C20.7572 34.9593 21.2114 35.0174 21.6444 35.0174C22.6977 35.0174 23.6246 34.6714 24.3653 34.0019C24.3425 36.7065 24.4553 39.3715 24.7802 40.1834C25.0463 40.8482 25.6963 42.4727 27.7495 42.4725C28.0508 42.4725 28.3824 42.4375 28.7472 42.3593C30.8901 41.9002 31.8207 40.9535 32.1807 38.8664C32.3733 37.751 32.7039 35.0875 32.8594 33.6588C33.1875 33.7612 33.6099 33.808 34.0666 33.8079C35.0191 33.8079 36.1181 33.6056 36.8074 33.2859C37.5816 32.9264 38.9788 32.0445 38.7254 31.2782V31.2782ZM33.6223 21.624C33.6153 22.0457 33.5572 22.4286 33.4956 22.8283C33.4293 23.2582 33.3608 23.7026 33.3436 24.2421C33.3266 24.7671 33.3922 25.313 33.4556 25.8409C33.5838 26.9072 33.7153 28.0049 33.2061 29.0881C33.1216 28.9383 33.0462 28.7834 32.9805 28.6245C32.9172 28.4711 32.7798 28.2248 32.5895 27.8838C31.8491 26.5567 30.1153 23.4488 31.0028 22.1806C31.2672 21.8031 31.9382 21.415 33.6223 21.624V21.624ZM31.5809 14.4785C34.0493 14.5329 36.0018 15.4559 37.3842 17.2216C38.4445 18.576 37.277 24.7385 33.897 30.0549C33.863 30.0117 33.8288 29.9686 33.7945 29.9257L33.7517 29.8723C34.6251 28.4305 34.4543 27.004 34.3023 25.7393C34.2398 25.2203 34.1808 24.73 34.1959 24.2695C34.2114 23.7815 34.2759 23.3628 34.3384 22.9581C34.4151 22.4593 34.4932 21.9431 34.4717 21.3347C34.4878 21.2709 34.4942 21.1955 34.4858 21.106C34.4308 20.5225 33.7644 18.7764 32.4061 17.1959C31.663 16.3315 30.5795 15.3641 29.1 14.7116C29.7364 14.5798 30.6066 14.4568 31.5809 14.4785V14.4785ZM17.7687 33.1C17.086 33.9204 16.6147 33.7631 16.4596 33.7115C15.4496 33.3748 14.2775 31.2409 13.2442 27.857C12.35 24.9291 11.8275 21.9848 11.7861 21.1592C11.6556 18.5481 12.2888 16.7284 13.6683 15.7505C15.9134 14.1592 19.6045 15.1116 21.0877 15.5947C21.0664 15.6157 21.0442 15.6354 21.0231 15.6568C18.5892 18.1136 18.647 22.3111 18.653 22.5678C18.6528 22.6668 18.6611 22.8069 18.6724 22.9997C18.7143 23.7057 18.7923 25.0197 18.584 26.5078C18.3906 27.8906 18.8171 29.244 19.7539 30.2211C19.85 30.3212 19.9511 30.4164 20.0567 30.5065C19.6397 30.9529 18.7334 31.9401 17.7687 33.1V33.1ZM20.3695 29.6314C19.6145 28.8438 19.2715 27.7484 19.4285 26.6257C19.6484 25.0538 19.5673 23.6848 19.5236 22.9493C19.5175 22.8464 19.5121 22.7562 19.5089 22.685C19.8645 22.3699 21.5122 21.4875 22.6873 21.7566C23.2234 21.8793 23.5502 22.2443 23.686 22.872C24.389 26.1221 23.779 27.4766 23.2889 28.5652C23.1879 28.7895 23.0925 29.0015 23.011 29.2207L22.9478 29.3903C22.7879 29.8189 22.6391 30.2174 22.5469 30.5958C21.7442 30.5935 20.9633 30.2507 20.3695 29.6313V29.6314ZM20.4928 34.0144C20.2583 33.9559 20.0475 33.8543 19.9239 33.77C20.0272 33.7214 20.211 33.6552 20.5299 33.5895C22.073 33.2721 22.3114 33.048 22.8318 32.3875C22.9511 32.236 23.0863 32.0644 23.2736 31.8553L23.2739 31.8551C23.5528 31.5428 23.6804 31.5958 23.9118 31.6918C24.0994 31.7693 24.2821 32.0042 24.3561 32.2628C24.3912 32.385 24.4305 32.6167 24.3018 32.7971C23.2146 34.3186 21.6304 34.299 20.4928 34.0144V34.0144ZM28.5686 41.526C26.6808 41.9303 26.0124 40.9675 25.5719 39.8669C25.2877 39.1563 25.1479 35.9522 25.247 32.4138C25.2483 32.3667 25.2416 32.3212 25.2286 32.2784C25.2171 32.194 25.1994 32.1104 25.1759 32.0284C25.0285 31.5136 24.6692 31.0829 24.2382 30.9043C24.067 30.8334 23.7528 30.7033 23.3751 30.7999C23.4556 30.4682 23.5953 30.0936 23.7467 29.6881L23.8103 29.5175C23.8818 29.3252 23.9716 29.1259 24.0664 28.915C24.5793 27.7761 25.2818 26.2161 24.5194 22.692C24.2338 21.372 23.2802 20.7273 21.8347 20.8771C20.9681 20.9667 20.1752 21.3162 19.7797 21.5166C19.6946 21.5597 19.6169 21.6013 19.5442 21.6418C19.6546 20.3118 20.0716 17.8263 21.6315 16.2538C22.6137 15.2638 23.9217 14.7749 25.5154 14.8012C28.6555 14.8526 30.6692 16.4633 31.8056 17.8056C32.7849 18.9622 33.3151 20.1274 33.5268 20.7558C31.9353 20.594 30.8529 20.908 30.3042 21.6921C29.1105 23.3976 30.9573 26.7079 31.8448 28.2989C32.0076 28.5904 32.1481 28.8424 32.1923 28.9495C32.4813 29.6497 32.8555 30.1171 33.1286 30.4583C33.2124 30.5628 33.2936 30.6642 33.3554 30.7528C32.8734 30.8917 32.0076 31.2126 32.0865 32.8168C32.0229 33.6217 31.5704 37.3902 31.3405 38.7216C31.037 40.4806 30.3894 41.1358 28.5686 41.5261V41.526ZM36.4483 32.5129C35.9554 32.7415 35.1306 32.913 34.3471 32.9499C33.4816 32.9904 33.041 32.853 32.9374 32.7684C32.8888 31.7688 33.261 31.6644 33.6549 31.5538C33.7168 31.5365 33.7772 31.5195 33.8356 31.4991C33.8718 31.5286 33.9115 31.5578 33.955 31.5865C34.6506 32.0454 35.8912 32.0949 37.6428 31.7335L37.662 31.7297C37.4258 31.9505 37.0215 32.2468 36.4483 32.5129Z" fill="white"/>
</g>
<circle cx="25" cy="25" r="24.5" stroke="black"/>
<defs>
<clipPath id="clip0_124_2285">
<rect width="29.6196" height="30.5309" fill="white" transform="translate(10.0544 12.7717)"/>
</clipPath>
</defs>
</svg>
