<svg width="50" height="50" viewBox="0 0 50 50" fill="none" xmlns="http://www.w3.org/2000/svg">
<g clip-path="url(#clip0_18_634)">
<path d="M34.4075 20.4982C34.0923 20.39 33.7744 20.2898 33.4541 20.1977C33.508 19.9779 33.5575 19.7607 33.6014 19.5474C34.3232 16.0438 33.8514 13.2213 32.2397 12.2919C30.6946 11.401 28.1675 12.33 25.6154 14.5511C25.3639 14.7704 25.1179 14.996 24.8778 15.2278C24.717 15.0737 24.5534 14.9226 24.3871 14.7746C21.7123 12.3997 19.0313 11.3987 17.4214 12.3307C15.8776 13.2244 15.4205 15.8778 16.0702 19.1982C16.1349 19.527 16.2079 19.8542 16.2892 20.1793C15.9097 20.2871 15.5435 20.4019 15.193 20.5241C12.057 21.6175 10.0544 23.3309 10.0544 25.1082C10.0544 26.9438 12.2043 28.785 15.4706 29.9014C15.7354 29.9915 16.0024 30.075 16.2713 30.1519C16.184 30.502 16.1064 30.8546 16.0388 31.2091C15.4193 34.4719 15.9031 37.0626 17.4427 37.9506C19.0329 38.8676 21.7019 37.9251 24.3007 35.6533C24.5114 35.4687 24.7175 35.2787 24.9187 35.0837C25.1788 35.3347 25.4458 35.5783 25.7194 35.8143C28.2368 37.9804 30.723 38.8552 32.2612 37.9647C33.8498 37.045 34.3662 34.2619 33.6959 30.8759C33.643 30.6106 33.5838 30.3467 33.5182 30.0843C33.7057 30.0287 33.8897 29.9716 34.069 29.9121C37.4646 28.7872 39.6739 26.9683 39.6739 25.1082C39.6739 23.3244 37.6066 21.5994 34.4075 20.4982V20.4982ZM33.6711 28.7111C33.5091 28.7647 33.343 28.8164 33.1736 28.8668C32.7987 27.68 32.2929 26.4182 31.6737 25.1143C32.2645 23.8416 32.7509 22.5959 33.1153 21.4169C33.4183 21.5046 33.7123 21.597 33.9957 21.6945C36.7367 22.6382 38.4086 24.0332 38.4086 25.1082C38.4086 26.2532 36.603 27.7396 33.6711 28.7111V28.7111ZM32.4546 31.1217C32.751 32.6188 32.7933 33.9725 32.5969 35.0309C32.4206 35.9818 32.0658 36.6157 31.6271 36.8697C30.6937 37.41 28.6975 36.7077 26.5447 34.8551C26.2902 34.6357 26.0418 34.4092 25.7999 34.176C26.6346 33.2632 27.4687 32.2021 28.2828 31.0236C29.7147 30.8965 31.0675 30.6887 32.2942 30.4051C32.3546 30.6489 32.4083 30.8879 32.4546 31.1217V31.1217ZM20.1523 36.7763C19.2403 37.0983 18.514 37.1076 18.0749 36.8544C17.1406 36.3156 16.7522 34.2354 17.282 31.4452C17.345 31.1154 17.4171 30.7875 17.4982 30.4618C18.7115 30.7302 20.0544 30.9232 21.4897 31.0396C22.3093 32.1928 23.1675 33.2528 24.0324 34.1809C23.8486 34.3588 23.6604 34.5321 23.4681 34.7007C22.3188 35.7052 21.1672 36.4179 20.1523 36.7763V36.7763ZM15.8799 28.7041C14.4356 28.2104 13.2429 27.5688 12.4253 26.8687C11.6906 26.2396 11.3198 25.615 11.3198 25.1082C11.3198 24.0296 12.9277 22.6539 15.6095 21.719C15.935 21.6056 16.2756 21.4985 16.6291 21.3981C16.9998 22.6037 17.486 23.8643 18.0727 25.139C17.4783 26.4325 16.9852 27.7132 16.6109 28.9331C16.3654 28.8627 16.1217 28.7864 15.8799 28.7041V28.7041ZM17.3121 18.9551C16.7554 16.1103 17.1251 13.9644 18.0555 13.4258C19.0463 12.8522 21.2375 13.6701 23.547 15.7208C23.6976 15.8548 23.8457 15.9915 23.9914 16.1309C23.1308 17.055 22.2805 18.1071 21.4682 19.2535C20.0751 19.3826 18.7417 19.5899 17.5157 19.8677C17.4402 19.5653 17.3723 19.261 17.3121 18.9552V18.9551ZM30.0886 22.11C29.7991 21.6098 29.4987 21.1159 29.1879 20.6287C30.1329 20.7482 31.0384 20.9068 31.8887 21.1008C31.6335 21.919 31.3153 22.7744 30.9408 23.6514C30.667 23.132 30.3829 22.6181 30.0886 22.11V22.11ZM24.8784 17.0352C25.462 17.6676 26.0465 18.3734 26.6214 19.1394C25.4551 19.0843 24.2869 19.0841 23.1206 19.1387C23.6961 18.3798 24.2856 17.6748 24.8784 17.0352ZM19.6347 22.1187C19.3441 22.6227 19.0653 23.1334 18.7985 23.6504C18.4301 22.7765 18.1148 21.9172 17.8574 21.0873C18.7025 20.8983 19.6037 20.7437 20.5427 20.6264C20.2284 21.1166 19.9256 21.6141 19.6347 22.1186V22.1187ZM20.5696 29.68C19.5995 29.5717 18.6848 29.4251 17.8399 29.2412C18.1014 28.3966 18.4236 27.519 18.8 26.6263C19.0678 27.1437 19.3478 27.6547 19.6396 28.1589C19.9398 28.6772 20.2505 29.1849 20.5696 29.68ZM24.9133 33.2702C24.3135 32.6232 23.7153 31.9074 23.1312 31.1375C23.6983 31.1597 24.2765 31.1711 24.8641 31.1711C25.4679 31.1711 26.0646 31.1575 26.6521 31.1314C26.0753 31.9151 25.493 32.632 24.9133 33.2702ZM30.9527 26.5807C31.3486 27.4832 31.6823 28.3562 31.9473 29.1863C31.0885 29.3823 30.1613 29.5401 29.1843 29.6573C29.4974 29.1611 29.8005 28.6586 30.0936 28.1502C30.3916 27.6335 30.678 27.1102 30.9527 26.5807V26.5807ZM28.9976 27.518C28.5489 28.2974 28.075 29.062 27.5766 29.8107C26.6739 29.8746 25.7691 29.9063 24.8641 29.9059C23.9423 29.9059 23.0458 29.8772 22.1824 29.8212C21.671 29.0743 21.1881 28.3084 20.7346 27.525H20.7347C20.2834 26.7457 19.8618 25.9496 19.4709 25.1384C19.8609 24.327 20.2811 23.5305 20.7309 22.7507L20.7308 22.7508C21.1804 21.9707 21.6595 21.2081 22.167 20.4644C23.0479 20.3978 23.9511 20.363 24.864 20.363H24.8641C25.7812 20.363 26.6856 20.3981 27.5662 20.4652C28.0686 21.2078 28.5446 21.9678 28.9934 22.744C29.4447 23.5221 29.8705 24.3147 30.2703 25.1205C29.8746 25.9345 29.4501 26.7342 28.9976 27.518V27.518ZM31.6078 13.3881C32.5996 13.9601 32.9853 16.2669 32.3622 19.2919C32.3224 19.4849 32.2777 19.6815 32.2291 19.8808C31.0001 19.5971 29.6657 19.3862 28.2686 19.2551C27.4548 18.0961 26.6115 17.0424 25.7649 16.1302C25.9867 15.9164 26.2139 15.708 26.4461 15.5054C28.6329 13.6025 30.6766 12.8511 31.6078 13.3881V13.3881ZM24.8641 22.4633C26.3249 22.4633 27.5091 23.6475 27.5091 25.1082C27.5091 26.5689 26.3249 27.7531 24.8641 27.7531C23.4034 27.7531 22.2192 26.5689 22.2192 25.1082C22.2192 23.6475 23.4034 22.4633 24.8641 22.4633V22.4633Z" fill="#00D8FF"/>
</g>
<circle cx="25" cy="25" r="24.5" stroke="#444444"/>
<defs>
<clipPath id="clip0_18_634">
<rect width="29.6196" height="26.3799" fill="white" transform="translate(10.0544 11.9565)"/>
</clipPath>
</defs>
</svg>
