<svg width="50" height="50" viewBox="0 0 50 50" fill="none" xmlns="http://www.w3.org/2000/svg">
<g clip-path="url(#clip0_126_2419)">
<path d="M34.4076 20.4982C34.0924 20.39 33.7745 20.2898 33.4542 20.1977C33.508 19.9779 33.5576 19.7607 33.6015 19.5474C34.3233 16.0438 33.8514 13.2213 32.2398 12.2919C30.6946 11.401 28.1676 12.33 25.6155 14.5511C25.3639 14.7704 25.118 14.996 24.8779 15.2278C24.7171 15.0737 24.5535 14.9226 24.3872 14.7746C21.7124 12.3997 19.0314 11.3987 17.4215 12.3307C15.8777 13.2244 15.4206 15.8778 16.0703 19.1982C16.135 19.527 16.208 19.8542 16.2892 20.1793C15.9097 20.2871 15.5435 20.4019 15.1931 20.5241C12.0571 21.6175 10.0544 23.3309 10.0544 25.1082C10.0544 26.9438 12.2044 28.785 15.4707 29.9014C15.7355 29.9915 16.0025 30.075 16.2714 30.1519C16.1841 30.502 16.1065 30.8546 16.0389 31.2091C15.4194 34.4719 15.9031 37.0626 17.4428 37.9506C19.033 38.8676 21.702 37.9251 24.3008 35.6533C24.5115 35.4687 24.7176 35.2787 24.9188 35.0837C25.1789 35.3347 25.4459 35.5783 25.7195 35.8143C28.2369 37.9804 30.7231 38.8552 32.2612 37.9647C33.8499 37.045 34.3663 34.2619 33.6959 30.8759C33.6431 30.6106 33.5839 30.3467 33.5183 30.0843C33.7058 30.0288 33.8897 29.9716 34.0691 29.9121C37.4647 28.7872 39.674 26.9683 39.674 25.1082C39.674 23.3244 37.6066 21.5994 34.4076 20.4982V20.4982ZM33.6712 28.7111C33.5092 28.7647 33.3431 28.8164 33.1737 28.8668C32.7988 27.68 32.2929 26.4182 31.6738 25.1143C32.2646 23.8416 32.751 22.5959 33.1154 21.4169C33.4184 21.5046 33.7124 21.597 33.9958 21.6945C36.7368 22.6382 38.4087 24.0332 38.4087 25.1082C38.4087 26.2532 36.6031 27.7396 33.6712 28.7111V28.7111ZM32.4547 31.1217C32.7511 32.6188 32.7934 33.9726 32.597 35.0309C32.4207 35.9818 32.0659 36.6158 31.6272 36.8697C30.6938 37.41 28.6976 36.7077 26.5448 34.8551C26.2903 34.6357 26.0419 34.4092 25.8 34.176C26.6347 33.2632 27.4688 32.2021 28.2829 31.0236C29.7148 30.8965 31.0676 30.6887 32.2943 30.4051C32.3547 30.6489 32.4084 30.8879 32.4547 31.1217V31.1217ZM20.1524 36.7763C19.2404 37.0983 18.5141 37.1076 18.075 36.8544C17.1407 36.3156 16.7523 34.2354 17.2821 31.4452C17.3451 31.1155 17.4172 30.7875 17.4983 30.4618C18.7116 30.7302 20.0545 30.9232 21.4898 31.0396C22.3094 32.1928 23.1676 33.2528 24.0324 34.1809C23.8486 34.3588 23.6605 34.5321 23.4682 34.7007C22.3189 35.7052 21.1673 36.4179 20.1524 36.7763V36.7763ZM15.88 28.7041C14.4357 28.2104 13.2429 27.5688 12.4254 26.8687C11.6907 26.2396 11.3199 25.615 11.3199 25.1082C11.3199 24.0296 12.9278 22.6539 15.6096 21.719C15.9351 21.6056 16.2757 21.4985 16.6292 21.3981C16.9999 22.6037 17.4861 23.8643 18.0728 25.139C17.4784 26.4325 16.9853 27.7132 16.611 28.9331C16.3655 28.8627 16.1218 28.7864 15.88 28.7041V28.7041ZM17.3122 18.9551C16.7555 16.1103 17.1252 13.9644 18.0555 13.4258C19.0464 12.8522 21.2376 13.6701 23.5471 15.7208C23.6977 15.8548 23.8458 15.9915 23.9915 16.1309C23.1309 17.055 22.2806 18.1071 21.4683 19.2535C20.0752 19.3826 18.7418 19.5899 17.5158 19.8677C17.4403 19.5653 17.3724 19.261 17.3122 18.9552V18.9551ZM30.0887 22.11C29.7991 21.6098 29.4988 21.116 29.188 20.6287C30.133 20.7482 31.0385 20.9068 31.8888 21.1008C31.6336 21.919 31.3154 22.7744 30.9409 23.6514C30.6671 23.132 30.383 22.6181 30.0887 22.11V22.11ZM24.8785 17.0352C25.4621 17.6676 26.0466 18.3734 26.6215 19.1394C25.4552 19.0843 24.287 19.0841 23.1207 19.1387C23.6962 18.3798 24.2857 17.6748 24.8785 17.0352ZM19.6348 22.1187C19.3441 22.6227 19.0653 23.1334 18.7986 23.6504C18.4302 22.7765 18.1149 21.9172 17.8575 21.0873C18.7025 20.8983 19.6037 20.7437 20.5428 20.6264C20.2285 21.1166 19.9257 21.6141 19.6348 22.1186V22.1187ZM20.5697 29.68C19.5996 29.5717 18.6848 29.4251 17.84 29.2412C18.1015 28.3966 18.4237 27.519 18.8001 26.6263C19.0679 27.1437 19.3479 27.6547 19.6397 28.1589C19.9399 28.6772 20.2506 29.1849 20.5697 29.68ZM24.9134 33.2702C24.3136 32.6232 23.7154 31.9074 23.1312 31.1375C23.6984 31.1597 24.2766 31.1711 24.8642 31.1711C25.468 31.1711 26.0647 31.1575 26.6522 31.1314C26.0754 31.9151 25.4931 32.632 24.9134 33.2702ZM30.9528 26.5807C31.3487 27.4832 31.6824 28.3562 31.9473 29.1863C31.0886 29.3823 30.1614 29.5401 29.1844 29.6573C29.4975 29.1611 29.8006 28.6586 30.0937 28.1502C30.3917 27.6335 30.6781 27.1102 30.9528 26.5807V26.5807ZM28.9977 27.518C28.549 28.2974 28.0751 29.062 27.5767 29.8107C26.674 29.8746 25.7692 29.9064 24.8642 29.9059C23.9424 29.9059 23.0459 29.8772 22.1825 29.8212C21.6711 29.0743 21.1882 28.3084 20.7347 27.525H20.7348C20.2835 26.7457 19.8619 25.9496 19.471 25.1384C19.8609 24.327 20.2812 23.5305 20.731 22.7507L20.7309 22.7508C21.1805 21.9707 21.6596 21.2081 22.1671 20.4644C23.0479 20.3978 23.9512 20.363 24.8641 20.363H24.8642C25.7813 20.363 26.6857 20.3981 27.5663 20.4652C28.0687 21.2078 28.5447 21.9678 28.9935 22.744C29.4448 23.5221 29.8706 24.3147 30.2704 25.1205C29.8747 25.9345 29.4502 26.7342 28.9977 27.518V27.518ZM31.6079 13.3881C32.5997 13.9601 32.9854 16.2669 32.3622 19.2919C32.3224 19.4849 32.2778 19.6815 32.2292 19.8808C31.0002 19.5971 29.6658 19.3862 28.2687 19.2551C27.4549 18.0961 26.6115 17.0424 25.765 16.1302C25.9868 15.9164 26.214 15.708 26.4462 15.5054C28.633 13.6025 30.6767 12.8511 31.6079 13.3881V13.3881ZM24.8642 22.4633C26.325 22.4633 27.5092 23.6475 27.5092 25.1082C27.5092 26.5689 26.325 27.7531 24.8642 27.7531C23.4035 27.7531 22.2193 26.5689 22.2193 25.1082C22.2193 23.6475 23.4035 22.4633 24.8642 22.4633V22.4633Z" fill="#00D8FF"/>
</g>
<circle cx="25" cy="25" r="24.5" stroke="white"/>
<defs>
<clipPath id="clip0_126_2419">
<rect width="29.6196" height="26.3799" fill="white" transform="translate(10.0544 11.9565)"/>
</clipPath>
</defs>
</svg>
