<svg width="50" height="50" viewBox="0 0 50 50" fill="none" xmlns="http://www.w3.org/2000/svg">
<path d="M35.5808 24.6888C34.7669 24.6898 33.9639 24.8759 33.2325 25.233C33.0035 24.853 32.8267 24.4439 32.7067 24.0168C32.6378 23.6819 32.6219 23.3384 32.6595 22.9986C32.7387 22.6247 32.8413 22.2562 32.9668 21.8953C32.9622 21.8481 32.9104 21.625 32.3893 21.6176C31.8681 21.6102 31.4192 21.7166 31.3711 21.8545C31.2806 22.1064 31.2079 22.3644 31.1536 22.6265C30.7223 23.6905 30.1914 24.7114 29.568 25.6755C29.2187 25.1029 29.0751 24.4284 29.1607 23.7632C29.2399 23.3893 29.3425 23.0208 29.468 22.6598C29.4634 22.6126 29.4116 22.3895 28.8905 22.3821C28.3693 22.3747 27.9204 22.4812 27.8723 22.6191C27.8242 22.757 27.7631 23.0819 27.6548 23.3911C27.5465 23.7002 26.2821 26.5252 25.9507 27.2536C25.7804 27.6239 25.6332 27.9256 25.5296 28.1293C25.5246 28.1425 25.5184 28.1552 25.511 28.1672L25.3694 28.4375V28.4421C25.2982 28.5699 25.2223 28.6883 25.1843 28.6883C25.1181 28.4239 25.1213 28.1468 25.1936 27.884C25.3787 26.9038 25.8322 25.3802 25.8276 25.3274C25.8276 25.2987 25.9128 25.034 25.5342 24.897C25.4464 24.8552 25.3478 24.8417 25.252 24.8583C25.1562 24.8749 25.0678 24.9207 24.9992 24.9896C24.9659 24.9896 24.9427 25.0701 24.9427 25.0701C24.9427 25.0701 25.3546 23.3568 24.1569 23.3568C23.6905 23.4506 23.2475 23.6368 22.8541 23.9043C22.4607 24.1718 22.1247 24.5153 21.866 24.9146C21.5439 25.0896 20.858 25.4635 20.124 25.8661C19.8463 26.0226 19.5557 26.179 19.2863 26.3289C19.2678 26.3104 19.2484 26.2864 19.2299 26.2679C17.772 24.7147 15.0924 23.6188 15.2081 21.5408C15.2506 20.7836 15.5107 18.7954 20.3535 16.3805C24.3392 14.4163 27.5113 14.9606 28.0602 16.1676C28.846 17.8911 26.3608 21.0909 22.2427 21.5546C21.7871 21.6471 21.3166 21.6359 20.8659 21.522C20.4152 21.4081 19.9959 21.1943 19.639 20.8965C19.4215 20.6596 19.3881 20.6457 19.3076 20.6929C19.1752 20.7642 19.2604 20.9771 19.3076 21.1002C19.4647 21.3845 19.6772 21.6344 19.9325 21.8352C20.1878 22.036 20.4808 22.1836 20.7941 22.2692C22.4142 22.6193 24.1032 22.4519 25.623 21.7907C28.1222 20.8253 30.066 18.141 29.4958 15.8927C28.9229 13.611 25.1362 12.8585 21.5522 14.134C19.3074 14.8894 17.2332 16.0792 15.4478 17.6356C13.4735 19.4822 13.1615 21.0863 13.2893 21.7592C13.7521 24.1454 17.0389 25.6977 18.3542 26.8501C18.2948 26.8839 18.2349 26.9169 18.1747 26.9491C17.5165 27.2758 15.0081 28.5874 14.3796 29.974C13.6697 31.5475 14.4935 32.6722 15.0378 32.824C15.8579 33.0203 16.7188 32.9556 17.5004 32.639C18.2819 32.3224 18.9451 31.7696 19.3974 31.0579C19.7825 30.4676 20.0192 29.7929 20.0874 29.0913C20.1556 28.3898 20.0532 27.6822 19.7889 27.0287C19.7845 27.0181 19.7782 27.0084 19.7704 27L20.286 26.6973C20.5992 26.5121 20.9165 26.3338 21.2375 26.1623C21.0448 26.7181 20.9317 27.2984 20.9015 27.8858C20.8361 28.7862 21.1116 29.6783 21.6735 30.385C21.759 30.4586 21.8582 30.5145 21.9654 30.5494C22.0727 30.5844 22.1858 30.5977 22.2983 30.5886C22.8536 30.5886 23.1082 30.1258 23.3868 29.576C23.7274 28.904 24.0347 28.1228 24.0347 28.1228C24.0347 28.1228 23.6515 30.2341 24.6928 30.2341C25.0714 30.2341 25.4546 29.7417 25.6258 29.4936V29.4982L25.6545 29.451L25.7156 29.352V29.3427C25.8674 29.078 26.208 28.4764 26.7143 27.4776C27.3678 26.1901 27.9972 24.5805 27.9972 24.5805C28.0579 24.9342 28.1417 25.2836 28.2481 25.6264C28.4005 26.0419 28.5808 26.4467 28.7877 26.838C28.6359 27.0509 28.5415 27.1694 28.5415 27.1694L28.5461 27.174C28.423 27.3351 28.2907 27.51 28.1435 27.6803C27.7056 28.1617 27.2994 28.671 26.9272 29.2048C26.8719 29.2945 26.8529 29.4019 26.8741 29.5051C26.8953 29.6083 26.955 29.6995 27.0411 29.7602C27.2359 29.8616 27.458 29.8982 27.6751 29.8648C28.0023 29.8463 28.324 29.7728 28.6267 29.6473C28.9192 29.5443 29.1951 29.3993 29.4458 29.2169C29.7043 29.0378 29.9123 28.7952 30.05 28.5125C30.1876 28.2298 30.2502 27.9165 30.2317 27.6026C30.2026 27.2072 30.1016 26.8204 29.9336 26.4613C29.9808 26.3947 30.0262 26.3289 30.0706 26.2623C30.5969 25.4768 31.0712 24.6578 31.4905 23.8104C31.5512 24.1641 31.635 24.5135 31.7413 24.8563C31.8671 25.2154 32.0219 25.5636 32.2041 25.8976C31.5987 26.3634 31.1219 26.9756 30.8185 27.6766C30.5205 28.5384 30.7519 28.9262 31.1887 29.016C31.4278 29.0325 31.6668 28.9835 31.8802 28.8744C32.1938 28.7713 32.4893 28.6195 32.7558 28.4245C33.0368 28.2587 33.2721 28.0256 33.4406 27.7463C33.6092 27.4669 33.7056 27.15 33.7212 26.8241C33.7002 26.4989 33.6268 26.1791 33.5037 25.8772C34.3026 25.5651 35.1688 25.4656 36.0177 25.5885C38.2706 25.8532 38.7158 27.2592 38.6307 27.8516C38.5907 28.0616 38.5063 28.2606 38.383 28.4353C38.2598 28.6099 38.1006 28.7562 37.9161 28.8642C37.7597 28.9632 37.7078 28.9966 37.7217 29.0678C37.7402 29.1724 37.8143 29.1669 37.9485 29.1484C38.288 29.0428 38.5876 28.8368 38.8077 28.5576C39.0278 28.2783 39.1581 27.9389 39.1814 27.5841C39.2527 26.1957 37.9272 24.673 35.5836 24.6869L35.5808 24.6888ZM18.1978 30.546C17.4499 31.3606 16.4086 31.6679 15.9587 31.4078C15.4756 31.1301 15.6653 29.9268 16.5835 29.0641C17.1282 28.5738 17.7169 28.1348 18.3422 27.7525C18.4514 27.6859 18.6125 27.5915 18.805 27.4749L18.8568 27.4462L18.9707 27.3749C19.1347 27.9245 19.1496 28.5079 19.0138 29.0651C18.878 29.6224 18.5963 30.1335 18.1978 30.546V30.546ZM23.6413 26.8436C23.3812 27.4776 22.837 29.1021 22.5056 29.0114C22.2214 28.9355 22.0428 27.7044 22.4491 26.4882C22.6543 25.9027 22.9531 25.3544 23.334 24.8646C23.7413 24.4102 24.1911 24.2584 24.2994 24.4435C24.2006 25.2718 23.9788 26.0807 23.6413 26.8436V26.8436ZM28.1333 28.9929C28.0241 29.0493 27.9204 29.0854 27.8732 29.0595C27.8399 29.041 27.9204 28.9669 27.9204 28.9669C27.9204 28.9669 28.4841 28.3607 28.7063 28.0867C28.834 27.9256 28.9839 27.7368 29.1469 27.523V27.5841C29.1469 28.3079 28.4462 28.7957 28.1342 28.9947L28.1333 28.9929ZM31.5988 28.2024C31.5183 28.1459 31.5321 27.9562 31.8024 27.3647C31.9904 26.9848 32.2529 26.6467 32.5744 26.3706C32.6237 26.5107 32.6493 26.658 32.6503 26.8066C32.6539 27.1227 32.5529 27.4311 32.3628 27.6838C32.1728 27.9365 31.9045 28.1191 31.5997 28.2033L31.5988 28.2024Z" fill="#CD6799"/>
<circle cx="25" cy="25" r="24.5" stroke="#444444"/>
</svg>
