<svg width="644" height="644" viewBox="0 0 644 644" fill="none" xmlns="http://www.w3.org/2000/svg">
<circle cx="322" cy="322" r="322" fill="#4A5566"/>
<g clip-path="url(#clip0_26_322)">
<path d="M312 53H379.935V120.935H312V53Z" fill="#F7DF1E"/>
<path d="M329.863 109.771L335.061 106.625C336.064 108.403 336.977 109.908 339.165 109.908C341.263 109.908 342.586 109.087 342.586 105.895V84.1887H348.97V105.986C348.97 112.598 345.094 115.608 339.439 115.608C334.332 115.608 331.367 112.963 329.862 109.771" fill="black"/>
<path d="M352.437 109.087L357.635 106.077C359.004 108.312 360.782 109.954 363.929 109.954C366.574 109.954 368.261 108.631 368.261 106.807C368.261 104.618 366.528 103.843 363.609 102.566L362.014 101.882C357.408 99.9214 354.353 97.4588 354.353 92.2602C354.353 87.4719 358.001 83.8235 363.701 83.8235C367.76 83.8235 370.678 85.2374 372.776 88.9311L367.805 92.1235C366.71 90.1627 365.525 89.3876 363.701 89.3876C361.831 89.3876 360.645 90.5732 360.645 92.1235C360.645 94.0387 361.831 94.8144 364.567 96.0001L366.163 96.6839C371.59 99.0099 374.645 101.381 374.645 106.716C374.645 112.462 370.13 115.609 364.065 115.609C358.137 115.609 354.307 112.781 352.437 109.087" fill="black"/>
</g>
<circle cx="345.5" cy="87.5" r="61" stroke="#444444" stroke-width="3"/>
<g clip-path="url(#clip1_26_322)">
<path d="M144.503 209.406C143.866 209.188 143.224 208.985 142.577 208.799C142.686 208.355 142.786 207.917 142.875 207.486C144.333 200.408 143.38 194.707 140.124 192.83C137.003 191.03 131.898 192.907 126.743 197.393C126.235 197.836 125.738 198.292 125.253 198.76C124.928 198.449 124.598 198.143 124.262 197.844C118.859 193.047 113.443 191.025 110.191 192.908C107.073 194.713 106.149 200.073 107.462 206.78C107.593 207.444 107.74 208.105 107.904 208.762C107.138 208.98 106.398 209.212 105.69 209.459C99.3552 211.667 95.3098 215.128 95.3098 218.718C95.3098 222.426 99.6527 226.146 106.251 228.401C106.785 228.583 107.325 228.751 107.868 228.907C107.692 229.614 107.535 230.326 107.398 231.042C106.147 237.633 107.124 242.866 110.234 244.66C113.446 246.513 118.838 244.609 124.087 240.02C124.513 239.647 124.929 239.263 125.336 238.869C125.861 239.376 126.4 239.868 126.953 240.345C132.038 244.72 137.061 246.487 140.168 244.689C143.377 242.831 144.42 237.209 143.066 230.369C142.959 229.833 142.839 229.3 142.707 228.77C143.086 228.658 143.457 228.543 143.819 228.422C150.679 226.15 155.141 222.476 155.141 218.718C155.141 215.115 150.965 211.631 144.503 209.406V209.406ZM143.016 225.996C142.688 226.105 142.353 226.209 142.011 226.311C141.253 223.914 140.232 221.365 138.981 218.731C140.174 216.16 141.157 213.644 141.893 211.262C142.505 211.439 143.099 211.626 143.671 211.823C149.208 213.729 152.585 216.547 152.585 218.718C152.585 221.031 148.938 224.034 143.016 225.996V225.996ZM140.558 230.866C141.157 233.89 141.242 236.624 140.846 238.762C140.49 240.683 139.773 241.964 138.887 242.477C137.001 243.568 132.969 242.15 128.62 238.407C128.106 237.964 127.605 237.506 127.116 237.035C128.802 235.192 130.487 233.048 132.131 230.667C135.024 230.411 137.756 229.991 140.234 229.418C140.356 229.911 140.465 230.394 140.558 230.866V230.866ZM115.708 242.288C113.866 242.939 112.398 242.957 111.511 242.446C109.624 241.357 108.839 237.155 109.91 231.519C110.037 230.853 110.183 230.191 110.346 229.533C112.797 230.075 115.51 230.465 118.409 230.7C120.065 233.029 121.798 235.17 123.545 237.045C123.174 237.405 122.794 237.755 122.406 238.095C120.084 240.124 117.758 241.564 115.708 242.288V242.288ZM107.077 225.982C104.16 224.985 101.751 223.689 100.099 222.275C98.615 221.004 97.866 219.742 97.866 218.718C97.866 216.54 101.114 213.761 106.531 211.872C107.189 211.643 107.877 211.427 108.591 211.224C109.34 213.659 110.322 216.206 111.507 218.781C110.306 221.394 109.31 223.981 108.554 226.445C108.058 226.303 107.566 226.148 107.077 225.982V225.982ZM109.97 206.289C108.846 200.543 109.593 196.208 111.472 195.12C113.474 193.961 117.9 195.613 122.565 199.756C122.869 200.027 123.168 200.303 123.463 200.584C121.724 202.451 120.007 204.576 118.366 206.892C115.552 207.153 112.858 207.572 110.382 208.133C110.229 207.522 110.092 206.907 109.97 206.289V206.289ZM135.779 212.662C135.194 211.652 134.587 210.654 133.96 209.67C135.869 209.911 137.698 210.232 139.415 210.623C138.9 212.276 138.257 214.004 137.5 215.776C136.947 214.726 136.373 213.688 135.779 212.662V212.662ZM125.254 202.411C126.433 203.688 127.614 205.114 128.775 206.661C126.419 206.55 124.06 206.55 121.704 206.66C122.866 205.127 124.057 203.703 125.254 202.411ZM114.662 212.68C114.075 213.698 113.512 214.729 112.973 215.774C112.229 214.008 111.592 212.273 111.072 210.596C112.779 210.214 114.599 209.902 116.496 209.665C115.861 210.655 115.25 211.66 114.662 212.679V212.68ZM116.551 227.954C114.591 227.735 112.743 227.439 111.037 227.067C111.565 225.361 112.216 223.588 112.976 221.785C113.517 222.83 114.083 223.862 114.672 224.881C115.278 225.928 115.906 226.953 116.551 227.954ZM125.325 235.206C124.113 233.899 122.905 232.453 121.725 230.898C122.871 230.943 124.039 230.965 125.226 230.965C126.445 230.965 127.651 230.938 128.837 230.885C127.672 232.468 126.496 233.917 125.325 235.206ZM137.524 221.693C138.324 223.516 138.998 225.279 139.533 226.956C137.799 227.352 135.926 227.671 133.952 227.908C134.585 226.905 135.197 225.89 135.789 224.863C136.391 223.82 136.97 222.762 137.524 221.693V221.693ZM133.575 223.586C132.669 225.161 131.712 226.705 130.705 228.217C128.881 228.347 127.054 228.411 125.226 228.41C123.364 228.41 121.552 228.352 119.808 228.239C118.776 226.73 117.8 225.183 116.884 223.6H116.884C115.973 222.026 115.121 220.418 114.331 218.779C115.119 217.14 115.968 215.531 116.877 213.956L116.876 213.956C117.784 212.381 118.752 210.84 119.777 209.338C121.557 209.203 123.381 209.133 125.225 209.133H125.226C127.078 209.133 128.905 209.204 130.684 209.34C131.699 210.84 132.66 212.375 133.567 213.943C134.478 215.514 135.339 217.115 136.146 218.743C135.347 220.388 134.489 222.003 133.575 223.586V223.586ZM138.848 195.044C140.851 196.199 141.63 200.859 140.372 206.969C140.291 207.359 140.201 207.756 140.103 208.159C137.62 207.586 134.925 207.16 132.103 206.895C130.459 204.554 128.755 202.426 127.045 200.583C127.493 200.151 127.952 199.73 128.421 199.321C132.838 195.477 136.967 193.959 138.848 195.044V195.044ZM125.226 213.376C128.176 213.376 130.568 215.768 130.568 218.718C130.568 221.669 128.176 224.061 125.226 224.061C122.275 224.061 119.883 221.669 119.883 218.718C119.883 215.768 122.275 213.376 125.226 213.376V213.376Z" fill="#00D8FF"/>
</g>
<circle cx="125.5" cy="218.5" r="49" stroke="#444444" stroke-width="3"/>
<g clip-path="url(#clip2_26_322)">
<path d="M379.742 334.702C379.492 334.702 379.258 334.636 379.04 334.519L376.817 333.2C376.483 333.016 376.65 332.95 376.751 332.916C377.202 332.766 377.285 332.732 377.753 332.465C377.804 332.432 377.871 332.449 377.921 332.482L379.626 333.5C379.692 333.534 379.776 333.534 379.826 333.5L386.495 329.644C386.562 329.611 386.596 329.544 386.596 329.46V321.765C386.596 321.681 386.562 321.614 386.495 321.581L379.826 317.741C379.759 317.708 379.676 317.708 379.626 317.741L372.956 321.581C372.889 321.614 372.856 321.698 372.856 321.764V329.46C372.856 329.527 372.889 329.611 372.956 329.644L374.778 330.696C375.764 331.197 376.383 330.612 376.383 330.028V322.432C376.383 322.332 376.466 322.232 376.583 322.232H377.436C377.536 322.232 377.636 322.315 377.636 322.432V330.028C377.636 331.347 376.918 332.115 375.664 332.115C375.28 332.115 374.979 332.115 374.126 331.697L372.371 330.696C371.936 330.445 371.669 329.978 371.669 329.477V321.781C371.669 321.28 371.936 320.813 372.371 320.563L379.04 316.706C379.458 316.473 380.027 316.473 380.445 316.706L387.114 320.563C387.549 320.813 387.816 321.28 387.816 321.781V329.477C387.816 329.978 387.549 330.445 387.114 330.696L380.445 334.552C380.227 334.652 379.977 334.702 379.743 334.702H379.742ZM381.798 329.41C378.873 329.41 378.272 328.075 378.272 326.94C378.272 326.839 378.355 326.739 378.472 326.739H379.341C379.442 326.739 379.525 326.806 379.525 326.906C379.659 327.791 380.043 328.225 381.815 328.225C383.219 328.225 383.821 327.908 383.821 327.157C383.821 326.723 383.654 326.406 381.464 326.188C379.642 326.005 378.506 325.604 378.506 324.152C378.506 322.8 379.642 321.998 381.548 321.998C383.687 321.998 384.74 322.733 384.874 324.335C384.874 324.386 384.857 324.435 384.824 324.486C384.79 324.519 384.74 324.552 384.69 324.552H383.821C383.737 324.552 383.654 324.486 383.637 324.402C383.437 323.484 382.918 323.183 381.548 323.183C380.01 323.183 379.826 323.718 379.826 324.118C379.826 324.602 380.043 324.753 382.116 325.02C384.172 325.287 385.142 325.671 385.142 327.107C385.125 328.576 383.921 329.41 381.798 329.41Z" fill="#539E43"/>
<path d="M359.049 304.603C359.049 304.303 358.882 304.019 358.614 303.869L351.527 299.795C351.41 299.728 351.276 299.695 351.143 299.678H351.076C350.942 299.678 350.808 299.728 350.691 299.795L343.604 303.869C343.336 304.019 343.169 304.303 343.169 304.603L343.186 315.554C343.186 315.705 343.27 315.855 343.403 315.922C343.537 316.005 343.704 316.005 343.821 315.922L348.034 313.518C348.301 313.367 348.468 313.084 348.468 312.783V307.658C348.468 307.358 348.635 307.074 348.903 306.924L350.691 305.889C350.825 305.805 350.975 305.772 351.126 305.772C351.276 305.772 351.427 305.805 351.544 305.889L353.332 306.924C353.6 307.074 353.767 307.358 353.767 307.658V312.783C353.767 313.084 353.934 313.367 354.201 313.518L358.414 315.922C358.547 316.005 358.715 316.005 358.848 315.922C358.982 315.855 359.066 315.705 359.066 315.554L359.049 304.603Z" fill="#333333"/>
<path d="M393.115 289.528C392.981 289.461 392.814 289.461 392.697 289.528C392.563 289.612 392.479 289.745 392.479 289.896V300.747C392.479 300.847 392.429 300.947 392.329 301.014C392.229 301.064 392.128 301.064 392.028 301.014L390.256 299.996C390.127 299.922 389.98 299.883 389.83 299.883C389.681 299.883 389.534 299.922 389.404 299.996L382.317 304.086C382.049 304.236 381.882 304.52 381.882 304.82V312.983C381.882 313.284 382.049 313.568 382.317 313.718L389.404 317.808C389.534 317.882 389.681 317.921 389.83 317.921C389.98 317.921 390.127 317.882 390.256 317.808L397.344 313.718C397.611 313.568 397.778 313.284 397.778 312.983V292.633C397.778 292.316 397.611 292.033 397.344 291.882L393.115 289.528H393.115ZM392.463 310.296C392.463 310.379 392.429 310.446 392.362 310.479L389.939 311.882C389.905 311.898 389.868 311.907 389.83 311.907C389.792 311.907 389.755 311.898 389.721 311.882L387.298 310.479C387.231 310.446 387.197 310.362 387.197 310.296V307.491C387.197 307.408 387.231 307.341 387.298 307.308L389.721 305.905C389.755 305.889 389.792 305.88 389.83 305.88C389.868 305.88 389.905 305.889 389.939 305.905L392.362 307.308C392.429 307.341 392.463 307.424 392.463 307.491V310.296Z" fill="#333333"/>
<path d="M416.7 307.424C416.968 307.274 417.118 306.99 417.118 306.69V304.703C417.118 304.403 416.951 304.119 416.7 303.969L409.663 299.895C409.533 299.822 409.386 299.783 409.237 299.783C409.087 299.783 408.94 299.822 408.81 299.895L401.723 303.985C401.456 304.136 401.289 304.419 401.289 304.72V312.883C401.289 313.184 401.456 313.468 401.723 313.618L408.76 317.624C409.028 317.775 409.345 317.775 409.596 317.624L413.858 315.254C413.992 315.187 414.076 315.037 414.076 314.887C414.076 314.736 413.992 314.586 413.858 314.519L406.738 310.429C406.604 310.346 406.52 310.212 406.52 310.062V307.508C406.52 307.358 406.604 307.208 406.738 307.141L408.961 305.872C409.026 305.831 409.101 305.809 409.178 305.809C409.255 305.809 409.33 305.831 409.395 305.872L411.619 307.141C411.752 307.224 411.836 307.358 411.836 307.508V309.511C411.836 309.661 411.92 309.812 412.053 309.878C412.187 309.962 412.354 309.962 412.488 309.878L416.7 307.424V307.424Z" fill="#333333"/>
<path d="M409.128 307.04C409.153 307.024 409.182 307.015 409.212 307.015C409.241 307.015 409.27 307.024 409.295 307.04L410.649 307.825C410.699 307.858 410.733 307.908 410.733 307.975V309.544C410.733 309.611 410.699 309.661 410.649 309.695L409.295 310.479C409.27 310.496 409.241 310.504 409.212 310.504C409.182 310.504 409.153 310.496 409.128 310.479L407.774 309.695C407.724 309.661 407.691 309.611 407.691 309.544V307.975C407.691 307.908 407.724 307.858 407.774 307.825L409.128 307.04V307.04Z" fill="#539E43"/>
<mask id="mask0_26_322" style="mask-type:alpha" maskUnits="userSpaceOnUse" x="362" y="299" width="17" height="19">
<path d="M370.9 299.929C370.77 299.855 370.623 299.816 370.474 299.816C370.324 299.816 370.177 299.855 370.048 299.929L363.011 303.985C362.743 304.135 362.593 304.419 362.593 304.72V312.85C362.593 313.15 362.76 313.434 363.011 313.584L370.048 317.641C370.177 317.715 370.324 317.754 370.474 317.754C370.623 317.754 370.77 317.715 370.9 317.641L377.937 313.584C378.205 313.434 378.355 313.15 378.355 312.85V304.72C378.355 304.419 378.188 304.136 377.937 303.985L370.9 299.929Z" fill="white"/>
</mask>
<g mask="url(#mask0_26_322)">
<path d="M370.9 299.929C370.77 299.855 370.623 299.816 370.474 299.816C370.324 299.816 370.177 299.855 370.048 299.929L363.011 303.985C362.743 304.135 362.593 304.419 362.593 304.72V312.85C362.593 313.15 362.76 313.434 363.011 313.584L370.048 317.641C370.177 317.715 370.324 317.754 370.474 317.754C370.623 317.754 370.77 317.715 370.9 317.641L377.937 313.584C378.205 313.434 378.355 313.15 378.355 312.85V304.72C378.355 304.419 378.188 304.136 377.937 303.985L370.9 299.929Z" fill="url(#paint0_linear_26_322)"/>
<path d="M377.954 303.985L370.883 299.929C370.814 299.894 370.741 299.866 370.666 299.845L362.743 313.401C362.809 313.481 362.888 313.549 362.977 313.601L370.048 317.658C370.248 317.775 370.482 317.808 370.699 317.741L378.138 304.152C378.088 304.086 378.021 304.035 377.954 303.985V303.985Z" fill="url(#paint1_linear_26_322)"/>
<path fill-rule="evenodd" clip-rule="evenodd" d="M377.971 313.584C378.171 313.468 378.322 313.267 378.389 313.05L370.633 299.829C370.432 299.795 370.215 299.812 370.031 299.929L363.01 303.969L370.582 317.758C370.692 317.74 370.799 317.706 370.9 317.658L377.971 313.585L377.971 313.584Z" fill="url(#paint2_linear_26_322)"/>
<path fill-rule="evenodd" clip-rule="evenodd" d="M377.971 313.584L370.917 317.641C370.817 317.692 370.71 317.726 370.599 317.741L370.733 317.992L378.556 313.468V313.367L378.355 313.034C378.322 313.267 378.171 313.468 377.971 313.584V313.584Z" fill="url(#paint3_linear_26_322)"/>
<path fill-rule="evenodd" clip-rule="evenodd" d="M377.971 313.584L370.917 317.641C370.817 317.692 370.71 317.726 370.599 317.741L370.733 317.992L378.556 313.468V313.367L378.355 313.034C378.322 313.267 378.171 313.468 377.971 313.584V313.584Z" fill="url(#paint4_linear_26_322)"/>
</g>
</g>
<circle cx="380.5" cy="308.5" r="61" stroke="#444444" stroke-width="3"/>
<path d="M222.952 116.722C220.917 116.725 218.91 117.19 217.081 118.082C216.509 117.132 216.067 116.11 215.767 115.042C215.595 114.205 215.555 113.346 215.649 112.496C215.847 111.562 216.103 110.64 216.417 109.738C216.406 109.62 216.276 109.062 214.973 109.044C213.67 109.025 212.548 109.291 212.428 109.636C212.201 110.266 212.02 110.911 211.884 111.566C210.806 114.226 209.478 116.778 207.92 119.189C207.047 117.757 206.688 116.071 206.902 114.408C207.1 113.473 207.356 112.552 207.67 111.649C207.658 111.531 207.529 110.974 206.226 110.955C204.923 110.937 203.801 111.203 203.681 111.548C203.56 111.892 203.408 112.705 203.137 113.478C202.866 114.25 199.705 121.313 198.877 123.134C198.451 124.06 198.083 124.814 197.824 125.323C197.812 125.356 197.796 125.388 197.778 125.418L197.424 126.094V126.105C197.245 126.425 197.056 126.721 196.961 126.721C196.795 126.06 196.803 125.367 196.984 124.71C197.447 122.259 198.581 118.45 198.569 118.319C198.569 118.247 198.782 117.585 197.835 117.243C197.616 117.138 197.369 117.104 197.13 117.146C196.89 117.187 196.67 117.302 196.498 117.474C196.415 117.474 196.357 117.675 196.357 117.675C196.357 117.675 197.387 113.392 194.392 113.392C193.226 113.627 192.119 114.092 191.135 114.761C190.152 115.43 189.312 116.288 188.665 117.286C187.86 117.724 186.145 118.659 184.31 119.665C183.616 120.056 182.889 120.447 182.216 120.822C182.169 120.776 182.121 120.716 182.075 120.67C178.43 116.787 171.731 114.047 172.02 108.852C172.127 106.959 172.777 101.988 184.884 95.9511C194.848 91.0408 202.778 92.4014 204.15 95.4189C206.115 99.7276 199.902 107.727 189.607 108.887C188.468 109.118 187.291 109.09 186.165 108.805C185.038 108.52 183.99 107.986 183.097 107.241C182.554 106.649 182.47 106.614 182.269 106.732C181.938 106.91 182.151 107.443 182.269 107.75C182.662 108.461 183.193 109.086 183.831 109.588C184.47 110.09 185.202 110.459 185.985 110.673C190.035 111.548 194.258 111.13 198.058 109.477C204.305 107.063 209.165 100.352 207.739 94.7316C206.307 89.0275 196.84 87.1462 187.88 90.335C182.268 92.2234 177.083 95.1979 172.619 99.0889C167.684 103.705 166.904 107.716 167.223 109.398C168.38 115.364 176.597 119.244 179.886 122.125C179.737 122.21 179.587 122.292 179.437 122.373C177.791 123.19 171.52 126.469 169.949 129.935C168.174 133.869 170.234 136.68 171.594 137.06C173.645 137.551 175.797 137.389 177.751 136.597C179.705 135.806 181.363 134.424 182.493 132.645C183.456 131.169 184.048 129.482 184.218 127.728C184.389 125.974 184.133 124.205 183.472 122.572C183.461 122.545 183.445 122.521 183.426 122.5L184.715 121.743C185.498 121.28 186.291 120.834 187.094 120.406C186.612 121.795 186.329 123.246 186.254 124.715C186.09 126.966 186.779 129.196 188.184 130.962C188.397 131.146 188.645 131.286 188.914 131.373C189.182 131.461 189.464 131.494 189.746 131.471C191.134 131.471 191.77 130.314 192.467 128.94C193.318 127.26 194.087 125.307 194.087 125.307C194.087 125.307 193.129 130.585 195.732 130.585C196.678 130.585 197.636 129.354 198.065 128.734V128.746L198.136 128.628L198.289 128.38V128.357C198.668 127.695 199.52 126.191 200.786 123.694C202.42 120.475 203.993 116.451 203.993 116.451C204.145 117.335 204.354 118.209 204.62 119.066C205.001 120.105 205.452 121.117 205.969 122.095C205.59 122.627 205.354 122.923 205.354 122.923L205.365 122.935C205.058 123.338 204.727 123.775 204.359 124.201C203.264 125.404 202.248 126.677 201.318 128.012C201.18 128.236 201.132 128.505 201.185 128.763C201.238 129.021 201.387 129.249 201.603 129.4C202.09 129.654 202.645 129.745 203.188 129.662C204.006 129.616 204.81 129.432 205.567 129.118C206.298 128.861 206.988 128.498 207.615 128.042C208.261 127.594 208.781 126.988 209.125 126.281C209.469 125.575 209.625 124.791 209.579 124.006C209.506 123.018 209.254 122.051 208.834 121.153C208.952 120.987 209.065 120.822 209.176 120.656C210.492 118.692 211.678 116.644 212.726 114.526C212.878 115.41 213.087 116.284 213.353 117.141C213.668 118.038 214.055 118.909 214.51 119.744C212.997 120.908 211.805 122.439 211.046 124.192C210.301 126.346 210.88 127.315 211.972 127.54C212.569 127.581 213.167 127.459 213.7 127.186C214.485 126.928 215.223 126.549 215.889 126.061C216.592 125.647 217.18 125.064 217.602 124.366C218.023 123.667 218.264 122.875 218.303 122.06C218.25 121.247 218.067 120.448 217.759 119.693C219.756 118.913 221.922 118.664 224.044 118.971C229.676 119.633 230.79 123.148 230.577 124.629C230.477 125.154 230.266 125.651 229.958 126.088C229.649 126.525 229.251 126.89 228.79 127.16C228.399 127.408 228.27 127.491 228.304 127.67C228.351 127.931 228.536 127.917 228.871 127.871C229.72 127.607 230.469 127.092 231.019 126.394C231.57 125.696 231.895 124.847 231.953 123.96C232.132 120.489 228.818 116.683 222.959 116.717L222.952 116.722ZM179.494 131.365C177.625 133.401 175.021 134.17 173.897 133.519C172.689 132.825 173.163 129.817 175.459 127.66C176.82 126.434 178.292 125.337 179.855 124.381C180.128 124.215 180.531 123.979 181.012 123.687L181.142 123.615L181.427 123.437C181.837 124.811 181.874 126.27 181.534 127.663C181.195 129.056 180.491 130.334 179.494 131.365V131.365ZM193.103 122.109C192.453 123.694 191.092 127.755 190.264 127.528C189.554 127.339 189.107 124.261 190.123 121.22C190.636 119.757 191.383 118.386 192.335 117.162C193.353 116.025 194.478 115.646 194.749 116.109C194.502 118.179 193.947 120.202 193.103 122.109V122.109ZM204.333 127.482C204.06 127.623 203.801 127.713 203.683 127.649C203.6 127.602 203.801 127.417 203.801 127.417C203.801 127.417 205.21 125.902 205.766 125.217C206.085 124.814 206.46 124.342 206.867 123.807V123.96C206.867 125.77 205.115 126.989 204.336 127.487L204.333 127.482ZM212.997 125.506C212.796 125.365 212.83 124.89 213.506 123.412C213.976 122.462 214.632 121.617 215.436 120.926C215.559 121.277 215.623 121.645 215.626 122.016C215.635 122.807 215.382 123.578 214.907 124.209C214.432 124.841 213.761 125.298 212.999 125.508L212.997 125.506Z" fill="#CD6799"/>
<circle cx="196.5" cy="117.5" r="61" stroke="#444444" stroke-width="3"/>
<path d="M80.2366 439.061L80.63 438.513L99.1885 403.307L99.2278 402.934L91.0477 387.569C90.898 387.288 90.6636 387.061 90.3779 386.921C90.0922 386.78 89.7695 386.733 89.4556 386.786C89.1416 386.839 88.8523 386.99 88.6285 387.216C88.4046 387.443 88.2577 387.734 88.2084 388.048L80.2366 439.061Z" fill="#FFC24A"/>
<path d="M80.4679 438.644L80.7641 438.066L99.1305 403.226L90.9713 387.801C90.8367 387.532 90.6189 387.315 90.3503 387.181C90.0818 387.047 89.7771 387.003 89.4818 387.057C89.1866 387.111 88.9166 387.259 88.7125 387.479C88.5084 387.699 88.381 387.979 88.3495 388.277L80.4679 438.644Z" fill="#FFA712"/>
<path d="M105.191 414.555L111.282 408.308L105.189 396.689C105.055 396.439 104.855 396.23 104.612 396.084C104.368 395.938 104.09 395.861 103.806 395.861C103.522 395.861 103.244 395.938 103 396.084C102.757 396.23 102.558 396.439 102.423 396.689L99.1676 402.895V403.425L105.191 414.555Z" fill="#F4BD62"/>
<path d="M105.082 414.301L111.004 408.238L105.082 396.946C104.985 396.701 104.82 396.49 104.606 396.338C104.391 396.185 104.138 396.098 103.875 396.086C103.612 396.075 103.352 396.14 103.125 396.273C102.898 396.406 102.715 396.602 102.597 396.837L99.325 403.152L99.2278 403.474L105.082 414.301Z" fill="#FFA50E"/>
<path d="M80.2412 439.063L80.4194 438.883L81.065 438.621L104.807 414.967L105.108 414.148L99.1862 402.86L80.2412 439.063V439.063Z" fill="#F6820C"/>
<path d="M105.95 450.992L127.443 439.008L121.301 401.217C121.257 400.951 121.141 400.702 120.964 400.497C120.788 400.293 120.559 400.141 120.302 400.058C120.045 399.975 119.77 399.965 119.507 400.028C119.245 400.092 119.005 400.226 118.814 400.417L80.2366 439.061L101.602 450.99C102.266 451.36 103.014 451.555 103.775 451.555C104.536 451.555 105.284 451.36 105.948 450.99" fill="#FDE068"/>
<path d="M127.246 438.908L121.155 401.402C121.145 401.148 121.059 400.902 120.908 400.696C120.757 400.49 120.549 400.334 120.31 400.246C120.07 400.159 119.81 400.144 119.562 400.205C119.314 400.265 119.09 400.398 118.918 400.586L80.4679 438.989L101.597 450.791C102.256 451.158 102.998 451.351 103.753 451.351C104.507 451.351 105.249 451.158 105.908 450.791L127.246 438.908Z" fill="#FCCA3F"/>
<path d="M105.95 450.631C105.286 451.002 104.538 451.196 103.777 451.196C103.017 451.196 102.269 451.002 101.604 450.631L80.4124 438.88L80.2366 439.061L101.602 450.99C102.266 451.36 103.014 451.555 103.775 451.555C104.536 451.555 105.284 451.36 105.948 450.99L127.443 439.008L127.39 438.684L105.95 450.631Z" fill="#EEAB37"/>
<circle cx="103.5" cy="419.5" r="61" stroke="#444444" stroke-width="3"/>
<g clip-path="url(#clip3_26_322)">
<path d="M246.898 542.635C246.454 541.291 245.291 540.355 243.787 540.13C243.077 540.024 242.265 540.069 241.304 540.267C239.629 540.613 238.386 540.744 237.479 540.77C240.902 534.992 243.687 528.403 245.289 522.2C247.881 512.171 246.496 507.602 244.878 505.536C240.595 500.065 234.346 497.127 226.807 497.037C222.786 496.988 219.256 497.781 217.414 498.352C215.699 498.05 213.855 497.881 211.921 497.85C208.295 497.792 205.091 498.582 202.353 500.206C200.837 499.694 198.404 498.971 195.595 498.511C188.988 497.426 183.663 498.271 179.768 501.022C175.051 504.352 172.865 510.137 173.269 518.218C173.398 520.784 174.833 528.59 177.094 535.993C178.394 540.249 179.779 543.782 181.212 546.497C183.245 550.347 185.42 552.614 187.861 553.428C189.23 553.883 191.716 554.203 194.331 552.026C194.663 552.427 195.105 552.826 195.692 553.196C196.438 553.666 197.349 554.05 198.259 554.277C201.54 555.097 204.612 554.892 207.234 553.743C207.25 554.209 207.263 554.654 207.273 555.039C207.29 555.662 207.308 556.274 207.331 556.846C207.486 560.712 207.749 563.719 208.529 565.823C208.572 565.938 208.629 566.115 208.69 566.302C209.079 567.492 209.73 569.485 211.385 571.046C213.099 572.663 215.172 573.159 217.07 573.159C218.022 573.159 218.931 573.034 219.728 572.864C222.568 572.255 225.794 571.328 228.128 568.007C230.335 564.867 231.407 560.138 231.601 552.686C231.626 552.476 231.65 552.274 231.672 552.083L231.718 551.689L232.238 551.735L232.372 551.744C235.265 551.875 238.802 551.262 240.975 550.254C242.692 549.457 248.193 546.554 246.898 542.635" fill="black"/>
<path d="M241.951 543.397C233.349 545.171 232.757 542.26 232.757 542.26C241.84 528.789 245.637 511.689 242.36 507.504C233.421 496.089 217.948 501.488 217.689 501.628L217.606 501.643C215.907 501.29 214.005 501.08 211.867 501.045C207.975 500.981 205.022 502.065 202.781 503.763C202.781 503.763 175.178 492.397 176.462 518.058C176.735 523.518 184.29 559.366 193.302 548.538C196.596 544.578 199.778 541.231 199.778 541.231C201.359 542.28 203.251 542.816 205.235 542.623L205.389 542.493C205.341 542.984 205.363 543.465 205.45 544.034C203.129 546.627 203.811 547.082 199.17 548.037C194.474 549.004 197.233 550.726 199.034 551.177C201.218 551.722 206.269 552.495 209.683 547.719L209.547 548.264C210.456 548.993 211.095 553.001 210.988 556.635C210.881 560.269 210.809 562.763 211.526 564.712C212.243 566.661 212.957 571.045 219.058 569.739C224.155 568.647 226.797 565.817 227.165 561.097C227.425 557.741 228.016 558.238 228.053 555.237L228.526 553.817C229.072 549.268 228.613 547.801 231.753 548.484L232.517 548.551C234.828 548.656 237.854 548.179 239.63 547.354C243.453 545.58 245.721 542.619 241.95 543.397H241.951" fill="#336791"/>
<path d="M204.397 520.5C203.622 520.392 202.92 520.492 202.565 520.761C202.365 520.912 202.303 521.087 202.287 521.208C202.242 521.527 202.466 521.88 202.604 522.062C202.993 522.578 203.562 522.933 204.124 523.011C204.206 523.022 204.287 523.028 204.368 523.028C205.307 523.028 206.16 522.297 206.235 521.758C206.329 521.082 205.349 520.632 204.397 520.5" fill="white"/>
<path d="M230.078 520.521C230.004 519.992 229.062 519.841 228.167 519.965C227.274 520.089 226.408 520.493 226.481 521.023C226.538 521.436 227.284 522.14 228.166 522.14C228.241 522.14 228.316 522.135 228.392 522.124C228.981 522.043 229.413 521.669 229.618 521.454C229.93 521.125 230.112 520.759 230.078 520.521" fill="white"/>
<path d="M244.813 543.196C244.485 542.204 243.43 541.885 241.676 542.247C236.468 543.322 234.603 542.577 233.99 542.127C238.038 535.963 241.368 528.512 243.165 521.56C244.016 518.267 244.486 515.208 244.525 512.716C244.567 509.98 244.101 507.969 243.139 506.741C239.263 501.79 233.573 499.134 226.686 499.061C221.951 499.008 217.951 500.219 217.175 500.56C215.542 500.154 213.762 499.904 211.824 499.873C208.269 499.815 205.197 500.666 202.653 502.399C201.548 501.988 198.693 501.009 195.2 500.446C189.163 499.475 184.366 500.211 180.942 502.635C176.857 505.528 174.971 510.699 175.336 518.005C175.459 520.462 176.86 528.023 179.071 535.264C181.982 544.795 185.146 550.19 188.474 551.3C188.864 551.43 189.313 551.521 189.809 551.521C191.023 551.521 192.512 550.974 194.061 549.112C195.95 546.847 197.904 544.637 199.921 542.484C201.23 543.186 202.668 543.578 204.138 543.617C204.141 543.656 204.144 543.694 204.148 543.732C203.895 544.034 203.647 544.34 203.405 544.65C202.386 545.943 202.174 546.212 198.894 546.887C197.962 547.08 195.484 547.59 195.448 549.326C195.408 551.222 198.376 552.019 198.715 552.103C199.893 552.398 201.028 552.544 202.111 552.544C204.744 552.544 207.061 551.679 208.913 550.005C208.856 556.766 209.138 563.429 209.95 565.459C210.616 567.12 212.241 571.182 217.374 571.181C218.127 571.181 218.956 571.094 219.868 570.898C225.225 569.751 227.552 567.384 228.452 562.166C228.933 559.378 229.76 552.719 230.148 549.147C230.969 549.403 232.025 549.52 233.166 549.52C235.548 549.52 238.295 549.014 240.018 548.215C241.954 547.316 245.447 545.111 244.813 543.196V543.196ZM232.056 519.06C232.038 520.114 231.893 521.072 231.739 522.071C231.573 523.145 231.402 524.257 231.359 525.605C231.316 526.918 231.48 528.283 231.639 529.602C231.959 532.268 232.288 535.012 231.015 537.72C230.804 537.346 230.615 536.959 230.451 536.561C230.293 536.178 229.949 535.562 229.474 534.71C227.623 531.392 223.288 523.622 225.507 520.451C226.168 519.508 227.845 518.538 232.056 519.06V519.06ZM226.952 501.196C233.123 501.332 238.004 503.64 241.46 508.054C244.111 511.44 241.192 526.846 232.742 540.137C232.657 540.029 232.572 539.922 232.486 539.814L232.379 539.681C234.563 536.076 234.136 532.51 233.756 529.348C233.599 528.051 233.452 526.825 233.49 525.674C233.528 524.454 233.69 523.407 233.846 522.395C234.038 521.148 234.233 519.858 234.179 518.337C234.219 518.177 234.235 517.989 234.214 517.765C234.077 516.306 232.411 511.941 229.015 507.99C227.157 505.829 224.449 503.41 220.75 501.779C222.341 501.449 224.516 501.142 226.952 501.196V501.196ZM192.422 547.75C190.715 549.801 189.537 549.408 189.149 549.279C186.624 548.437 183.694 543.102 181.11 534.643C178.875 527.323 177.569 519.962 177.465 517.898C177.139 511.37 178.722 506.821 182.171 504.376C187.783 500.398 197.011 502.779 200.719 503.987C200.666 504.039 200.61 504.089 200.558 504.142C194.473 510.284 194.617 520.778 194.632 521.419C194.632 521.667 194.653 522.017 194.681 522.499C194.786 524.264 194.981 527.549 194.46 531.269C193.976 534.726 195.043 538.11 197.385 540.553C197.625 540.803 197.878 541.041 198.142 541.266C197.099 542.382 194.833 544.85 192.422 547.75V547.75ZM198.924 539.079C197.036 537.11 196.179 534.371 196.571 531.564C197.121 527.635 196.918 524.212 196.809 522.373C196.794 522.116 196.78 521.89 196.772 521.713C197.661 520.925 201.78 518.719 204.718 519.392C206.058 519.698 206.875 520.611 207.215 522.18C208.972 530.305 207.447 533.692 206.222 536.413C205.97 536.974 205.731 537.504 205.527 538.052L205.369 538.476C204.97 539.547 204.598 540.543 204.367 541.489C202.36 541.484 200.408 540.627 198.924 539.078V539.079ZM199.232 550.036C198.646 549.89 198.119 549.636 197.81 549.425C198.068 549.303 198.527 549.138 199.325 548.974C203.182 548.18 203.778 547.62 205.079 545.969C205.378 545.59 205.716 545.161 206.184 544.638L206.185 544.638C206.882 543.857 207.201 543.989 207.779 544.229C208.248 544.423 208.705 545.011 208.89 545.657C208.978 545.962 209.076 546.542 208.754 546.993C206.036 550.796 202.076 550.748 199.232 550.036V550.036ZM219.421 568.815C214.702 569.826 213.031 567.419 211.93 564.667C211.219 562.891 210.87 554.881 211.117 546.034C211.121 545.917 211.104 545.803 211.071 545.696C211.043 545.485 210.998 545.276 210.94 545.071C210.571 543.784 209.673 542.707 208.595 542.261C208.167 542.084 207.382 541.758 206.438 542C206.639 541.171 206.988 540.234 207.367 539.22L207.526 538.794C207.704 538.313 207.929 537.815 208.166 537.287C209.448 534.44 211.204 530.54 209.298 521.73C208.584 518.43 206.2 516.818 202.587 517.193C200.42 517.417 198.438 518.291 197.449 518.792C197.236 518.899 197.042 519.003 196.86 519.104C197.136 515.78 198.179 509.566 202.079 505.634C204.534 503.16 207.804 501.937 211.788 502.003C219.639 502.131 224.673 506.158 227.514 509.514C229.962 512.406 231.288 515.318 231.817 516.89C227.838 516.485 225.132 517.27 223.76 519.23C220.776 523.494 225.393 531.77 227.612 535.747C228.019 536.476 228.37 537.106 228.481 537.374C229.203 539.124 230.139 540.293 230.821 541.146C231.031 541.407 231.234 541.661 231.388 541.882C230.183 542.229 228.019 543.032 228.216 547.042C228.057 549.054 226.926 558.475 226.351 561.804C225.592 566.202 223.973 567.839 219.421 568.815V568.815ZM239.121 546.282C237.888 546.854 235.826 547.283 233.868 547.375C231.704 547.476 230.602 547.132 230.343 546.921C230.222 544.422 231.152 544.161 232.137 543.885C232.292 543.841 232.443 543.799 232.589 543.748C232.679 543.822 232.779 543.895 232.887 543.966C234.626 545.114 237.728 545.237 242.107 544.334L242.155 544.324C241.564 544.876 240.554 545.617 239.121 546.282Z" fill="white"/>
</g>
<circle cx="210.5" cy="527.5" r="61" stroke="#444444" stroke-width="3"/>
<path fill-rule="evenodd" clip-rule="evenodd" d="M264.409 390.223C264.458 391.245 265.479 390.773 265.942 390.453C266.381 390.15 266.51 390.403 266.549 389.804C266.588 389.411 266.604 389.016 266.597 388.622C265.915 388.553 265.231 388.729 264.666 389.117C264.385 389.321 263.861 389.971 264.409 390.231" fill="#F6D2A2"/>
<path d="M264.94 390.943C264.839 390.945 264.739 390.924 264.648 390.88C264.544 390.82 264.458 390.733 264.399 390.628C264.34 390.523 264.311 390.404 264.314 390.284C264.246 390.251 264.188 390.202 264.145 390.141C264.101 390.079 264.074 390.008 264.066 389.934C264.085 389.754 264.142 389.58 264.234 389.425C264.327 389.269 264.452 389.136 264.601 389.034C265.184 388.631 265.892 388.45 266.597 388.523L266.681 388.53V388.614C266.692 388.923 266.682 389.232 266.653 389.539C266.645 389.629 266.639 389.719 266.633 389.809C266.606 390.233 266.526 390.297 266.307 390.373C266.192 390.41 266.083 390.463 265.984 390.533C265.677 390.757 265.318 390.898 264.94 390.943V390.943ZM266.313 388.706C265.745 388.698 265.189 388.869 264.722 389.194C264.522 389.34 264.243 389.681 264.267 389.916C264.274 389.966 264.294 390.013 264.327 390.052C264.359 390.09 264.401 390.119 264.449 390.135L264.502 390.16V390.218C264.514 390.473 264.591 390.636 264.731 390.706C265 390.839 265.503 390.634 265.883 390.373C265.997 390.294 266.122 390.232 266.254 390.19C266.398 390.14 266.427 390.129 266.448 389.796C266.448 389.706 266.461 389.616 266.468 389.524C266.493 389.253 266.504 388.981 266.5 388.71C266.437 388.707 266.375 388.706 266.315 388.706H266.313Z" fill="black"/>
<path fill-rule="evenodd" clip-rule="evenodd" d="M264.409 390.223C264.564 390.189 264.706 390.109 264.816 389.994Z" fill="#C6B198"/>
<path d="M264.409 390.321C264.387 390.32 264.365 390.312 264.348 390.297C264.332 390.282 264.32 390.262 264.316 390.24C264.313 390.218 264.316 390.196 264.327 390.176C264.338 390.157 264.355 390.141 264.376 390.133L264.441 390.109C264.556 390.083 264.659 390.023 264.739 389.937C264.746 389.926 264.756 389.915 264.767 389.908C264.778 389.9 264.791 389.894 264.804 389.892C264.818 389.889 264.831 389.889 264.845 389.892C264.858 389.895 264.871 389.901 264.882 389.909C264.893 389.917 264.902 389.928 264.908 389.94C264.915 389.952 264.919 389.965 264.921 389.978C264.922 389.992 264.92 390.006 264.916 390.019C264.912 390.032 264.904 390.043 264.895 390.054C264.793 390.171 264.658 390.254 264.507 390.292L264.444 390.315C264.432 390.319 264.421 390.321 264.409 390.321V390.321Z" fill="black"/>
<path fill-rule="evenodd" clip-rule="evenodd" d="M266.769 378.045C262.855 376.945 265.765 371.97 268.907 374.014L266.769 378.045Z" fill="#6AD7E5"/>
<path d="M266.818 378.158L266.743 378.136C266.272 378.056 265.836 377.837 265.491 377.506C265.146 377.175 264.909 376.748 264.81 376.28C264.763 375.8 264.852 375.316 265.066 374.883C265.279 374.451 265.609 374.086 266.019 373.831C266.463 373.551 266.981 373.411 267.506 373.429C268.031 373.446 268.538 373.622 268.962 373.931L269.036 373.98L266.818 378.158ZM267.374 373.621C266.93 373.621 266.496 373.75 266.124 373.992C265.746 374.226 265.44 374.562 265.242 374.96C265.044 375.359 264.96 375.805 265.002 376.248C265.091 376.666 265.301 377.049 265.607 377.348C265.912 377.647 266.299 377.85 266.719 377.93L268.78 374.048C268.36 373.778 267.873 373.631 267.374 373.623V373.621Z" fill="black"/>
<path fill-rule="evenodd" clip-rule="evenodd" d="M284.156 373.641C287.25 371.465 290.052 376.374 286.453 377.609L284.156 373.641Z" fill="#6AD7E5"/>
<path d="M286.409 377.727L284.027 373.612L284.1 373.561C284.496 373.244 284.978 373.052 285.484 373.01C285.989 372.967 286.496 373.076 286.94 373.323C287.359 373.569 287.702 373.926 287.93 374.356C288.158 374.785 288.263 375.269 288.232 375.754C288.169 376.217 287.969 376.649 287.657 376.997C287.345 377.344 286.936 377.589 286.483 377.701L286.409 377.727ZM284.286 373.669L286.497 377.489C286.898 377.38 287.258 377.156 287.532 376.844C287.806 376.532 287.982 376.146 288.039 375.734C288.067 375.286 287.97 374.839 287.758 374.443C287.547 374.046 287.23 373.716 286.842 373.49C286.446 373.262 285.992 373.158 285.537 373.19C285.081 373.222 284.646 373.389 284.286 373.669V373.669Z" fill="black"/>
<path fill-rule="evenodd" clip-rule="evenodd" d="M284.823 402.805C285.61 403.291 287.05 404.764 285.867 405.478C284.734 406.516 284.099 404.338 283.103 404.036C283.294 403.728 283.544 403.46 283.84 403.249C284.135 403.037 284.469 402.887 284.823 402.805V402.805Z" fill="#F6D2A2"/>
<path d="M285.269 405.854H285.222C284.776 405.827 284.404 405.391 284.046 404.969C283.799 404.611 283.465 404.322 283.074 404.131L282.943 404.092L283.025 403.98C283.428 403.339 284.069 402.882 284.808 402.711H284.844L284.875 402.729C285.378 403.041 286.418 403.952 286.413 404.776C286.41 404.939 286.364 405.098 286.278 405.237C286.193 405.375 286.071 405.488 285.927 405.563C285.752 405.74 285.517 405.844 285.269 405.854V405.854ZM283.259 403.998C283.625 404.214 283.944 404.503 284.194 404.848C284.542 405.256 284.871 405.642 285.235 405.665C285.341 405.664 285.446 405.642 285.543 405.6C285.641 405.557 285.728 405.495 285.8 405.417L285.815 405.406C285.933 405.348 286.033 405.26 286.103 405.149C286.174 405.039 286.213 404.911 286.216 404.78C286.216 404.121 285.385 403.295 284.8 402.924C284.169 403.07 283.618 403.452 283.259 403.992V403.998Z" fill="black"/>
<path d="M285.867 405.576C285.849 405.575 285.832 405.57 285.816 405.561C285.801 405.552 285.789 405.538 285.781 405.522C285.723 405.401 285.672 405.278 285.628 405.151C285.561 404.913 285.44 404.694 285.274 404.51C285.259 404.492 285.251 404.468 285.252 404.444C285.253 404.42 285.263 404.397 285.279 404.38C285.296 404.363 285.319 404.352 285.342 404.35C285.366 404.348 285.39 404.356 285.409 404.37C285.597 404.574 285.734 404.818 285.811 405.084C285.853 405.202 285.901 405.318 285.955 405.431C285.967 405.454 285.969 405.481 285.96 405.505C285.952 405.53 285.935 405.55 285.912 405.562C285.898 405.57 285.883 405.575 285.867 405.576V405.576Z" fill="black"/>
<path fill-rule="evenodd" clip-rule="evenodd" d="M270.766 404.469C269.843 404.612 269.323 405.446 268.553 405.869C267.828 406.302 267.55 405.73 267.485 405.614C267.372 405.562 267.381 405.662 267.206 405.49C266.529 404.423 267.905 403.65 268.62 403.12C269.616 402.919 270.241 403.782 270.766 404.469Z" fill="#F6D2A2"/>
<path d="M268.062 406.125C268.003 406.125 267.944 406.118 267.888 406.103C267.786 406.069 267.692 406.016 267.611 405.946C267.53 405.876 267.464 405.79 267.417 405.694H267.395C267.313 405.694 267.253 405.677 267.131 405.554L267.118 405.538C266.471 404.516 267.572 403.74 268.302 403.227C268.394 403.162 268.48 403.103 268.558 403.044L268.576 403.031H268.597C269.623 402.823 270.271 403.672 270.791 404.354L270.938 404.546L270.776 404.571C270.254 404.696 269.78 404.968 269.408 405.355C269.159 405.584 268.886 405.786 268.595 405.959C268.436 406.061 268.251 406.118 268.062 406.125V406.125ZM267.41 405.499C267.449 405.499 267.488 405.508 267.524 405.525L267.552 405.538L267.577 405.582C267.612 405.659 267.662 405.728 267.724 405.785C267.786 405.842 267.859 405.886 267.938 405.915C268.036 405.933 268.136 405.931 268.233 405.91C268.33 405.889 268.422 405.848 268.503 405.791C268.783 405.623 269.045 405.428 269.286 405.208C269.652 404.842 270.1 404.569 270.593 404.411C270.098 403.76 269.526 403.057 268.66 403.219C268.579 403.278 268.496 403.336 268.412 403.391C267.67 403.916 266.739 404.569 267.275 405.431C267.352 405.507 267.37 405.506 267.386 405.506L267.41 405.499Z" fill="black"/>
<path d="M267.484 405.71H267.475C267.45 405.708 267.426 405.696 267.409 405.676C267.392 405.657 267.384 405.631 267.386 405.605C267.426 405.346 267.534 405.102 267.699 404.897C267.777 404.79 267.846 404.675 267.904 404.556C267.915 404.534 267.935 404.518 267.958 404.51C267.981 404.501 268.007 404.503 268.029 404.513C268.052 404.523 268.07 404.541 268.08 404.564C268.089 404.586 268.09 404.612 268.082 404.635C268.019 404.765 267.946 404.889 267.861 405.006C267.716 405.185 267.619 405.398 267.582 405.625C267.579 405.649 267.567 405.671 267.549 405.686C267.531 405.702 267.508 405.711 267.484 405.71V405.71Z" fill="black"/>
<path fill-rule="evenodd" clip-rule="evenodd" d="M266.932 376.672C266.416 376.399 266.037 376.029 266.353 375.435C266.645 374.882 267.188 374.94 267.704 375.215L266.932 376.672Z" fill="black"/>
<path fill-rule="evenodd" clip-rule="evenodd" d="M285.637 376.15C286.153 375.877 286.532 375.507 286.216 374.913C285.924 374.36 285.381 374.418 284.865 374.692L285.637 376.15Z" fill="black"/>
<path fill-rule="evenodd" clip-rule="evenodd" d="M289.191 390.094C289.142 391.117 288.121 390.644 287.658 390.325C287.219 390.021 287.09 390.274 287.051 389.675C287.012 389.282 286.996 388.888 287.003 388.493C287.685 388.425 288.369 388.6 288.934 388.988C289.215 389.192 289.739 389.842 289.191 390.102" fill="#F6D2A2"/>
<path d="M288.66 390.813C288.278 390.771 287.914 390.63 287.603 390.404C287.504 390.335 287.395 390.281 287.28 390.244C287.061 390.167 286.982 390.103 286.955 389.68C286.955 389.59 286.943 389.5 286.935 389.41C286.905 389.103 286.896 388.794 286.907 388.486V388.402L286.991 388.394C287.696 388.321 288.404 388.502 288.987 388.905C289.136 389.007 289.261 389.141 289.353 389.296C289.446 389.451 289.503 389.625 289.522 389.805C289.513 389.879 289.486 389.951 289.443 390.012C289.4 390.073 289.342 390.122 289.274 390.155C289.277 390.275 289.248 390.394 289.189 390.499C289.13 390.604 289.044 390.691 288.94 390.752C288.852 390.793 288.757 390.814 288.66 390.813V390.813ZM287.097 388.586C287.093 388.858 287.104 389.13 287.129 389.4L287.149 389.672C287.17 390.005 287.2 390.015 287.344 390.066C287.476 390.108 287.601 390.17 287.715 390.249C288.093 390.511 288.597 390.716 288.867 390.582C289.007 390.513 289.083 390.349 289.096 390.094V390.036L289.149 390.012C289.197 389.995 289.239 389.966 289.271 389.928C289.303 389.889 289.324 389.842 289.331 389.792C289.353 389.557 289.076 389.216 288.876 389.07C288.356 388.708 287.728 388.536 287.097 388.582V388.586Z" fill="black"/>
<path fill-rule="evenodd" clip-rule="evenodd" d="M289.191 390.094C289.036 390.06 288.894 389.98 288.784 389.865Z" fill="#C6B198"/>
<path d="M289.191 390.191C289.18 390.193 289.169 390.193 289.158 390.191L289.095 390.169C288.944 390.131 288.808 390.047 288.706 389.93C288.697 389.92 288.69 389.908 288.685 389.895C288.681 389.882 288.679 389.868 288.681 389.855C288.682 389.841 288.686 389.828 288.693 389.816C288.7 389.804 288.709 389.794 288.72 389.785C288.731 389.777 288.743 389.771 288.756 389.768C288.77 389.765 288.784 389.765 288.797 389.768C288.81 389.771 288.823 389.776 288.834 389.784C288.845 389.792 288.855 389.802 288.862 389.814C288.942 389.899 289.046 389.959 289.16 389.986L289.226 390.009C289.246 390.018 289.263 390.033 289.274 390.052C289.285 390.072 289.289 390.095 289.285 390.117C289.281 390.139 289.27 390.159 289.253 390.173C289.236 390.188 289.215 390.196 289.192 390.197L289.191 390.191Z" fill="black"/>
<path fill-rule="evenodd" clip-rule="evenodd" d="M276.408 371.573C280.326 371.573 283.999 372.133 285.913 375.898C287.632 380.116 287.021 384.667 287.283 389.125C287.508 392.954 288.007 397.377 286.231 400.926C284.362 404.659 279.693 405.598 275.846 405.46C272.824 405.353 269.175 404.367 267.469 401.606C265.468 398.367 266.416 393.551 266.561 389.947C266.733 385.679 265.405 381.396 266.808 377.219C268.264 372.888 272.187 371.907 276.409 371.573" fill="#6AD7E5"/>
<path d="M276.515 405.568C276.268 405.568 276.045 405.568 275.843 405.556C273.987 405.489 269.438 404.975 267.388 401.655C265.77 399.037 266.058 395.417 266.312 392.223C266.377 391.42 266.436 390.66 266.466 389.942C266.495 388.427 266.43 386.912 266.271 385.406C265.85 382.665 266.002 379.866 266.717 377.187C267.013 376.232 267.505 375.35 268.161 374.596C268.817 373.842 269.624 373.233 270.528 372.808C272.384 371.996 274.376 371.544 276.4 371.475H276.408C280.233 371.475 284.043 372.006 286 375.853V375.861C287.043 378.95 287.482 382.211 287.292 385.466C287.298 386.665 287.305 387.907 287.376 389.119C287.397 389.491 287.421 389.862 287.446 390.233C287.674 393.749 287.931 397.735 286.314 400.966C284.298 405.001 279.209 405.568 276.515 405.568V405.568ZM276.411 371.669C272.335 371.992 268.368 372.892 266.899 377.249C266.194 379.903 266.045 382.675 266.462 385.389C266.62 386.905 266.683 388.428 266.652 389.951C266.623 390.674 266.563 391.436 266.499 392.24C266.252 395.405 265.962 398.991 267.546 401.555C269.548 404.796 274.016 405.298 275.843 405.363C278.222 405.448 283.985 405.181 286.137 400.882C287.731 397.698 287.475 393.74 287.251 390.249L287.18 389.135C287.108 387.918 287.102 386.674 287.096 385.472C287.285 382.244 286.852 379.009 285.82 375.944C283.916 372.188 280.172 371.671 276.411 371.669V371.669Z" fill="black"/>
<path fill-rule="evenodd" clip-rule="evenodd" d="M277.1 376.832C277.802 380.916 284.487 379.84 283.527 375.718C282.661 372.021 276.866 373.044 277.1 376.832Z" fill="white"/>
<path d="M280.275 379.5C279.859 379.502 279.446 379.434 279.052 379.3C278.516 379.122 278.041 378.799 277.679 378.365C277.318 377.932 277.085 377.406 277.007 376.847V376.837C276.957 375.983 277.241 375.142 277.799 374.493C278.357 373.843 279.144 373.435 279.997 373.355C280.787 373.191 281.61 373.344 282.287 373.782C282.965 374.22 283.443 374.907 283.619 375.695C283.764 376.208 283.763 376.751 283.615 377.263C283.468 377.776 283.181 378.237 282.786 378.594C282.086 379.19 281.194 379.512 280.275 379.5V379.5ZM277.194 376.821C277.268 377.345 277.487 377.839 277.826 378.245C278.166 378.652 278.612 378.956 279.114 379.123C279.713 379.324 280.353 379.368 280.974 379.251C281.595 379.134 282.175 378.86 282.66 378.455C283.03 378.118 283.299 377.685 283.437 377.204C283.574 376.723 283.573 376.213 283.436 375.732C283.268 374.991 282.816 374.345 282.176 373.936C281.536 373.526 280.761 373.384 280.018 373.542C279.214 373.618 278.472 374.002 277.946 374.613C277.419 375.224 277.15 376.016 277.194 376.821V376.821Z" fill="black"/>
<path fill-rule="evenodd" clip-rule="evenodd" d="M269.113 377.493C270.023 381.053 275.723 380.138 275.508 376.571C275.251 372.294 268.24 373.12 269.111 377.493" fill="white"/>
<path d="M272.153 379.842C271.574 379.847 271.002 379.709 270.489 379.438C270.123 379.24 269.803 378.966 269.55 378.634C269.298 378.303 269.118 377.922 269.024 377.516C268.883 376.962 268.904 376.379 269.086 375.837C269.267 375.295 269.6 374.816 270.046 374.457C270.583 374.047 271.22 373.786 271.89 373.701C272.561 373.615 273.243 373.708 273.866 373.97C274.373 374.191 274.806 374.554 275.114 375.015C275.421 375.476 275.589 376.015 275.598 376.569C275.627 377.367 275.35 378.146 274.823 378.746C274.296 379.346 273.56 379.722 272.765 379.797C272.562 379.828 272.358 379.843 272.153 379.842V379.842ZM269.202 377.473C269.398 378.219 269.877 378.86 270.537 379.259C271.197 379.659 271.987 379.785 272.739 379.613C273.488 379.544 274.183 379.191 274.681 378.626C275.179 378.062 275.443 377.328 275.418 376.576C275.41 376.055 275.252 375.548 274.964 375.114C274.676 374.681 274.269 374.339 273.792 374.131C273.199 373.882 272.551 373.793 271.913 373.874C271.276 373.956 270.671 374.204 270.16 374.593C269.741 374.931 269.428 375.382 269.258 375.893C269.088 376.403 269.069 376.952 269.202 377.473V377.473Z" fill="black"/>
<path fill-rule="evenodd" clip-rule="evenodd" d="M277.906 381.739C277.965 382.302 277.971 382.869 277.926 383.433C277.79 383.689 277.524 383.716 277.295 383.82C277.139 383.796 276.992 383.732 276.867 383.635C276.743 383.537 276.645 383.41 276.583 383.265C276.549 382.625 276.566 381.984 276.634 381.348L277.906 381.739Z" fill="white"/>
<path d="M277.309 383.921H277.28C277.107 383.893 276.944 383.822 276.807 383.714C276.669 383.605 276.562 383.463 276.494 383.302V383.276C276.453 382.838 276.457 382.397 276.505 381.96C276.522 381.759 276.538 381.551 276.544 381.342V381.218L278.005 381.666V381.738C278.005 381.913 278.02 382.095 278.035 382.287C278.08 382.673 278.077 383.064 278.025 383.449V383.464L278.018 383.478C277.961 383.57 277.887 383.651 277.799 383.715C277.711 383.779 277.611 383.824 277.505 383.849C277.447 383.87 277.393 383.888 277.34 383.913L277.309 383.921ZM276.679 383.239C276.733 383.362 276.816 383.47 276.921 383.553C277.027 383.637 277.151 383.694 277.283 383.719C277.333 383.698 277.385 383.679 277.435 383.661C277.596 383.627 277.738 383.534 277.833 383.4C277.877 383.035 277.877 382.666 277.833 382.302C277.821 382.132 277.809 381.97 277.805 381.807L276.722 381.475C276.713 381.644 276.701 381.811 276.689 381.97C276.641 382.392 276.637 382.817 276.676 383.239H276.679Z" fill="black"/>
<path d="M270.684 377.955C271.216 377.955 271.647 377.488 271.647 376.913C271.647 376.337 271.216 375.871 270.684 375.871C270.153 375.871 269.722 376.337 269.722 376.913C269.722 377.488 270.153 377.955 270.684 377.955Z" fill="black"/>
<path d="M271.122 377.413C271.247 377.413 271.349 377.294 271.349 377.148C271.349 377.001 271.247 376.883 271.122 376.883C270.997 376.883 270.896 377.001 270.896 377.148C270.896 377.294 270.997 377.413 271.122 377.413Z" fill="white"/>
<path d="M278.748 377.695C279.271 377.695 279.695 377.228 279.695 376.653C279.695 376.077 279.271 375.611 278.748 375.611C278.225 375.611 277.801 376.077 277.801 376.653C277.801 377.228 278.225 377.695 278.748 377.695Z" fill="black"/>
<path d="M279.178 377.153C279.301 377.153 279.401 377.034 279.401 376.888C279.401 376.742 279.301 376.623 279.178 376.623C279.055 376.623 278.956 376.742 278.956 376.888C278.956 377.034 279.055 377.153 279.178 377.153Z" fill="white"/>
<path fill-rule="evenodd" clip-rule="evenodd" d="M275.155 381.681C274.736 382.698 275.389 384.734 276.529 383.233C276.495 382.593 276.512 381.952 276.58 381.316L275.155 381.681Z" fill="white"/>
<path d="M275.768 383.866C275.67 383.866 275.573 383.839 275.488 383.789C275.215 383.513 275.03 383.162 274.954 382.781C274.879 382.399 274.918 382.004 275.066 381.645L275.085 381.6L276.676 381.189V381.313C276.67 381.524 276.653 381.734 276.637 381.932C276.589 382.356 276.584 382.783 276.624 383.208V383.247L276.601 383.28C276.273 383.726 275.989 383.866 275.768 383.866ZM275.228 381.762C275.11 382.074 275.081 382.413 275.144 382.741C275.207 383.069 275.359 383.372 275.585 383.619C275.879 383.787 276.203 383.495 276.427 383.204C276.392 382.779 276.397 382.352 276.444 381.928C276.456 381.769 276.468 381.605 276.477 381.443L275.228 381.762Z" fill="black"/>
<path fill-rule="evenodd" clip-rule="evenodd" d="M275.299 379.72C275.104 379.739 274.915 379.803 274.75 379.909C274.585 380.014 274.446 380.157 274.347 380.326C274.248 380.496 274.19 380.686 274.179 380.882C274.168 381.078 274.204 381.274 274.283 381.453C274.821 382.428 276.024 381.366 276.774 381.467C277.64 381.484 278.343 382.379 279.035 381.629C279.805 380.795 278.703 379.982 277.842 379.619L275.299 379.72Z" fill="#F6D2A2"/>
<path d="M278.419 382.026C278.142 382.004 277.873 381.929 277.625 381.804C277.359 381.672 277.069 381.59 276.773 381.564H276.762C276.458 381.565 276.158 381.629 275.881 381.752C275.273 381.963 274.584 382.2 274.198 381.505C274.104 381.33 274.056 381.134 274.059 380.935C274.062 380.737 274.116 380.542 274.215 380.37C274.319 380.167 274.472 379.993 274.659 379.864C274.847 379.734 275.064 379.653 275.29 379.628L277.861 379.519L277.88 379.527C278.52 379.797 279.249 380.291 279.374 380.868C279.391 381.007 279.379 381.148 279.34 381.283C279.3 381.417 279.234 381.542 279.144 381.65C279.055 381.759 278.945 381.847 278.82 381.912C278.695 381.976 278.559 382.014 278.419 382.023V382.026ZM276.781 381.375C277.101 381.401 277.413 381.488 277.701 381.63C278.187 381.834 278.567 381.995 278.964 381.568C279.053 381.486 279.12 381.384 279.158 381.27C279.197 381.155 279.206 381.033 279.185 380.915C279.077 380.42 278.39 379.963 277.823 379.722L275.304 379.822C275.11 379.846 274.926 379.917 274.766 380.029C274.606 380.14 274.475 380.289 274.386 380.462C274.302 380.605 274.257 380.768 274.254 380.934C274.25 381.1 274.289 381.264 274.367 381.411C274.674 381.967 275.233 381.775 275.815 381.572C276.119 381.437 276.449 381.37 276.781 381.375V381.375Z" fill="#231F20"/>
<path fill-rule="evenodd" clip-rule="evenodd" d="M275.201 379.68C275.143 378.325 277.728 378.157 278.038 379.29C278.347 380.422 275.332 380.686 275.205 379.681L275.201 379.68Z" fill="black"/>
<circle cx="277" cy="389" r="28.5" stroke="#444444" stroke-width="3"/>
<circle cx="561" cy="380" r="39.5" stroke="#444444" stroke-width="3"/>
<g clip-path="url(#clip4_26_322)">
<path fill-rule="evenodd" clip-rule="evenodd" d="M542.659 374.401H533.144V379.154H537.826C537.906 379.154 537.983 379.186 538.039 379.242C538.096 379.299 538.128 379.375 538.128 379.455V384.055H542.961V374.702C542.961 374.663 542.954 374.624 542.939 374.587C542.923 374.551 542.901 374.517 542.873 374.489C542.845 374.461 542.812 374.439 542.775 374.424C542.738 374.409 542.699 374.401 542.659 374.401V374.401Z" fill="#8E75FF"/>
<path opacity="0.405" fill-rule="evenodd" clip-rule="evenodd" d="M533.143 374.402V379.155H528.679C528.649 379.155 528.62 379.146 528.595 379.129C528.57 379.113 528.551 379.089 528.539 379.061C528.528 379.034 528.525 379.003 528.531 378.974C528.537 378.945 528.552 378.918 528.573 378.897L533.143 374.402H533.143ZM538.385 388.555C538.364 388.576 538.337 388.59 538.308 388.596C538.279 388.601 538.248 388.598 538.221 388.587C538.193 388.575 538.17 388.556 538.153 388.532C538.137 388.507 538.128 388.478 538.128 388.448V384.055H542.961L538.385 388.555V388.555V388.555Z" fill="#8E75FF"/>
<path opacity="0.405" fill-rule="evenodd" clip-rule="evenodd" d="M533.143 379.154H537.977C538.06 379.154 538.128 379.221 538.128 379.304V384.055H533.446C533.406 384.055 533.367 384.047 533.33 384.032C533.293 384.017 533.26 383.995 533.232 383.967C533.204 383.939 533.182 383.905 533.166 383.869C533.151 383.832 533.143 383.793 533.143 383.754V379.154H533.143V379.154Z" fill="#8E75FF"/>
<path fill-rule="evenodd" clip-rule="evenodd" d="M591.703 374.101C591.973 374.367 592.291 374.5 592.659 374.5C593.039 374.5 593.363 374.367 593.634 374.101C593.904 373.835 594.038 373.521 594.038 373.159C594.038 372.797 593.904 372.48 593.634 372.208C593.508 372.077 593.357 371.973 593.189 371.903C593.021 371.833 592.841 371.798 592.659 371.8C592.291 371.8 591.973 371.936 591.703 372.207C591.432 372.48 591.298 372.796 591.298 373.159C591.298 373.521 591.432 373.835 591.703 374.101V374.101ZM562.395 377.574C562.395 377.588 562.39 377.601 562.38 377.61C562.371 377.619 562.358 377.625 562.344 377.625H560.447V381.157C560.447 381.452 560.522 381.667 560.671 381.803C560.82 381.939 561.039 382.015 561.326 382.032C561.589 382.048 561.909 382.046 562.288 382.029L562.341 382.026C562.348 382.026 562.355 382.027 562.362 382.029C562.368 382.031 562.374 382.035 562.379 382.04C562.384 382.045 562.388 382.05 562.391 382.057C562.394 382.063 562.395 382.07 562.395 382.077V383.964C562.395 383.977 562.39 383.989 562.382 383.998C562.374 384.008 562.362 384.014 562.35 384.015L562.315 384.019C560.829 384.175 559.778 384.03 559.163 383.585C558.536 383.133 558.224 382.323 558.224 381.157V377.625H556.774C556.761 377.625 556.748 377.619 556.739 377.61C556.729 377.6 556.724 377.588 556.724 377.574V375.57C556.724 375.542 556.746 375.519 556.774 375.519H558.223V374.118C558.223 374.077 558.248 374.041 558.285 374.024L560.376 373.118C560.383 373.114 560.392 373.113 560.4 373.114C560.409 373.114 560.417 373.117 560.424 373.122C560.431 373.126 560.437 373.132 560.441 373.14C560.445 373.147 560.447 373.156 560.447 373.164V375.519H562.344C562.372 375.519 562.395 375.542 562.395 375.57V377.574H562.396H562.395ZM566.428 376.98C566.634 376.436 566.976 376.029 567.453 375.757C567.923 375.49 568.455 375.35 568.996 375.35C569.01 375.35 569.023 375.355 569.032 375.365C569.042 375.374 569.047 375.387 569.047 375.401V377.703C569.047 377.715 569.045 377.726 569.04 377.737C569.035 377.747 569.029 377.757 569.02 377.765C569.011 377.772 569.001 377.778 568.99 377.782C568.979 377.785 568.968 377.787 568.956 377.785C568.315 377.728 567.739 377.867 567.228 378.203C566.694 378.553 566.428 379.136 566.428 379.952V383.96C566.428 383.966 566.426 383.973 566.424 383.979C566.421 383.985 566.417 383.991 566.412 383.996C566.408 384 566.402 384.004 566.396 384.006C566.39 384.009 566.383 384.01 566.376 384.01H564.254C564.241 384.01 564.228 384.005 564.218 383.995C564.209 383.986 564.203 383.973 564.203 383.96V375.569C564.203 375.542 564.226 375.518 564.254 375.518H566.376C566.404 375.518 566.427 375.541 566.427 375.569V376.979L566.428 376.98ZM576.942 375.519C576.935 375.519 576.929 375.52 576.922 375.523C576.916 375.525 576.91 375.529 576.906 375.534C576.901 375.538 576.897 375.544 576.894 375.55C576.892 375.556 576.891 375.563 576.891 375.57V376.522C576.224 375.695 575.288 375.281 574.081 375.281C572.932 375.281 571.946 375.714 571.125 376.58C570.303 377.447 569.892 378.508 569.892 379.765C569.892 381.021 570.303 382.083 571.125 382.949C571.946 383.815 572.932 384.248 574.081 384.248C575.288 384.248 576.224 383.835 576.891 383.008V383.96C576.891 383.987 576.914 384.01 576.942 384.01H579.064C579.077 384.01 579.09 384.005 579.1 383.995C579.109 383.986 579.115 383.973 579.115 383.96V375.569C579.115 375.562 579.113 375.556 579.111 375.55C579.108 375.544 579.105 375.538 579.1 375.533C579.095 375.528 579.089 375.525 579.083 375.522C579.077 375.52 579.07 375.518 579.064 375.518H576.942V375.519H576.942ZM572.788 381.497C573.236 381.939 573.805 382.159 574.495 382.159C575.184 382.159 575.756 381.935 576.21 381.488C576.664 381.041 576.89 380.467 576.89 379.765C576.89 379.063 576.664 378.488 576.21 378.041C575.756 377.594 575.184 377.37 574.494 377.37C573.805 377.37 573.236 377.594 572.788 378.041C572.34 378.488 572.116 379.063 572.116 379.765C572.116 380.467 572.34 381.044 572.788 381.497L572.788 381.497ZM588.999 376.58C588.178 375.714 587.186 375.281 586.026 375.281C584.819 375.281 583.888 375.695 583.233 376.521V375.57C583.233 375.556 583.228 375.543 583.218 375.534C583.209 375.525 583.196 375.519 583.182 375.519H581.06C581.047 375.519 581.034 375.525 581.024 375.534C581.015 375.543 581.009 375.556 581.009 375.57V387.355C581.009 387.384 581.032 387.407 581.06 387.407H583.182C583.196 387.406 583.209 387.401 583.218 387.391C583.228 387.382 583.233 387.369 583.233 387.356V383.008C583.888 383.835 584.819 384.248 586.026 384.248C587.186 384.248 588.178 383.815 588.999 382.949C589.821 382.083 590.232 381.021 590.232 379.765C590.232 378.508 589.821 377.447 588.999 376.58V376.58ZM583.905 381.497C584.354 381.939 584.922 382.159 585.612 382.159C586.301 382.159 586.873 381.935 587.327 381.488C587.781 381.041 588.008 380.467 588.008 379.765C588.008 379.063 587.781 378.488 587.327 378.041C586.873 377.594 586.301 377.37 585.612 377.37C584.922 377.37 584.354 377.594 583.905 378.041C583.457 378.488 583.233 379.063 583.233 379.765C583.233 380.467 583.457 381.044 583.905 381.497V381.497ZM591.607 384.01C591.594 384.01 591.581 384.005 591.571 383.995C591.562 383.986 591.556 383.973 591.556 383.96V375.569C591.556 375.542 591.579 375.518 591.607 375.518H593.729C593.757 375.518 593.78 375.541 593.78 375.569V383.96C593.78 383.974 593.775 383.986 593.765 383.996C593.755 384.005 593.743 384.011 593.729 384.011H591.607V384.01V384.01ZM551.957 378.483C551.652 378.341 551.501 378.157 551.501 377.931C551.501 377.716 551.595 377.546 551.785 377.421C551.974 377.297 552.213 377.234 552.5 377.234C553.051 377.234 553.467 377.446 553.749 377.869C553.758 377.884 553.772 377.894 553.789 377.899C553.805 377.904 553.823 377.903 553.839 377.897L555.715 377.078C555.722 377.076 555.728 377.071 555.732 377.066C555.737 377.061 555.741 377.055 555.743 377.048C555.745 377.041 555.746 377.034 555.745 377.027C555.744 377.02 555.742 377.013 555.739 377.007C555.717 376.971 555.695 376.935 555.672 376.9C555.351 376.402 554.936 376.031 554.414 375.748C553.839 375.437 553.201 375.281 552.5 375.281C551.569 375.281 550.791 375.522 550.164 376.003C549.538 376.484 549.225 377.144 549.225 377.981C549.225 378.537 549.377 378.998 549.682 379.366C549.976 379.726 550.359 380.004 550.794 380.172C551.222 380.339 551.659 380.481 552.104 380.597C552.54 380.71 552.911 380.838 553.216 380.979C553.52 381.12 553.672 381.304 553.672 381.531C553.672 382.018 553.276 382.261 552.483 382.261C551.728 382.261 551.205 381.986 550.914 381.437C550.902 381.414 550.882 381.396 550.858 381.387C550.833 381.378 550.806 381.379 550.782 381.389L548.911 382.206C548.905 382.209 548.899 382.213 548.895 382.218C548.89 382.223 548.886 382.228 548.884 382.235C548.882 382.241 548.881 382.248 548.881 382.255C548.881 382.261 548.883 382.268 548.886 382.274L548.907 382.317C549.561 383.604 550.753 384.248 552.483 384.248C553.471 384.248 554.296 384.013 554.957 383.544C555.618 383.073 555.948 382.402 555.948 381.531C555.948 380.953 555.796 380.472 555.491 380.087C555.204 379.715 554.819 379.43 554.379 379.264C553.951 379.102 553.514 378.966 553.069 378.856C552.632 378.748 552.262 378.624 551.957 378.482V378.483V378.483Z" fill="#2F2E8B"/>
</g>
<circle cx="258.5" cy="268.5" r="37" stroke="#444444" stroke-width="3"/>
<g clip-path="url(#clip5_26_322)">
<path d="M258.808 247.248C246.901 247.248 237.248 256.901 237.248 268.808C237.248 280.715 246.901 290.368 258.808 290.368C270.715 290.368 280.368 280.715 280.368 268.808C280.368 256.901 270.715 247.248 258.808 247.248ZM241.881 269.033L258.583 285.735C249.412 285.616 242 278.204 241.881 269.033V269.033ZM262.597 285.312L242.304 265.019C244.025 257.493 250.761 251.878 258.808 251.878C264.433 251.878 269.417 254.622 272.496 258.844L270.152 260.913C267.654 257.331 263.505 254.988 258.808 254.988C252.828 254.988 247.735 258.786 245.81 264.102L263.514 281.806C267.814 280.249 271.12 276.62 272.227 272.125H264.889V268.808H275.738C275.738 276.856 270.123 283.591 262.597 285.312L262.597 285.312Z" fill="#744C9E"/>
</g>
<circle cx="442.5" cy="145.5" r="33" stroke="#444444" stroke-width="3"/>
<g clip-path="url(#clip6_26_322)">
<path d="M424.008 145.5V163.992H460.992V127.008H424.008V145.5Z" fill="#007ACC"/>
<path d="M432.187 145.623L432.175 147.137H436.989V160.816H440.394V147.137H445.207V145.652C445.207 144.83 445.19 144.143 445.166 144.126C445.149 144.102 442.219 144.09 438.668 144.096L432.204 144.114L432.187 145.623L432.187 145.623Z" fill="white"/>
<path d="M453.851 144.071C454.79 144.306 455.506 144.722 456.163 145.403C456.504 145.768 457.009 146.431 457.05 146.589C457.061 146.636 455.453 147.717 454.479 148.321C454.443 148.345 454.302 148.192 454.144 147.957C453.668 147.265 453.169 146.965 452.406 146.912C451.285 146.836 450.563 147.423 450.569 148.403C450.569 148.691 450.61 148.861 450.727 149.096C450.974 149.607 451.432 149.912 452.87 150.534C455.518 151.673 456.651 152.425 457.355 153.493C458.142 154.685 458.318 156.587 457.784 158.002C457.197 159.54 455.741 160.585 453.692 160.931C453.058 161.043 451.555 161.025 450.874 160.902C449.389 160.637 447.98 159.904 447.111 158.941C446.771 158.565 446.107 157.585 446.148 157.514C446.166 157.491 446.319 157.397 446.489 157.297C446.653 157.203 447.276 156.845 447.863 156.505L448.925 155.888L449.148 156.217C449.459 156.692 450.14 157.344 450.551 157.561C451.731 158.184 453.352 158.095 454.15 157.379C454.49 157.068 454.631 156.745 454.631 156.27C454.631 155.841 454.578 155.653 454.355 155.331C454.068 154.92 453.481 154.573 451.813 153.851C449.905 153.029 449.084 152.519 448.332 151.708C447.898 151.239 447.487 150.487 447.317 149.859C447.176 149.337 447.14 148.028 447.252 147.499C447.645 145.656 449.037 144.37 451.044 143.989C451.696 143.865 453.211 143.912 453.851 144.071V144.071Z" fill="white"/>
</g>
<circle cx="502.5" cy="483.5" r="61" stroke="#444444" stroke-width="3"/>
<path d="M514.667 495.667C521.11 495.667 526.333 490.443 526.333 484C526.333 477.557 521.11 472.333 514.667 472.333C508.223 472.333 503 477.557 503 484C503 490.443 508.223 495.667 514.667 495.667Z" fill="#19BCFE"/>
<path fill-rule="evenodd" clip-rule="evenodd" d="M491.333 519C494.427 519 497.395 517.771 499.583 515.583C501.771 513.395 503 510.428 503 507.333V495.667H491.333C488.239 495.667 485.272 496.896 483.084 499.084C480.896 501.272 479.667 504.239 479.667 507.333C479.667 510.428 480.896 513.395 483.084 515.583C485.272 517.771 488.239 519 491.333 519V519Z" fill="#09CF83"/>
<path fill-rule="evenodd" clip-rule="evenodd" d="M491.333 495.667H503V472.333H491.333C488.239 472.333 485.272 473.562 483.084 475.75C480.896 477.938 479.667 480.906 479.667 484C479.667 487.094 480.896 490.062 483.084 492.25C485.272 494.437 488.239 495.667 491.333 495.667V495.667Z" fill="#A259FF"/>
<path fill-rule="evenodd" clip-rule="evenodd" d="M491.333 472.333H503V449H491.333C488.239 449 485.272 450.229 483.084 452.417C480.896 454.605 479.667 457.572 479.667 460.667C479.667 463.761 480.896 466.728 483.084 468.916C485.272 471.104 488.239 472.333 491.333 472.333V472.333Z" fill="#F24E1E"/>
<path fill-rule="evenodd" clip-rule="evenodd" d="M514.667 472.333H503V449H514.667C517.761 449 520.728 450.229 522.916 452.417C525.104 454.605 526.333 457.572 526.333 460.667C526.333 463.761 525.104 466.728 522.916 468.916C520.728 471.104 517.761 472.333 514.667 472.333Z" fill="#FF7262"/>
<circle cx="341" cy="578" r="42.5" stroke="#444444" stroke-width="3"/>
<g clip-path="url(#clip7_26_322)">
<path fill-rule="evenodd" clip-rule="evenodd" d="M371.7 576.851C371.637 576.864 371.573 577.004 371.573 577.081C371.561 577.591 371.548 578.943 371.548 579.861C371.548 579.886 371.586 579.937 371.624 579.937C371.814 579.95 372.271 579.963 372.664 579.963C373.21 579.963 373.527 579.886 373.705 579.81C374.162 579.58 374.377 579.083 374.377 578.534C374.377 577.298 373.515 576.826 372.233 576.826C372.144 576.813 371.891 576.813 371.7 576.851V576.851ZM374.974 582.552C374.974 581.289 374.048 580.588 372.373 580.588C372.296 580.588 371.763 580.575 371.637 580.6C371.598 580.613 371.548 580.639 371.548 580.677C371.548 581.582 371.535 583.024 371.573 583.585C371.598 583.827 371.776 584.171 371.992 584.273C372.22 584.401 372.741 584.426 373.096 584.426C374.098 584.426 374.974 583.865 374.974 582.552V582.552ZM369.112 576.15C369.238 576.15 369.619 576.188 370.596 576.188C371.522 576.188 372.258 576.163 373.159 576.163C374.263 576.163 375.786 576.558 375.786 578.216C375.786 579.032 375.215 579.682 374.466 580.001C374.428 580.014 374.428 580.039 374.466 580.052C375.532 580.32 376.471 580.983 376.471 582.233C376.471 583.457 375.71 584.235 374.606 584.72C373.933 585.013 373.096 585.115 372.246 585.115C371.598 585.115 369.86 585.038 368.896 585.064C368.794 585.026 368.985 584.566 369.073 584.49C369.302 584.477 369.479 584.464 369.721 584.388C370.063 584.299 370.101 584.197 370.152 583.674C370.177 583.228 370.177 581.646 370.177 580.524C370.177 578.981 370.19 577.935 370.177 577.425C370.165 577.03 370.025 576.902 369.746 576.826C369.53 576.788 369.175 576.737 368.883 576.698C368.82 576.635 369.035 576.201 369.112 576.15ZM361.79 584.082C362.095 584.324 362.691 584.426 363.224 584.426C363.909 584.426 364.594 584.299 365.254 583.699C365.927 583.087 366.396 582.144 366.396 580.639C366.396 579.198 365.851 578.024 364.734 577.336C364.1 576.94 363.287 576.775 362.348 576.775C362.069 576.775 361.803 576.788 361.638 576.864C361.6 576.89 361.511 577.004 361.511 577.068C361.486 577.323 361.486 579.287 361.486 580.435C361.486 581.621 361.486 583.279 361.511 583.47C361.511 583.661 361.6 583.954 361.79 584.082H361.79ZM358.91 576.15C359.151 576.15 360.077 576.188 360.521 576.188C361.321 576.188 361.892 576.15 363.402 576.15C364.67 576.15 365.736 576.494 366.498 577.145C367.424 577.948 367.906 579.058 367.906 580.409C367.906 582.335 367.031 583.444 366.155 584.082C365.28 584.732 364.138 585.115 362.513 585.115C361.651 585.115 360.166 585.089 358.935 585.077H358.923C358.859 584.962 359.024 584.515 359.125 584.503C359.455 584.464 359.544 584.452 359.709 584.388C359.976 584.286 360.027 584.146 360.065 583.674C360.103 582.794 360.09 581.736 360.09 580.537C360.09 579.682 360.103 578.012 360.077 577.476C360.039 577.03 359.849 576.915 359.468 576.838C359.278 576.8 359.024 576.749 358.669 576.711C358.618 576.622 358.846 576.226 358.91 576.15V576.15Z" fill="#8E714E"/>
<path fill-rule="evenodd" clip-rule="evenodd" d="M343.556 584.579C343.239 584.541 343.011 584.49 342.732 584.362C342.694 584.337 342.63 584.209 342.63 584.158C342.605 583.712 342.605 582.437 342.605 581.583C342.605 580.894 342.491 580.294 342.199 579.874C341.856 579.389 341.361 579.109 340.727 579.109C340.169 579.109 339.42 579.491 338.798 580.027C338.785 580.039 338.684 580.129 338.697 579.988C338.697 579.848 338.722 579.568 338.735 579.376C338.748 579.198 338.646 579.109 338.646 579.109C338.24 579.312 337.098 579.58 336.679 579.618C336.375 579.682 336.299 579.976 336.616 580.078H336.629C336.971 580.18 337.199 580.294 337.377 580.409C337.504 580.511 337.491 580.652 337.491 580.766C337.504 581.723 337.504 583.189 337.466 583.993C337.453 584.311 337.364 584.426 337.136 584.477L337.161 584.464C336.984 584.503 336.844 584.541 336.628 584.566C336.552 584.643 336.552 585.051 336.628 585.14C336.768 585.14 337.504 585.102 338.113 585.102C338.95 585.102 339.382 585.14 339.598 585.14C339.686 585.038 339.712 584.656 339.661 584.566C339.42 584.554 339.242 584.528 339.077 584.477C338.849 584.426 338.785 584.311 338.773 584.044C338.748 583.368 338.748 581.939 338.748 580.97C338.748 580.703 338.824 580.575 338.9 580.498C339.192 580.243 339.661 580.065 340.08 580.065C340.486 580.065 340.752 580.192 340.955 580.358C341.234 580.588 341.323 580.919 341.361 581.162C341.425 581.71 341.399 582.794 341.399 583.738C341.399 584.248 341.361 584.375 341.171 584.439C341.082 584.477 340.854 584.528 340.587 584.554C340.498 584.643 340.524 585.038 340.587 585.128C340.955 585.128 341.387 585.089 342.021 585.089C342.808 585.089 343.315 585.128 343.519 585.128C343.582 585.051 343.607 584.681 343.556 584.579V584.579ZM347.071 579.708C346.399 579.708 345.98 580.231 345.98 581.047C345.98 581.876 346.348 582.832 347.388 582.832C347.566 582.832 347.896 582.756 348.048 582.577C348.289 582.348 348.454 581.888 348.454 581.404C348.454 580.345 347.934 579.708 347.071 579.708V579.708ZM346.982 585.344C346.729 585.344 346.551 585.421 346.437 585.485C345.904 585.829 345.663 586.16 345.663 586.556C345.663 586.926 345.802 587.219 346.107 587.474C346.475 587.793 346.982 587.946 347.629 587.946C348.924 587.946 349.495 587.244 349.495 586.556C349.495 586.071 349.254 585.752 348.759 585.574C348.404 585.421 347.757 585.344 346.982 585.344V585.344ZM347.071 588.66C346.297 588.66 345.739 588.494 345.257 588.124C344.787 587.767 344.584 587.232 344.584 586.862C344.584 586.76 344.61 586.479 344.838 586.224C344.978 586.071 345.282 585.778 346.005 585.281C346.031 585.268 346.043 585.255 346.043 585.229C346.043 585.204 346.018 585.178 345.993 585.166C345.396 584.936 345.219 584.566 345.168 584.362V584.337C345.155 584.26 345.13 584.184 345.244 584.107C345.333 584.044 345.46 583.967 345.599 583.878C345.815 583.75 346.043 583.61 346.183 583.495C346.208 583.47 346.208 583.444 346.208 583.419C346.208 583.393 346.183 583.368 346.158 583.355C345.27 583.062 344.825 582.399 344.825 581.404C344.825 580.754 345.117 580.167 345.637 579.797C345.993 579.517 346.881 579.172 347.465 579.172H347.503C348.099 579.185 348.429 579.312 348.898 579.478C349.152 579.568 349.393 579.606 349.723 579.606C350.218 579.606 350.434 579.453 350.611 579.274C350.624 579.3 350.65 579.364 350.662 579.529C350.675 579.695 350.624 579.937 350.497 580.116C350.396 580.256 350.167 580.358 349.939 580.358H349.875C349.647 580.333 349.545 580.307 349.545 580.307L349.495 580.333C349.482 580.358 349.495 580.384 349.507 580.422L349.52 580.448C349.546 580.562 349.596 580.907 349.596 580.996C349.596 582.042 349.178 582.501 348.733 582.845C348.302 583.164 347.807 583.368 347.249 583.419C347.236 583.419 347.186 583.419 347.071 583.431C347.008 583.431 346.919 583.444 346.906 583.444H346.894C346.792 583.47 346.538 583.597 346.538 583.814C346.538 584.005 346.653 584.235 347.198 584.273C347.312 584.286 347.426 584.286 347.553 584.299C348.277 584.35 349.178 584.413 349.596 584.554C350.18 584.77 350.548 585.293 350.548 585.918C350.548 586.862 349.876 587.742 348.759 588.29C348.213 588.532 347.668 588.66 347.071 588.66V588.66ZM354.304 579.772C354.037 579.772 353.796 579.835 353.619 579.963C353.124 580.269 352.87 580.881 352.87 581.774C352.87 583.444 353.707 584.618 354.9 584.618C355.256 584.618 355.535 584.515 355.776 584.311C356.144 584.005 356.334 583.393 356.334 582.539C356.334 580.881 355.509 579.772 354.304 579.772L354.304 579.772ZM354.532 585.23C352.375 585.23 351.601 583.636 351.601 582.144C351.601 581.098 352.02 580.294 352.857 579.721C353.454 579.351 354.164 579.147 354.799 579.147C356.448 579.147 357.603 580.333 357.603 582.042C357.603 583.202 357.146 584.12 356.271 584.681C355.852 584.962 355.129 585.23 354.532 585.23H354.532V585.23ZM331.921 579.772C331.654 579.772 331.413 579.835 331.236 579.963C330.741 580.269 330.487 580.881 330.487 581.774C330.487 583.444 331.324 584.618 332.517 584.618C332.873 584.618 333.152 584.515 333.393 584.311C333.761 584.005 333.951 583.393 333.951 582.539C333.951 580.881 333.139 579.772 331.921 579.772ZM332.149 585.23C329.992 585.23 329.218 583.636 329.218 582.144C329.218 581.098 329.637 580.294 330.474 579.721C331.071 579.351 331.781 579.147 332.416 579.147C334.065 579.147 335.22 580.333 335.22 582.042C335.22 583.202 334.763 584.12 333.888 584.681C333.482 584.962 332.758 585.23 332.149 585.23ZM317.646 585.102C317.621 585.064 317.595 584.949 317.608 584.809C317.608 584.707 317.633 584.643 317.646 584.618C317.913 584.579 318.052 584.541 318.204 584.503C318.458 584.439 318.56 584.299 318.572 583.98C318.611 583.215 318.611 581.761 318.598 580.754V580.728C318.598 580.613 318.598 580.473 318.458 580.371C318.255 580.243 318.014 580.129 317.697 580.039C317.583 580.001 317.507 579.937 317.519 579.861C317.519 579.784 317.595 579.695 317.76 579.67C318.179 579.631 319.27 579.364 319.702 579.172C319.727 579.198 319.765 579.274 319.765 579.376L319.752 579.516C319.74 579.657 319.727 579.823 319.727 579.988C319.727 580.039 319.778 580.078 319.829 580.078C319.854 580.078 319.879 580.065 319.905 580.052C320.717 579.414 321.453 579.185 321.833 579.185C322.455 579.185 322.937 579.478 323.305 580.09C323.331 580.129 323.356 580.141 323.394 580.141C323.419 580.141 323.457 580.129 323.47 580.103C324.219 579.529 324.968 579.185 325.462 579.185C326.642 579.185 327.34 580.065 327.34 581.557C327.34 581.978 327.34 582.526 327.328 583.024C327.328 583.47 327.315 583.878 327.315 584.171C327.315 584.235 327.404 584.439 327.543 584.477C327.721 584.566 327.962 584.605 328.279 584.656H328.292C328.317 584.745 328.267 585.076 328.216 585.14C328.14 585.14 328.025 585.14 327.899 585.128C327.577 585.111 327.256 585.102 326.934 585.102C326.148 585.102 325.742 585.115 325.348 585.14C325.323 585.038 325.31 584.732 325.348 584.656C325.577 584.618 325.691 584.579 325.83 584.541C326.084 584.464 326.148 584.35 326.16 584.018C326.16 583.776 326.211 581.71 326.135 581.213C326.059 580.703 325.678 580.103 324.841 580.103C324.523 580.103 324.029 580.231 323.546 580.6C323.521 580.626 323.495 580.69 323.495 580.728V580.741C323.546 581.008 323.546 581.315 323.546 581.786V582.615C323.546 583.189 323.534 583.725 323.546 584.133C323.546 584.413 323.711 584.477 323.851 584.528C323.927 584.541 323.978 584.554 324.041 584.566C324.155 584.592 324.27 584.618 324.447 584.656C324.473 584.707 324.473 584.873 324.435 585.013C324.422 585.089 324.396 585.127 324.384 585.14C323.952 585.128 323.508 585.115 322.861 585.115C322.671 585.115 322.341 585.128 322.062 585.128C321.833 585.128 321.618 585.14 321.491 585.14C321.478 585.115 321.453 585.026 321.453 584.885C321.453 584.771 321.478 584.681 321.504 584.656C321.567 584.643 321.618 584.63 321.681 584.63C321.833 584.605 321.96 584.579 322.087 584.554C322.303 584.49 322.379 584.375 322.392 584.095C322.43 583.457 322.468 581.634 322.379 581.174C322.227 580.435 321.808 580.065 321.135 580.065C320.742 580.065 320.247 580.256 319.841 580.562C319.778 580.613 319.727 580.741 319.727 580.856V581.608C319.727 582.526 319.727 583.674 319.74 584.171C319.752 584.324 319.803 584.503 320.095 584.566C320.159 584.579 320.26 584.605 320.387 584.618L320.615 584.656C320.641 584.732 320.628 585.038 320.577 585.14C320.45 585.14 320.298 585.128 320.12 585.128C319.854 585.115 319.511 585.102 319.131 585.102C318.687 585.102 318.369 585.115 318.116 585.128C317.938 585.102 317.798 585.102 317.646 585.102V585.102Z" fill="#442D22"/>
<path fill-rule="evenodd" clip-rule="evenodd" d="M310.972 588.163L310.452 587.984C310.452 587.984 310.515 585.319 309.563 585.128C308.929 584.388 309.665 553.757 311.949 585.025C311.949 585.025 311.162 585.421 311.023 586.097C310.87 586.76 310.972 588.163 310.972 588.163V588.163Z" fill="white"/>
<path fill-rule="evenodd" clip-rule="evenodd" d="M310.972 588.163L310.452 587.984C310.452 587.984 310.515 585.319 309.563 585.128C308.929 584.388 309.665 553.757 311.949 585.025C311.949 585.025 311.162 585.421 311.023 586.097C310.87 586.76 310.972 588.163 310.972 588.163V588.163Z" fill="#A6A385"/>
<path fill-rule="evenodd" clip-rule="evenodd" d="M311.251 585.587C311.251 585.587 315.806 582.577 314.74 576.316C313.713 571.763 311.289 570.271 311.023 569.697C310.731 569.289 310.452 568.575 310.452 568.575L310.642 581.238C310.642 581.251 310.249 585.115 311.251 585.587" fill="white"/>
<path fill-rule="evenodd" clip-rule="evenodd" d="M311.251 585.587C311.251 585.587 315.806 582.577 314.74 576.316C313.713 571.763 311.289 570.271 311.023 569.697C310.731 569.289 310.452 568.575 310.452 568.575L310.642 581.238C310.642 581.251 310.249 585.115 311.251 585.587" fill="#499D4A"/>
<path fill-rule="evenodd" clip-rule="evenodd" d="M310.185 585.752C310.185 585.752 305.909 582.819 306.163 577.655C306.404 572.49 309.424 569.952 310.007 569.493C310.388 569.085 310.401 568.932 310.426 568.524C310.693 569.098 310.642 577.106 310.68 578.05C310.794 581.684 310.477 585.064 310.185 585.752Z" fill="white"/>
<path fill-rule="evenodd" clip-rule="evenodd" d="M310.185 585.752C310.185 585.752 305.909 582.819 306.163 577.655C306.404 572.49 309.424 569.952 310.007 569.493C310.388 569.085 310.401 568.932 310.426 568.524C310.693 569.098 310.642 577.106 310.68 578.05C310.794 581.684 310.477 585.064 310.185 585.752Z" fill="#58AA50"/>
</g>
<defs>
<linearGradient id="paint0_linear_26_322" x1="373.341" y1="302.953" x2="365.641" y2="315.066" gradientUnits="userSpaceOnUse">
<stop stop-color="#41873F"/>
<stop offset="0.3288" stop-color="#418B3D"/>
<stop offset="0.6352" stop-color="#419637"/>
<stop offset="0.9319" stop-color="#3FA92D"/>
<stop offset="1" stop-color="#3FAE2A"/>
</linearGradient>
<linearGradient id="paint1_linear_26_322" x1="369.405" y1="309.737" x2="388.712" y2="299.235" gradientUnits="userSpaceOnUse">
<stop offset="0.1376" stop-color="#41873F"/>
<stop offset="0.4032" stop-color="#54A044"/>
<stop offset="0.7136" stop-color="#66B848"/>
<stop offset="0.9081" stop-color="#6CC04A"/>
</linearGradient>
<linearGradient id="paint2_linear_26_322" x1="362.335" y1="308.785" x2="378.619" y2="308.785" gradientUnits="userSpaceOnUse">
<stop offset="0.09192" stop-color="#6CC04A"/>
<stop offset="0.2864" stop-color="#66B848"/>
<stop offset="0.5968" stop-color="#54A044"/>
<stop offset="0.8624" stop-color="#41873F"/>
</linearGradient>
<linearGradient id="paint3_linear_26_322" x1="362.336" y1="315.526" x2="378.619" y2="315.526" gradientUnits="userSpaceOnUse">
<stop offset="0.09192" stop-color="#6CC04A"/>
<stop offset="0.2864" stop-color="#66B848"/>
<stop offset="0.5968" stop-color="#54A044"/>
<stop offset="0.8624" stop-color="#41873F"/>
</linearGradient>
<linearGradient id="paint4_linear_26_322" x1="380.991" y1="302.568" x2="376.876" y2="324.159" gradientUnits="userSpaceOnUse">
<stop stop-color="#41873F"/>
<stop offset="0.3288" stop-color="#418B3D"/>
<stop offset="0.6352" stop-color="#419637"/>
<stop offset="0.9319" stop-color="#3FA92D"/>
<stop offset="1" stop-color="#3FAE2A"/>
</linearGradient>
<clipPath id="clip0_26_322">
<rect width="67.9348" height="67.9348" fill="white" transform="translate(312 53)"/>
</clipPath>
<clipPath id="clip1_26_322">
<rect width="59.8315" height="53.2875" fill="white" transform="translate(95.3098 192.152)"/>
</clipPath>
<clipPath id="clip2_26_322">
<rect width="74.0489" height="45.355" fill="white" transform="translate(343.136 289.478)"/>
</clipPath>
<clipPath id="clip3_26_322">
<rect width="74.0489" height="76.3273" fill="white" transform="translate(173.136 496.929)"/>
</clipPath>
<clipPath id="clip4_26_322">
<rect width="65.6" height="16.9754" fill="white" transform="translate(528.528 371.8)"/>
</clipPath>
<clipPath id="clip5_26_322">
<rect width="43.12" height="43.12" fill="white" transform="translate(237.248 247.248)"/>
</clipPath>
<clipPath id="clip6_26_322">
<rect width="36.984" height="36.984" fill="white" transform="translate(424.008 127.008)"/>
</clipPath>
<clipPath id="clip7_26_322">
<rect width="70.4" height="20.1756" fill="white" transform="translate(306.152 568.496)"/>
</clipPath>
</defs>
</svg>
