<svg width="50" height="50" viewBox="0 0 50 50" fill="none" xmlns="http://www.w3.org/2000/svg">
<circle cx="25" cy="25" r="24.5" stroke="#444444"/>
<g clip-path="url(#clip0_18_355)">
<path fill-rule="evenodd" clip-rule="evenodd" d="M13.8166 21.586H8.01437V24.4841H10.8694C10.9182 24.4841 10.9651 24.5035 10.9996 24.5379C11.0342 24.5723 11.0536 24.619 11.0536 24.6676V27.4725H14.0009V21.7698C14.0009 21.7456 13.9962 21.7217 13.9869 21.6994C13.9777 21.6771 13.9641 21.6569 13.947 21.6398C13.9299 21.6227 13.9096 21.6092 13.8872 21.5999C13.8648 21.5907 13.8409 21.5859 13.8166 21.5859V21.586Z" fill="#8E75FF"/>
<path opacity="0.405" fill-rule="evenodd" clip-rule="evenodd" d="M8.01407 21.5865V24.4846H5.29219C5.27389 24.4846 5.256 24.4792 5.2408 24.4691C5.2256 24.4589 5.21378 24.4445 5.20683 24.4276C5.19989 24.4107 5.19814 24.3922 5.20181 24.3743C5.20547 24.3564 5.21439 24.3401 5.22742 24.3273L8.01414 21.5865H8.01407ZM11.2105 30.2167C11.1976 30.2294 11.1812 30.238 11.1633 30.2414C11.1455 30.2448 11.127 30.2429 11.1103 30.2359C11.0935 30.229 11.0792 30.2172 11.0691 30.2022C11.059 30.1871 11.0536 30.1694 11.0536 30.1513V27.4729H14.0009L11.2105 30.2162V30.2166V30.2167Z" fill="#8E75FF"/>
<path opacity="0.405" fill-rule="evenodd" clip-rule="evenodd" d="M8.01407 24.4841H10.9617C11.0122 24.4841 11.0536 24.525 11.0536 24.5757V27.4724H8.19868C8.17448 27.4724 8.15052 27.4676 8.12816 27.4584C8.1058 27.4492 8.08548 27.4357 8.06837 27.4187C8.05125 27.4016 8.03767 27.3814 8.02841 27.3591C8.01915 27.3368 8.01438 27.313 8.01438 27.2889V24.484H8.01407V24.4841Z" fill="#8E75FF"/>
<path fill-rule="evenodd" clip-rule="evenodd" d="M43.7211 21.4032C43.8858 21.5655 44.0801 21.6464 44.3044 21.6464C44.5358 21.6464 44.7338 21.5655 44.8985 21.4031C45.0633 21.2408 45.1454 21.0496 45.1454 20.8285C45.1454 20.6077 45.0633 20.4144 44.8985 20.2487C44.822 20.1687 44.7297 20.1054 44.6275 20.0626C44.5253 20.0199 44.4153 19.9986 44.3044 20.0001C44.0801 20.0001 43.8858 20.083 43.7211 20.2483C43.5564 20.4144 43.4742 20.6074 43.4742 20.8288C43.4742 21.0496 43.5564 21.2408 43.7211 21.4031V21.4032ZM25.8509 23.5209C25.8508 23.5291 25.8475 23.5369 25.8416 23.5427C25.8358 23.5485 25.8279 23.5517 25.8196 23.5517H24.6627V25.7057C24.6627 25.8851 24.7085 26.0163 24.7994 26.0992C24.8904 26.182 25.0237 26.2284 25.1989 26.2388C25.3592 26.2485 25.5545 26.2478 25.7852 26.2371L25.8179 26.2354C25.8221 26.2352 25.8263 26.2358 25.8303 26.2373C25.8342 26.2387 25.8378 26.2409 25.8409 26.2438C25.844 26.2467 25.8464 26.2502 25.8481 26.254C25.8498 26.2579 25.8506 26.262 25.8506 26.2662V27.4174C25.8507 27.425 25.8479 27.4324 25.8428 27.4381C25.8376 27.4438 25.8306 27.4474 25.823 27.4483L25.8018 27.4506C24.8958 27.5456 24.2549 27.4573 23.8797 27.1862C23.4977 26.9101 23.3071 26.4165 23.3071 25.7057V23.5517H22.4234C22.4152 23.5517 22.4074 23.5485 22.4016 23.5427C22.3958 23.5369 22.3925 23.529 22.3925 23.5209V22.2986C22.3925 22.2819 22.4063 22.2678 22.4234 22.2678H23.3069V21.4132C23.3069 21.3883 23.3217 21.3662 23.3443 21.3562L24.6193 20.8036C24.624 20.8015 24.6292 20.8006 24.6344 20.801C24.6396 20.8013 24.6446 20.803 24.6489 20.8058C24.6533 20.8086 24.6569 20.8125 24.6593 20.817C24.6618 20.8215 24.6631 20.8266 24.6631 20.8318V22.2677H25.8197C25.8366 22.2677 25.8507 22.2815 25.8507 22.2986V23.5209H25.851H25.8509ZM28.3095 23.1585C28.4355 22.827 28.6439 22.5785 28.9345 22.4127C29.2213 22.25 29.5456 22.1645 29.8756 22.1644C29.8839 22.1644 29.8919 22.1677 29.8977 22.1735C29.9036 22.1794 29.9069 22.1873 29.9069 22.1955V23.5997C29.9069 23.6067 29.9054 23.6136 29.9025 23.6201C29.8997 23.6265 29.8955 23.6322 29.8903 23.6369C29.885 23.6416 29.8789 23.6452 29.8722 23.6474C29.8655 23.6496 29.8584 23.6503 29.8514 23.6497C29.4603 23.6148 29.1091 23.6997 28.7979 23.904C28.4722 24.1177 28.3095 24.4734 28.3095 24.9706V27.4143C28.3095 27.4184 28.3087 27.4225 28.3071 27.4262C28.3056 27.43 28.3032 27.4334 28.3003 27.4363C28.2974 27.4392 28.294 27.4414 28.2902 27.443C28.2864 27.4445 28.2823 27.4453 28.2782 27.4452H26.9842C26.976 27.4452 26.9681 27.442 26.9623 27.4362C26.9565 27.4304 26.9533 27.4225 26.9533 27.4143V22.2983C26.9533 22.2815 26.967 22.2674 26.9842 22.2674H28.2782C28.295 22.2674 28.3091 22.2812 28.3091 22.2983V23.1579L28.3095 23.1585ZM34.7207 22.2678C34.7166 22.2677 34.7125 22.2685 34.7087 22.27C34.705 22.2716 34.7015 22.2738 34.6986 22.2767C34.6957 22.2795 34.6934 22.283 34.6918 22.2867C34.6902 22.2905 34.6894 22.2945 34.6894 22.2986V22.879C34.2831 22.3747 33.712 22.1228 32.9761 22.1228C32.2755 22.1228 31.6744 22.3868 31.1736 22.9149C30.6724 23.443 30.4219 24.0902 30.4219 24.8565C30.4219 25.6228 30.6724 26.27 31.1736 26.798C31.6744 27.3262 32.2755 27.5901 32.9761 27.5901C33.712 27.5901 34.2829 27.3382 34.6894 26.8343V27.4143C34.6894 27.4311 34.7035 27.4452 34.7206 27.4452H36.0144C36.0226 27.4452 36.0305 27.442 36.0364 27.4362C36.0422 27.4304 36.0456 27.4226 36.0456 27.4143V22.2983C36.0456 22.2942 36.0448 22.2902 36.0432 22.2864C36.0417 22.2826 36.0394 22.2792 36.0365 22.2763C36.0335 22.2735 36.0301 22.2712 36.0263 22.2697C36.0225 22.2681 36.0185 22.2674 36.0144 22.2674H34.7206V22.2678H34.7207ZM32.188 25.9127C32.4612 26.182 32.8077 26.3166 33.2287 26.3166C33.649 26.3166 33.9976 26.18 34.2744 25.9072C34.5512 25.6348 34.6893 25.2846 34.6893 24.8565C34.6893 24.4285 34.5512 24.0781 34.2744 23.8054C33.9976 23.533 33.649 23.3964 33.2284 23.3964C32.808 23.3964 32.4612 23.5329 32.1877 23.8057C31.9148 24.0781 31.7778 24.4284 31.7778 24.8565C31.7778 25.2845 31.9145 25.6366 32.188 25.9126L32.188 25.9127ZM42.0729 22.9149C41.5717 22.3868 40.9672 22.1228 40.2596 22.1228C39.5237 22.1228 38.9562 22.3748 38.5567 22.8787V22.2986C38.5567 22.2904 38.5534 22.2826 38.5476 22.2768C38.5418 22.271 38.534 22.2678 38.5258 22.2678H37.2318C37.2236 22.2678 37.2157 22.271 37.2099 22.2768C37.2041 22.2826 37.2009 22.2904 37.2009 22.2986V29.4851C37.2009 29.5022 37.2146 29.5163 37.2318 29.5163H38.5258C38.534 29.5161 38.5418 29.5128 38.5476 29.507C38.5534 29.5012 38.5567 29.4933 38.5567 29.4851V26.8343C38.9562 27.3382 39.5237 27.5901 40.2596 27.5901C40.9672 27.5901 41.5717 27.3262 42.0729 26.798C42.5737 26.27 42.8242 25.6228 42.8242 24.8565C42.8242 24.0902 42.5737 23.443 42.0729 22.9149V22.9149ZM38.9666 25.9127C39.2401 26.182 39.5866 26.3166 40.0073 26.3166C40.4276 26.3166 40.7762 26.18 41.053 25.9072C41.3299 25.6348 41.4684 25.2846 41.4684 24.8565C41.4684 24.4285 41.3299 24.0781 41.053 23.8054C40.7762 23.533 40.4276 23.3964 40.0073 23.3964C39.5866 23.3964 39.2401 23.5329 38.9666 23.8057C38.6935 24.0781 38.5567 24.4284 38.5567 24.8565C38.5567 25.2845 38.6934 25.6366 38.9666 25.9126V25.9127ZM43.6629 27.4452C43.6547 27.4452 43.6468 27.442 43.641 27.4362C43.6351 27.4304 43.6319 27.4225 43.6319 27.4143V22.2983C43.6319 22.2815 43.6457 22.2674 43.6629 22.2674H44.9568C44.974 22.2674 44.9878 22.2812 44.9878 22.2983V27.4147C44.9878 27.4229 44.9845 27.4307 44.9787 27.4365C44.9729 27.4423 44.965 27.4455 44.9568 27.4455H43.6629V27.4452V27.4452ZM19.4862 24.0747C19.3003 23.9885 19.2077 23.8761 19.2077 23.7382C19.2077 23.6071 19.2653 23.5034 19.3812 23.4276C19.4966 23.3517 19.6421 23.3135 19.8173 23.3135C20.153 23.3135 20.4067 23.4427 20.5784 23.7007C20.5842 23.7095 20.5928 23.7159 20.6028 23.719C20.6129 23.7221 20.6237 23.7215 20.6334 23.7174L21.7777 23.2186C21.7817 23.2168 21.7852 23.2142 21.7881 23.211C21.791 23.2078 21.7932 23.204 21.7945 23.1999C21.7958 23.1958 21.7963 23.1915 21.7958 23.1872C21.7954 23.1829 21.794 23.1787 21.7919 23.175C21.7787 23.153 21.7653 23.1314 21.7515 23.1099C21.5558 22.8063 21.3023 22.5798 20.9839 22.4076C20.6337 22.2177 20.2447 22.1228 19.8173 22.1228C19.2494 22.1228 18.7749 22.2694 18.3927 22.563C18.0111 22.8562 17.8202 23.2585 17.8202 23.7691C17.8202 24.1077 17.9131 24.3888 18.0987 24.6132C18.278 24.833 18.5117 25.0025 18.7766 25.1051C19.0376 25.2069 19.3043 25.2933 19.5755 25.3638C19.8416 25.4329 20.0679 25.5107 20.2534 25.5969C20.439 25.6832 20.5319 25.7952 20.5319 25.9335C20.5319 26.2304 20.2902 26.3786 19.8069 26.3786C19.3465 26.3786 19.0275 26.2109 18.85 25.8761C18.8429 25.862 18.8306 25.8511 18.8157 25.8457C18.8008 25.8403 18.7844 25.8407 18.7698 25.8469L17.6288 26.3451C17.625 26.3468 17.6216 26.3492 17.6187 26.3522C17.6159 26.3552 17.6137 26.3588 17.6122 26.3626C17.6108 26.3665 17.6101 26.3707 17.6103 26.3748C17.6105 26.3789 17.6116 26.383 17.6134 26.3867L17.6261 26.4126C18.0249 27.1977 18.7517 27.5901 19.8069 27.5901C20.4094 27.5901 20.9122 27.4469 21.315 27.1607C21.7181 26.8739 21.9195 26.4649 21.9195 25.9334C21.9195 25.5811 21.8266 25.288 21.641 25.0531C21.4661 24.8264 21.2313 24.6526 20.963 24.5511C20.7019 24.4526 20.4352 24.3696 20.1642 24.3025C19.8978 24.2369 19.6718 24.161 19.4862 24.0744V24.0747V24.0747Z" fill="#2F2E8B"/>
</g>
<defs>
<clipPath id="clip0_18_355">
<rect width="40" height="10.3509" fill="white" transform="translate(5.2 20)"/>
</clipPath>
</defs>
</svg>
